<svg width="26" height="26" viewBox="0 0 26 26" fill="none" xmlns="http://www.w3.org/2000/svg">
<path d="M13 0C9.55264 0 6.24512 1.36998 3.80736 3.80736C1.36986 6.24486 0 9.55232 0 13C0 16.4477 1.36998 19.7549 3.80736 22.1926C6.24486 24.6301 9.55232 26 13 26C16.4477 26 19.7549 24.63 22.1926 22.1926C24.6301 19.7551 26 16.4477 26 13C25.9963 9.5536 24.6262 6.24864 22.1888 3.8112C19.7513 1.3737 16.4464 0.00384 13 0ZM19.1062 9.64L12.44 17.64C12.2537 17.8538 11.99 17.9837 11.7062 18C11.4412 18 11.1875 17.8938 11 17.7062L7 13.7062C6.63251 13.3125 6.64374 12.6988 7.025 12.3175C7.405 11.9375 8.01876 11.9262 8.41374 12.2938L11.6662 15.52L17.6262 8.36C17.995 7.93252 18.64 7.88499 19.0662 8.25375C19.4937 8.62124 19.5412 9.26627 19.1737 9.69375L19.1062 9.64Z" fill="#3390FF"/>
</svg>
