<svg width="62" height="62" viewBox="0 0 62 62" fill="none" xmlns="http://www.w3.org/2000/svg">
<path d="M0.0136719 9.15344C0.142007 3.8917 4.63434 -0.472203 10.0244 0.0411377C14.7727 0.554608 18.109 4.53347 18.2373 9.15344V14.4152H59.9463C60.9729 14.4152 61.8716 15.3134 62 16.34V59.9738C62 61.0003 61.1017 61.8993 60.0752 61.8995H8.99707C5.14728 61.8994 1.55454 59.5891 0.399414 55.7394C-0.113927 54.071 0.0136719 52.1454 0.0136719 50.3488V9.15344ZM18.2373 47.9103C18.2373 49.8351 15.5431 50.6054 14.6445 48.9376C12.2062 44.5744 6.5594 44.4456 3.86426 48.5519V52.7872C3.86426 55.6106 5.91743 57.9206 8.86914 58.049H12.0771C17.8522 58.049 23.7562 58.0494 29.5312 57.921H58.0215V18.1368H18.2373V47.9103ZM50.3223 49.7072C52.8884 49.7075 52.7601 53.5564 50.3223 53.5568H24.2695C21.8316 53.5564 21.8316 49.7075 24.2695 49.7072H50.3223ZM50.3223 43.6759C52.8884 43.6763 52.7601 47.5251 50.3223 47.5255H24.2695C21.8316 47.5252 21.8316 43.6762 24.2695 43.6759H50.3223ZM14.2588 7.74133C12.9752 3.12175 6.43038 2.60822 4.37695 6.8429C3.73528 8.12625 3.86426 9.53863 3.86426 10.9503V43.4191C7.07262 41.4941 11.1794 41.4941 14.3877 43.4191V11.9767C14.3877 10.565 14.6438 9.02466 14.2588 7.74133ZM50.3223 23.3986C51.3488 23.3988 52.2467 24.297 52.375 25.5802V30.8419C52.375 31.8686 51.4768 32.7667 50.4502 32.7667C49.4235 32.7667 48.5254 31.8686 48.5254 30.8419V30.2003C45.8304 32.8953 43.1355 35.4623 40.4404 38.1573C39.6705 38.9273 38.5151 38.9271 37.7451 38.1573L32.6113 33.0236C30.1731 34.8202 27.863 36.6166 25.4248 38.4132C24.5265 39.0549 23.2428 38.542 22.7295 37.6437C22.2162 36.7454 22.73 35.7189 23.5 35.0773C26.3234 33.0239 29.0184 30.8416 31.8418 28.7882C32.4835 28.2752 33.638 28.5319 34.1514 29.045L39.0283 33.922C41.21 31.612 43.5205 29.4299 45.7021 27.2482H45.0605C44.0339 27.2482 43.1348 26.35 43.1348 25.3234C43.1348 24.2967 44.0339 23.3986 45.0605 23.3986H50.3223Z" fill="#3390FF"/>
</svg>
