<svg width="75" height="75" viewBox="0 0 75 75" fill="none" xmlns="http://www.w3.org/2000/svg">
<path d="M30.043 21.4961C32.543 21.4961 35 22.2461 37.168 23.4961C39.336 22.2031 41.793 21.4961 44.293 21.4961H68.418C71.668 21.4961 74.3359 24.1641 74.3359 27.4141V52.082C74.3359 55.332 71.668 58 68.418 58H62.418C62.125 58.461 61.918 58.918 61.543 59.293C61 59.7929 60.418 60.25 59.793 60.625C57.211 62.164 54.0429 62.164 51.4609 60.832C51.1289 62.789 50.1289 64.5821 48.5859 65.9141C46.0859 68.0781 42.625 68.5391 39.668 67.3711C39.543 68.0821 39.375 68.7461 39.125 69.4141C38.668 70.5781 37.9609 71.6211 37.043 72.4961C35.418 74.0781 33.2929 74.8281 31.168 74.8281C28.875 74.8281 26.625 73.9531 24.918 72.2461L10.7109 58.0391H5.91797C2.66801 58.039 1.87892e-05 55.3711 0 52.1211V27.4141C0 24.1211 2.66798 21.457 5.91797 21.4961H30.043ZM30.043 25.6641H5.91797C4.96099 25.6641 4.16797 26.4571 4.16797 27.4141V52.1211C4.168 53.0781 4.96101 53.871 5.91797 53.8711H11.5859C12.125 53.8711 12.668 54.0821 13.043 54.4961L27.7539 69.3711C29.5039 71.082 32.2969 71.1639 34.0469 69.5391C34.5468 69.0821 34.8789 68.539 35.1289 67.957C35.5469 66.914 35.5469 65.75 35.1289 64.707C34.7539 63.9141 34.4609 63.5391 34.1289 63.207L31.5039 60.582C30.672 59.7501 30.672 58.457 31.5039 57.625C32.3359 56.793 33.6289 56.793 34.4609 57.625L39.293 62.457C41.0859 64.25 43.9179 64.4569 45.7109 62.875C46.7109 61.957 47.293 60.707 47.293 59.375C47.293 58.125 46.8359 57 45.9609 56.125C45.918 56.082 45.8789 56 45.8359 55.957C45.7929 55.9141 45.7109 55.875 45.668 55.832L40.9609 51.125C40.129 50.293 40.129 49 40.9609 48.168C41.7929 47.336 43.0859 47.336 43.918 48.168L48.625 52.875C48.6679 52.9179 48.7071 53 48.75 53.043C48.7929 53.0859 48.875 53.125 48.918 53.168L52.168 56.418C53.6289 57.875 55.836 58.1249 57.5859 57.125C57.8789 56.918 58.168 56.7109 58.4609 56.418C58.8359 56.043 59.1719 55.625 59.3789 55.125C59.6719 54.586 59.7969 53.918 59.7969 53.293C59.7969 52.082 59.3359 50.957 58.5039 50.125L45.7109 37.332C45.336 37 44.7109 37 44.3789 37.332L37.0859 44.625C34.2499 47.457 29.3749 47.582 26.418 44.832C24.918 43.414 24.086 41.496 24.043 39.4141C24.043 37.2071 24.875 35.0821 26.418 33.5391L33.625 26.332C32.5 25.8711 31.293 25.6211 30.043 25.6641ZM44.2461 25.5781C42.1641 25.5781 40.0781 26.2852 38.3711 27.5352C37.9961 27.8242 37.6211 28.1602 37.2891 28.4922L29.3711 36.4102C28.6211 37.1602 28.2461 38.1602 28.2461 39.2422C28.2461 40.2032 28.6211 41.0352 29.2891 41.6602C30.6641 42.9101 32.914 42.8711 34.207 41.5781L41.5 34.2852C43.414 32.3672 46.789 32.3672 48.707 34.2852L61.5 47.0781C63.125 48.7031 64.043 50.8672 64.043 53.1602C64.043 53.4101 64 53.6211 64 53.8281H68.418C69.375 53.8281 70.1679 53.0351 70.168 52.0781V27.3711C70.168 26.4141 69.375 25.6211 68.418 25.6211V25.582L44.2461 25.5781ZM52.542 7.58203C53.374 6.75 54.667 6.75003 55.499 7.58203C56.331 8.41403 56.331 9.70704 55.499 10.5391L50.374 15.6641C49.9599 16.082 49.374 16.2891 48.874 16.2891C48.3741 16.2891 47.835 16.082 47.417 15.6641C46.585 14.8321 46.585 13.5391 47.417 12.707L52.542 7.58203ZM18.8369 7.58203C19.6689 6.75001 20.9619 6.75 21.7939 7.58203L26.9189 12.6641C27.7509 13.4961 27.751 14.7891 26.9189 15.6211C26.5439 16.0391 26.0049 16.2461 25.4619 16.2461C24.919 16.2461 24.376 16.082 23.9619 15.6641L18.8369 10.5391C18.0049 9.70706 18.0049 8.41406 18.8369 7.58203ZM37.168 0C38.332 1.59749e-05 39.25 0.914041 39.25 2.08203V9.33203C39.25 10.496 38.3359 11.414 37.168 11.4141C36.0039 11.4141 35.086 10.5 35.0859 9.33203V2.08203C35.0859 0.918001 36 0 37.168 0Z" fill="#3390FF"/>
</svg>
