<svg width="98" height="100" viewBox="0 0 98 100" fill="none" xmlns="http://www.w3.org/2000/svg">
<path fill-rule="evenodd" clip-rule="evenodd" d="M30.8986 73.0852C30.8943 72.0276 30.2575 71.0732 29.2765 70.6647C28.2999 70.2606 27.1726 70.4799 26.4153 71.2236L19.6863 77.9392C18.9463 78.6959 18.7269 79.8223 19.1313 80.7983C19.54 81.7785 20.4909 82.4192 21.5493 82.4278C22.8701 82.4278 23.4639 81.6023 24.3588 80.7123L30.1283 74.9469C30.6231 74.4525 30.9029 73.7817 30.8986 73.0852ZM32.7142 87.2381H32.7185C31.9698 87.9948 31.7504 89.1212 32.1592 90.1015C32.5679 91.0817 33.5273 91.7181 34.59 91.7181C35.9108 91.7181 36.5175 90.8797 37.421 89.9812L43.1691 84.2373V84.233C43.965 83.4849 44.2146 82.3241 43.8015 81.3181C43.3842 80.3078 42.3904 79.6586 41.2976 79.6886C39.9853 79.6886 39.3916 80.4926 38.5225 81.3739L32.7057 87.1736L32.7142 87.2381ZM30.8512 85.3765C29.9821 86.2579 29.3884 87.0618 28.0762 87.0618H28.0805C27.0221 87.0575 26.067 86.4212 25.6582 85.4409C25.2538 84.4607 25.4732 83.3342 26.2176 82.5818L32 76.8036C32.8906 75.9136 33.4887 75.0967 34.7966 75.0967H34.8009C35.8593 75.101 36.8144 75.7416 37.2189 76.7219C37.6276 77.6979 37.4039 78.8243 36.6596 79.5767L30.8556 85.3764L30.8512 85.3765ZM44.8811 93.6742L42.9967 95.5573L43.0053 95.5616C42.5148 96.056 41.8479 96.3312 41.1553 96.3312C40.071 96.3484 39.0858 95.6992 38.6728 94.6974C38.2597 93.6957 38.5093 92.5435 39.2923 91.7954L45.0317 86.0602C45.9352 85.1573 46.5419 84.3104 47.8713 84.3104C48.9383 84.3104 49.8977 84.951 50.3064 85.9356C50.7108 86.9201 50.4871 88.0509 49.7342 88.8032L44.8897 93.6356L44.8811 93.6742ZM86.6107 74.3836L94.4412 70.8195L82.3255 44.4046L74.4951 47.9816L86.6107 74.3965V74.3836ZM83.3064 73.5797C81.2155 76.443 78.0403 78.9624 74.3617 76.529L74.1423 76.3871L59.8238 62.079C58.2104 60.4624 55.6806 60.2089 53.7745 61.4728C51.3824 63.0593 48.7321 64.7747 46.5164 66.1848C44.49 67.4488 40.5231 66.7695 39.3443 64.5682C38.3848 62.4529 41.5471 58.9663 43.9608 56.2491L45.8668 54.0478C48.6849 50.1526 49.8852 48.721 54.5792 48.4243C58.9849 48.1491 60.1423 48.4243 64.1178 50.0967V50.0924C67.1639 51.4467 70.4209 52.2593 73.7466 52.5043L83.4184 73.6693L83.3064 73.5797ZM46.6709 48.7298C45.5824 49.8692 44.5886 51.0944 43.698 52.3928C43.2032 53.0076 42.5966 53.6826 41.9598 54.3963C39.0169 57.6981 35.2308 61.89 36.9045 65.5577C38.5781 69.0702 44.0207 70.2784 47.3895 68.5844C48.3489 68.0986 53.998 64.3452 55.1769 63.5671C56.0288 62.9781 57.1861 63.0942 57.9047 63.8422L73.9998 79.93C74.7527 80.6824 74.9807 81.8131 74.572 82.7977C74.1633 83.7779 73.2038 84.4186 72.1369 84.4099C70.8461 84.4099 70.2653 83.6274 69.4264 82.7933C69.1854 82.5267 68.8412 82.372 68.4798 82.3634C68.1184 82.3548 67.7699 82.4967 67.5118 82.7503C67.2579 83.0083 67.1203 83.3565 67.1289 83.7177C67.1375 84.0788 67.2967 84.4227 67.5677 84.6635C68.596 85.691 68.596 87.3549 67.5677 88.3824C66.5394 89.4099 64.8701 89.4099 63.8418 88.3824L62.2241 86.7443C61.9788 86.4778 61.6389 86.323 61.2775 86.3144C60.9161 86.3058 60.5633 86.4477 60.3095 86.7014C60.0556 86.9593 59.9179 87.3076 59.9265 87.6687C59.9351 88.0298 60.0943 88.3738 60.3611 88.6146C61.2947 89.655 61.2474 91.2457 60.2578 92.2303C59.2683 93.2192 57.6807 93.2579 56.6394 92.3249L54.798 90.4848H54.8023C54.2817 90.0119 53.4771 90.0291 52.9781 90.5278C52.479 91.0222 52.4575 91.8219 52.9265 92.3463C53.6794 93.0987 53.9074 94.2251 53.4987 95.2097C53.0943 96.1899 52.1391 96.8306 51.0764 96.8349C50.3794 96.8392 49.7083 96.5597 49.2178 96.0653L47.6861 94.5605L51.5971 90.6955C53.2664 89.0145 53.6106 86.4263 52.4318 84.3712C51.2529 82.3161 48.8478 81.3015 46.5504 81.8905C46.4084 80.3643 45.6081 78.9756 44.3561 78.09C43.1084 77.2 41.5294 76.9077 40.0407 77.2774C39.916 75.7383 39.12 74.3366 37.8637 73.4381C36.6074 72.5395 35.0198 72.2429 33.5225 72.6212C33.3504 70.579 32.0124 68.8206 30.0849 68.1112C28.1617 67.4061 25.9976 67.8747 24.5434 69.3193L19.3891 74.4699V74.4742C18.1285 73.5069 16.6269 72.905 15.0522 72.733L25.1758 50.5654H25.1715C28.0542 51.2748 31.04 51.4554 33.9829 51.1071C34.1507 51.0813 34.3099 51.0297 34.4562 50.9524C36.8527 49.7658 39.4341 48.9962 42.0887 48.6737C43.6289 48.5061 45.1822 48.5319 46.7181 48.7382L46.6709 48.7298ZM26.2946 48.115V48.1107C27.2326 48.3214 28.1834 48.4676 29.1385 48.5536C30.5669 48.6653 32.004 48.6481 33.4323 48.4977C36.0525 47.2164 38.8749 46.391 41.7704 46.0556C44.425 45.7633 47.114 45.9696 49.6912 46.6704C51.1798 46.0857 52.7588 45.7632 54.3593 45.7117C59.1264 45.4021 60.7269 45.789 65.0551 47.5732C67.4128 48.5879 69.8953 49.293 72.4338 49.6757L71.5948 47.8484H71.5991C71.4528 47.5303 71.4399 47.1691 71.5604 46.8424C71.6808 46.5156 71.9304 46.2534 72.2488 46.1072L82.4713 41.4424H82.467C82.7854 41.2962 83.1468 41.2833 83.4737 41.4037C83.8007 41.5284 84.0632 41.7735 84.2095 42.0916L97.3836 70.8839C97.5256 71.202 97.5385 71.5632 97.418 71.8899C97.2975 72.2167 97.048 72.4789 96.7296 72.6208L86.5071 77.2856L86.5114 77.2899C86.193 77.436 85.8316 77.4489 85.5046 77.3243C85.1776 77.2039 84.9152 76.9588 84.7689 76.6407L84.5796 76.2322C82.7295 78.4335 80.1739 80.2263 77.145 80.1188H77.1493C77.7387 81.9202 77.3085 83.9021 76.0264 85.3037C74.7442 86.7009 72.8081 87.3029 70.9581 86.8772C70.829 88.5625 69.8997 90.0803 68.4584 90.9658C67.0171 91.8515 65.2402 91.9934 63.6785 91.3442C63.3945 92.9608 62.3705 94.3537 60.9077 95.1104C59.4449 95.8628 57.7196 95.8929 56.231 95.1835C55.7792 97.6813 53.6065 99.5 51.068 99.5C49.6655 99.5 48.3231 98.9454 47.3336 97.9609L45.8234 96.4175L44.8769 97.3633C43.4355 98.8079 41.2887 99.2851 39.3698 98.5973C37.4509 97.9051 36.1043 96.1682 35.9106 94.1388C34.4048 94.543 32.7957 94.2592 31.5221 93.3607C30.2443 92.4664 29.4312 91.0476 29.3021 89.4956C27.8091 89.8611 26.2344 89.5558 24.9824 88.6659C23.7304 87.7716 22.9301 86.3786 22.7925 84.8524C20.5982 85.3468 18.3308 84.401 17.1434 82.4921C15.9559 80.5832 16.1108 78.1327 17.5306 76.3871C16.4421 75.6949 15.1815 75.3166 13.895 75.2865L13.2454 76.7182C13.0991 77.0363 12.8366 77.2814 12.5096 77.4017C12.1827 77.5264 11.8213 77.5135 11.5029 77.3674L1.28465 72.6554C0.957663 72.5135 0.703829 72.2426 0.579059 71.9073C0.458586 71.5719 0.475801 71.2022 0.630689 70.8841L13.7618 42.0918C13.9038 41.7736 14.1706 41.5286 14.4976 41.4039C14.8246 41.2835 15.186 41.2964 15.5 41.4426L25.7226 46.1074C26.0409 46.2535 26.2862 46.5158 26.4109 46.8425C26.5314 47.1693 26.5185 47.5304 26.3722 47.8486L26.2517 48.1108L26.2946 48.115ZM23.2098 48.5235L11.4036 74.3837L3.57317 70.8195L15.6888 44.4046L23.5193 47.9816L23.2568 48.5534L23.2098 48.5235ZM40.0968 3.28239C37.0807 4.02188 34.0132 4.54205 30.9197 4.84737C30.2528 4.92045 29.7452 5.47506 29.7323 6.14577V7.52155C29.4913 13.9619 29.0611 22.4449 31.8577 28.4334C35.2996 35.9701 41.1338 42.1614 48.4561 46.0433C48.8391 46.254 49.3037 46.254 49.6909 46.0433C53.3179 44.1646 56.592 41.6709 59.3714 38.6786C62.1681 35.6476 64.4956 32.2125 66.2682 28.4893C67.1459 26.4686 67.7526 24.3405 68.0709 22.1607C68.854 17.0961 68.5227 11.2663 68.3334 6.16756H68.3377C68.3334 5.47108 67.7913 4.89502 67.0943 4.8477C61.0407 4.30169 55.1031 2.86999 49.4715 0.599956C49.1531 0.466681 48.796 0.466681 48.4777 0.599956C45.7456 1.71345 42.9318 2.61629 40.0621 3.30848L40.0968 3.28239ZM49.0071 3.2093C43.6505 5.31171 38.0402 6.69607 32.3227 7.32376C32.0904 13.2568 31.6085 21.7738 34.1728 27.2681C35.8292 30.7549 38.0063 33.9794 40.6264 36.8212C43.0487 39.4395 45.8797 41.6536 49.0076 43.369C55.543 39.7189 60.7444 34.0782 63.8427 27.268C64.6128 25.4795 65.1463 23.6007 65.4174 21.6747C65.9423 16.9239 66.0369 12.1345 65.6927 7.36657C59.9705 6.72598 54.3602 5.32437 49.0084 3.20919L49.0071 3.2093ZM39.0943 25.1535C38.7587 24.7838 38.5737 24.3022 38.578 23.7992C38.5134 23.0683 38.9179 22.3761 39.589 22.0752C40.2559 21.7742 41.0432 21.929 41.5509 22.4578L44.8552 25.9575C45.1047 26.2197 45.4489 26.3702 45.8146 26.3702C46.176 26.3702 46.5202 26.2197 46.7697 25.9575L56.4631 15.8541C56.7815 15.523 57.2161 15.3382 57.6765 15.3382C58.3993 15.4027 59.0189 15.8713 59.2855 16.5506C59.548 17.2256 59.406 17.9909 58.9198 18.5283L47.2216 30.7474C46.8602 31.1172 46.3654 31.3235 45.8448 31.3235C45.3286 31.3235 44.8338 31.1172 44.4681 30.7474L39.0943 25.1535ZM42.5319 32.5484L37.2227 26.9593C35.9707 25.6695 35.6007 23.7607 36.2719 22.0925C36.9474 20.4286 38.5393 19.3151 40.3377 19.2549C41.538 19.2506 42.6868 19.7494 43.5 20.6307L45.8922 23.1286L54.5142 14.0054C55.7834 12.7629 57.6765 12.4018 59.3114 13.094C60.9464 13.7819 62.009 15.3898 62.0047 17.1654C62.0091 18.3434 61.5616 19.4785 60.7485 20.334L49.1274 32.5531C48.2712 33.4473 47.0837 33.9546 45.8446 33.9546C44.6055 33.9546 43.418 33.4473 42.5618 32.5531L42.5319 32.5484Z" fill="#3390FF" stroke="#3390FF"/>
</svg>
