<svg width="88" height="98" viewBox="0 0 88 98" fill="none" xmlns="http://www.w3.org/2000/svg">
<path fill-rule="evenodd" clip-rule="evenodd" d="M0.467738 77.2491C0.0028718 76.4155 0.306992 75.3617 1.14549 74.8995L26.0132 61.1949C28.4461 59.8517 31.3743 59.7523 33.8985 60.9185L47.8054 67.3581L60.0396 60.6161C61.2474 59.951 62.6768 59.7912 64.0062 60.1669C65.3356 60.547 66.4608 61.4367 67.1299 62.6374L68.077 64.3391C68.3681 64.8617 68.5636 65.4275 68.6592 66.0062L69.6106 65.4836C72.1304 64.0972 75.302 64.9999 76.6966 67.5049L77.7219 69.3405C78.391 70.5411 78.5517 71.9621 78.1737 73.2837C77.7914 74.6053 76.8965 75.7239 75.6886 76.3891L43.774 93.9757C43.4091 94.1744 42.9877 94.2391 42.5793 94.1571L25.1622 90.6026L13.4886 97.0336C12.6501 97.4957 11.5901 97.1934 11.1252 96.3598L0.467738 77.2491ZM10.0518 73.945L4.35177 77.0849C6.7282 81.3477 13.3232 93.1733 13.3232 93.1733L19.0232 90.0335L10.0518 73.945ZM51.7026 69.1639C53.045 69.8161 54.04 71.0125 54.4353 72.4507C54.5482 72.8567 54.6047 73.2627 54.6221 73.673L64.3539 68.365C64.7579 68.1447 65.0577 67.7733 65.1836 67.3328C65.314 66.8922 65.2618 66.4171 65.0359 66.0155L64.0888 64.3137C63.8629 63.9121 63.4893 63.6184 63.0461 63.4888C62.603 63.3636 62.1295 63.4154 61.7254 63.64L51.7026 69.1639ZM51.859 79.2055C50.3514 80.5919 48.1227 80.9979 46.185 80.1298L30.592 73.1936C29.7144 72.8005 29.3234 71.777 29.7144 70.9088C30.1097 70.0364 31.1393 69.6477 32.0126 70.0364L47.6057 76.9812C48.3703 77.3224 49.274 77.072 49.7519 76.3809L50.838 74.7958C51.1334 74.3769 51.216 73.85 51.0813 73.3619C50.951 72.8696 50.6077 72.4679 50.1429 72.2519L32.43 64.0502C30.918 63.3505 29.1629 63.4109 27.6988 64.2186L13.0922 72.2691L22.0637 88.3576L24.0361 87.2692C24.401 87.0705 24.8224 87.0057 25.2308 87.0878L42.6479 90.6423L74.0019 73.3663C74.406 73.1418 74.7014 72.7703 74.8317 72.3298C74.9577 71.8893 74.9056 71.4185 74.6797 71.0168L73.6543 69.1812C73.1895 68.3476 72.1338 68.0454 71.2953 68.5075L51.859 79.2055ZM31.7827 43.9107L8.92584 57.5457C8.22202 57.9646 7.32271 57.8394 6.76661 57.2433C6.20616 56.6473 6.13665 55.7403 6.60586 55.0753L27.929 24.6044C30.5965 17.2017 37.413 11.9546 45.3549 11.9546C50.6075 11.9546 55.3647 14.2479 58.7581 17.9407L61.7036 15.0125L51.2333 3.11782C50.7858 2.60818 50.6771 1.88258 50.9595 1.26496C51.2419 0.651663 51.8632 0.254323 52.541 0.25H85.5122C86.4723 0.25432 87.2543 1.02742 87.25 1.9819V34.7547C87.25 35.4371 86.8546 36.0504 86.2334 36.3312C85.6121 36.6076 84.8866 36.5039 84.3695 36.0591L72.439 25.6806L63.3545 35.2471C62.8679 36.8365 62.1468 38.456 61.33 39.972C59.7355 42.9392 57.8327 45.5046 57.0289 46.5412V46.6319V51.1495C57.0289 52.5272 56.4815 53.8402 55.5039 54.8163C55.1303 55.1877 54.7045 55.4944 54.2484 55.7362V56.5136C54.2484 59.3728 51.9153 61.6964 49.0393 61.6964L41.6058 61.6921C38.7254 61.6964 36.3923 59.3727 36.3923 56.5136V55.6973C35.9622 55.4641 35.5625 55.1661 35.2106 54.8163C34.2374 53.8445 33.6857 52.5272 33.6857 51.1495V46.6275V46.5455C33.2773 46.0186 32.582 45.0898 31.7827 43.9107ZM26.7648 32.319L14.0834 50.4374L29.9457 40.9745C29.7545 40.6506 29.5677 40.3137 29.3852 39.9725C28.0558 37.502 26.969 34.7505 26.7648 32.319ZM56.2992 20.3812C53.5448 17.3234 49.6652 15.41 45.3554 15.41C42.1578 15.41 39.1948 16.4639 36.7532 18.2562C34.1464 20.1782 32.1307 22.9466 31.0619 26.1773C30.5058 27.853 30.206 29.6497 30.206 31.5198C30.206 33.6448 31.253 36.1151 32.4477 38.3438C32.6823 38.7844 32.93 39.2162 33.1776 39.6352C34.9284 42.6024 36.7749 44.8526 36.7749 44.8526C36.7836 44.8699 36.7923 44.8828 36.8053 44.9001H43.6523V37.4499L38.769 32.5954C38.0913 31.9216 38.0913 30.8245 38.769 30.1509C39.4511 29.4771 40.5503 29.4771 41.228 30.1509L45.3944 34.2928L49.5565 30.1509C50.1256 29.5851 50.9989 29.4944 51.6592 29.8831C51.7896 29.9565 51.9069 30.0429 52.0111 30.1509C52.6889 30.8246 52.6932 31.9217 52.0155 32.5954L47.1322 37.4499V44.9001H53.9098C53.9185 44.8872 53.9315 44.8699 53.9445 44.8569C53.9445 44.8569 56.3427 41.9201 58.263 38.3439C59.1102 36.7718 59.8791 35.0788 60.2572 33.4722C60.4179 32.8027 60.5091 32.1463 60.5091 31.52C60.5091 28.4967 59.7228 25.6592 58.3499 23.2319C57.7677 22.204 57.0813 21.2492 56.2992 20.3812ZM63.8978 29.6411L71.0619 22.0958C71.7049 21.4264 72.7649 21.3746 73.4688 21.9835L83.774 30.9498V3.70524L56.3683 3.70956L65.3919 13.9498C65.9915 14.6365 65.9611 15.6688 65.3137 16.3123L60.8866 20.7134C62.5289 23.3177 63.5981 26.3587 63.8978 29.6411ZM52.5667 56.2808C52.5363 56.2851 52.5015 56.2894 52.4668 56.2938L52.5146 56.3326L52.5667 56.2808ZM51.8151 52.8775C52.2756 52.8775 52.7188 52.6961 53.0446 52.3765C53.3705 52.0482 53.5529 51.6077 53.5529 51.1542V48.3555H37.1613L37.157 51.1542C37.1613 51.6077 37.3438 52.0482 37.6696 52.3722C37.9955 52.6961 38.4343 52.8775 38.8992 52.8775L51.8151 52.8775ZM38.065 56.2679L38.1345 56.3326L38.1301 56.2765C38.1084 56.2765 38.0823 56.2722 38.065 56.2679ZM39.8679 56.3326V56.514C39.8723 57.4685 40.6456 58.2416 41.6058 58.2416H49.0349C49.9951 58.2373 50.7727 57.4685 50.7771 56.514L50.7727 56.3326H39.8679Z" fill="#3390FF" stroke="#3390FF" stroke-width="0.5"/>
</svg>
