<svg width="103" height="103" viewBox="0 0 103 103" fill="none" xmlns="http://www.w3.org/2000/svg">
<path fill-rule="evenodd" clip-rule="evenodd" d="M36.5856 5.29711C36.5856 4.21633 37.4622 3.33474 38.548 3.33474H63.8998C64.9806 3.33474 65.8622 4.21629 65.8622 5.29711V23.5311C65.8622 24.6119 64.9856 25.4935 63.8998 25.4935H49.0722C48.6738 25.4935 48.2803 25.6678 48.0064 25.9766L43.4142 31.231V26.908C43.4142 26.126 42.7816 25.4935 41.9996 25.4935H38.5481C37.4672 25.4935 36.5856 24.6119 36.5856 23.5311L36.5856 5.29711ZM38.548 28.3264H40.5851V35.0053C40.5851 35.598 40.9437 36.1259 41.5016 36.3302C41.6659 36.39 41.8353 36.4198 41.9996 36.4198C42.3981 36.4198 42.7916 36.2505 43.0655 35.9367L49.7197 28.3264H63.9046C66.5494 28.3264 68.696 26.1748 68.696 23.5302V5.29622C68.696 2.65159 66.5494 0.5 63.9046 0.5H38.5528C35.9081 0.5 33.7615 2.65159 33.7615 5.29622V23.5302C33.7615 26.1748 35.9081 28.3264 38.5528 28.3264L38.548 28.3264ZM94.6106 73.5397H89.3262C88.2354 73.5397 87.3439 72.6532 87.3439 71.5574C87.3439 70.4617 88.2304 69.5752 89.3262 69.5752H94.6106C95.7014 69.5752 96.5929 70.4617 96.5929 71.5574C96.5929 72.6532 95.7064 73.5397 94.6106 73.5397ZM102.5 56.9148V56.8998C102.495 55.1616 101.628 53.6177 100.294 52.6813C101.036 51.7898 101.474 50.6492 101.474 49.4042C101.474 46.5553 99.153 44.2344 96.304 44.2344H88.8629C87.7871 44.2344 86.796 44.5631 85.9642 45.1309C86.532 40.6234 87.5531 30.662 83.2796 26.3142C81.6709 24.6806 79.5342 23.9983 76.9292 24.2921C75.3304 24.4715 74.18 25.871 74.3144 27.4797C75.3404 39.6869 72.5562 44.5037 63.332 46.1918C62.6994 45.2853 61.6436 44.6877 60.4532 44.6877H55.0491C54.2672 44.6877 53.6246 45.3202 53.6246 46.1022C53.6246 46.8841 54.2672 47.5216 55.0491 47.5216H60.4532C60.8118 47.5216 61.1256 47.8254 61.1256 48.189V73.5299C61.1256 73.8935 60.8118 74.1973 60.4532 74.1973H55.0491C54.2672 74.1973 53.6246 74.8299 53.6246 75.6168C53.6246 76.4037 54.2672 77.0313 55.0491 77.0313H60.4532C61.8278 77.0313 63.0082 76.2394 63.586 75.0939C65.4687 75.2583 66.6291 75.6019 67.954 76.0004C68.9601 76.3042 70.0011 76.613 71.4356 76.872C73.0941 77.1758 74.8971 77.2903 76.74 77.2903C79.7832 77.2903 82.9658 76.9815 85.8895 76.6927C87.1098 76.5731 88.2703 76.4586 89.381 76.3739H94.6008C97.2554 76.3739 99.417 74.2173 99.417 71.5578C99.417 70.6115 99.1331 69.72 98.655 68.9779C100.294 68.1063 101.414 66.3881 101.414 64.4108C101.414 63.1757 100.976 62.045 100.254 61.1585C101.599 60.2272 102.485 58.6733 102.49 56.9151L102.5 56.9148ZM71.9485 74.0829C70.6685 73.8488 69.7023 73.5649 68.7709 73.281C67.436 72.8825 66.0713 72.4741 63.9596 72.2799V48.9612C69.5777 47.9053 73.1788 45.6939 75.2458 42.0332C77.1385 38.6863 77.7212 34.1292 77.1385 27.2456C77.1385 27.1759 77.1883 27.1161 77.258 27.1112C78.9764 26.9169 80.2813 27.3104 81.2674 28.3065C84.8187 31.9123 83.5037 42.1225 83.0705 45.4745C83.0506 45.5841 83.0506 45.6987 83.0605 45.8082C83.8126 52.6465 82.0843 56.1079 77.0986 57.7466C76.3565 57.9906 75.9481 58.7925 76.1922 59.5345C76.3864 60.1322 76.9442 60.5107 77.5369 60.5107C77.6814 60.5107 77.8408 60.4858 77.9852 60.441C79.8181 59.8383 81.2525 59.0265 82.3732 58.0752C82.6272 59.151 83.2099 60.0972 84.0118 60.7995C83.1054 61.7309 82.5376 63.0059 82.5376 64.4104C82.5376 66.3777 83.6483 68.0909 85.267 68.9625C84.7789 69.7146 84.505 70.6062 84.505 71.5575C84.505 72.4191 84.7291 73.221 85.1275 73.9232C80.7197 74.3516 75.8137 74.7899 71.9384 74.0876L71.9485 74.0829ZM88.8633 47.0679H96.3044C97.5944 47.0679 98.6453 48.1138 98.6453 49.4037C98.6453 50.6886 97.5943 51.7395 96.3044 51.7395H88.8633C87.5833 51.7395 86.5324 50.6936 86.5324 49.4037C86.5324 48.1138 87.5834 47.0679 88.8633 47.0679ZM87.409 59.2403C86.1191 59.2403 85.0781 58.1944 85.0781 56.9045C85.0781 55.6145 86.124 54.5686 87.409 54.5686H97.3304C98.6204 54.5686 99.6614 55.6145 99.6614 56.9045C99.6614 58.1894 98.6154 59.2403 97.3304 59.2403H87.409ZM96.2547 66.7409H87.7079C86.4179 66.7409 85.377 65.695 85.377 64.4051C85.377 63.1152 86.4229 62.0743 87.7079 62.0743H96.2547C97.5446 62.0743 98.5856 63.1202 98.5856 64.4051C98.5856 65.6901 97.5397 66.7409 96.2547 66.7409ZM49.1569 73.9427C49.5354 76.2038 49.0872 77.7827 47.6527 79.2171C46.2183 80.6564 44.6394 81.1047 42.3733 80.7212C39.1059 80.1684 36.003 81.4534 34.0805 84.1578C32.7556 86.0305 31.3211 86.8274 29.2891 86.8274C27.262 86.8274 25.8276 86.0305 24.4878 84.1578C22.8691 81.8667 20.3887 80.5966 17.6892 80.5966C17.2011 80.5966 16.703 80.6365 16.195 80.7212C13.9338 81.1047 12.3599 80.6564 10.9254 79.217C9.48107 77.7826 9.03276 76.2038 9.42126 73.9427C9.96914 70.6705 8.68911 67.5726 5.97965 65.6501C4.11693 64.3252 3.31505 62.8909 3.31505 60.8589C3.31505 58.8269 4.11694 57.3975 5.97965 56.0676C8.6941 54.1451 9.96915 51.0472 9.42126 47.7751C9.03277 45.5139 9.48103 43.9351 10.9254 42.5007C12.3599 41.0663 13.9288 40.618 16.195 40.9966C19.4722 41.5494 22.5752 40.2694 24.4878 37.56C25.8226 35.6873 27.2471 34.8904 29.2891 34.8904C31.3262 34.8904 32.7506 35.6873 34.0805 37.56C36.003 40.2645 39.1059 41.5494 42.3733 40.9966C44.6344 40.6131 46.2183 41.0613 47.6527 42.4957C49.0872 43.9301 49.5355 45.509 49.1569 47.7701C48.5991 51.0423 49.8791 54.1402 52.5886 56.0626C54.4614 57.3875 55.2532 58.8219 55.2532 60.8539C55.2532 62.8859 54.4612 64.3204 52.5886 65.6451C49.8741 67.5676 48.5991 70.6655 49.1569 73.9377V73.9427ZM43.1104 93.9987L47.9266 94.4519L42.8165 83.6292C42.5126 83.6043 42.2138 83.5645 41.91 83.5147C39.7335 83.1461 37.6665 83.9978 36.3914 85.7958C35.9432 86.4333 35.465 86.9862 34.957 87.4643L38.8021 98.2272L41.8951 94.5067C42.1889 94.1481 42.6471 93.9588 43.1153 94.0037L43.1104 93.9987ZM19.8751 98.2671L23.7102 87.529C23.1723 87.036 22.6643 86.4582 22.1961 85.7958C20.9161 83.9977 18.8591 83.1412 16.6875 83.5146C16.4136 83.5595 16.1396 83.5943 15.8757 83.6192L10.7456 94.4917L15.5619 94.0384C16.0301 93.9986 16.4783 94.1829 16.7821 94.5465L19.8752 98.2719L19.8751 98.2671ZM54.2313 67.96C56.8263 66.1172 58.0963 63.7913 58.0963 60.8578C58.0963 57.9242 56.8262 55.6033 54.2313 53.7556C52.4384 52.4805 51.5767 50.4186 51.9502 48.2471C52.4881 45.1045 51.736 42.5693 49.659 40.4974C47.5821 38.4206 45.0469 37.6735 41.9141 38.2064C39.7376 38.5749 37.6706 37.7183 36.3956 35.9253C34.5527 33.3303 32.2318 32.0654 29.3031 32.0654C26.3744 32.0654 24.0435 33.3255 22.2007 35.9253C20.9207 37.7233 18.8636 38.5749 16.6921 38.2064C13.5494 37.6784 11.0142 38.4255 8.93725 40.4974C6.86033 42.5743 6.11825 45.1094 6.64612 48.2471C7.01469 50.4186 6.16798 52.4805 4.36493 53.7556C1.76995 55.5983 0.5 57.9242 0.5 60.8578C0.5 63.7913 1.77006 66.1172 4.36493 67.96C6.16798 69.235 7.01958 71.297 6.64612 73.4734C6.11817 76.6161 6.86029 79.1512 8.93725 81.2231C10.0878 82.3686 11.3778 83.1107 12.8321 83.4543L7.12426 95.5272C6.91009 95.9854 6.9599 96.5283 7.24878 96.9467C7.54264 97.365 8.03074 97.5892 8.53875 97.5443L15.0933 96.9267L19.287 101.987C19.561 102.316 19.9594 102.5 20.3778 102.5C20.4575 102.5 20.5422 102.49 20.6219 102.475C21.1299 102.385 21.5383 102.037 21.7126 101.554L26.1703 89.0825C27.1266 89.4611 28.1676 89.6553 29.3031 89.6553C30.4636 89.6553 31.5394 89.4511 32.5106 89.0477L36.9683 101.519C37.1327 101.997 37.5561 102.351 38.0491 102.44C38.1388 102.455 38.2135 102.46 38.2932 102.46C38.7116 102.46 39.115 102.276 39.384 101.952L43.5877 96.8919L50.1322 97.5045C50.6403 97.5543 51.1383 97.3252 51.4272 96.9068C51.721 96.4884 51.7709 95.9456 51.5467 95.4874L45.8589 83.4246C47.2734 83.0709 48.5335 82.3388 49.6542 81.2181C51.7311 79.1462 52.4832 76.6062 51.9453 73.4685C51.5767 71.297 52.4334 69.2351 54.2265 67.96L54.2313 67.96ZM29.2978 76.6361C20.5966 76.6361 13.5139 69.5587 13.5139 60.8578C13.5139 52.1568 20.5964 45.0795 29.2978 45.0795C37.9989 45.0795 45.0714 52.1568 45.0714 60.8578C45.0714 69.5587 37.9988 76.6361 29.2978 76.6361ZM29.2978 42.2451C19.0276 42.2451 10.6846 50.5975 10.6846 60.8578C10.6846 71.1181 19.0223 79.4704 29.2978 79.4704C39.5679 79.4704 47.9109 71.123 47.9109 60.8578C47.9109 50.5925 39.5583 42.2451 29.2978 42.2451ZM34.139 61.7643C33.7903 62.098 33.631 62.5861 33.7206 63.0642L34.7466 68.4033L29.9851 65.7835C29.5568 65.5495 29.0388 65.5495 28.6204 65.7835L23.8489 68.4033L24.8749 63.0642C24.9646 62.5861 24.8052 62.098 24.4566 61.7643L20.487 58.0438L25.8811 57.3665C26.3692 57.3067 26.7776 57.0029 26.9917 56.5646L29.3028 51.6438L31.6138 56.5646C31.818 57.0079 32.2264 57.3067 32.7145 57.3665L38.1086 58.0438L34.139 61.7643ZM33.8352 54.6521L31.3598 49.3679C30.9813 48.561 30.1893 48.058 29.3028 48.058C28.4062 48.058 27.6143 48.5611 27.2358 49.3679L24.7604 54.6521L18.9678 55.3793C18.0813 55.4889 17.3591 56.0865 17.0851 56.9383C16.8112 57.785 17.0453 58.6964 17.6878 59.3041L21.9513 63.2984L20.8506 69.031C20.6862 69.9076 21.0249 70.7792 21.7471 71.3021C22.1555 71.5959 22.6137 71.7404 23.0819 71.7404C23.4604 71.7404 23.844 71.6457 24.1826 71.4565L29.3027 68.6425L34.4129 71.4565C35.1948 71.8898 36.1313 71.83 36.8534 71.3021C37.5756 70.7791 37.9193 69.9075 37.75 69.031L36.6492 63.2984L40.9127 59.3041C41.5652 58.6914 41.7993 57.785 41.5154 56.9383C41.2415 56.0916 40.5193 55.4939 39.6327 55.3793L33.8401 54.6521H33.8352ZM43.2985 12.6965C43.423 12.6268 43.5624 12.5919 43.687 12.5919C43.9709 12.5919 44.2448 12.7364 44.3892 12.9854L46.7998 17.159C47.014 17.5376 47.4025 17.7965 47.8358 17.8563C48.2741 17.9111 48.7124 17.7667 49.0262 17.4529L58.1956 8.28871C58.4994 7.9849 59.0074 7.9849 59.3162 8.28871C59.4607 8.43813 59.5404 8.63735 59.5404 8.85152C59.5404 9.06568 59.4607 9.2649 59.3162 9.41432L48.2343 20.491C48.0101 20.7151 47.7661 20.7948 47.4523 20.755C47.1485 20.7151 46.9244 20.5707 46.7699 20.2968L43.0046 13.7772C42.7904 13.4037 42.9249 12.9056 43.2985 12.6915V12.6965ZM44.3245 21.7162C44.9222 22.7522 45.9034 23.4096 47.0838 23.564C47.2581 23.5889 47.4325 23.5989 47.6018 23.5989C48.5979 23.5989 49.5144 23.2154 50.2366 22.4932L61.3185 11.4165C62.0009 10.7341 62.3844 9.82272 62.3844 8.85154C62.3844 7.88033 62.0059 6.96885 61.3185 6.28659C59.904 4.87209 57.6029 4.87209 56.1885 6.28659L48.329 14.1459L46.8447 11.571C45.8485 9.83776 43.6272 9.24513 41.8889 10.2461C40.1507 11.2472 39.558 13.4685 40.564 15.2017L44.3294 21.7213L44.3245 21.7162Z" fill="#3390FF" stroke="#3390FF"/>
</svg>
