<svg width="64" height="64" viewBox="0 0 64 64" fill="none" xmlns="http://www.w3.org/2000/svg">
<path d="M59.9573 37.3631C60.1678 36.2564 61.2343 35.5277 62.338 35.7354C63.4451 35.9465 64.1719 37.0123 63.9647 38.1224C61.5331 51.0281 51.5687 61.2463 38.837 63.9643C37.7468 64.1652 36.6567 63.5012 36.419 62.3911C36.1846 61.2879 36.8876 60.2016 37.988 59.9667C49.053 57.5014 57.8446 48.5768 59.9573 37.3631ZM8.76364 42.3209C9.70774 40.506 12.3296 40.506 13.2703 42.3209C14.6084 45.1404 16.4253 47.5171 19.1355 49.1448L20.8777 50.1969C22.4229 51.273 22.4229 53.5884 20.8743 54.6645L19.1355 55.7166C16.5544 57.2693 14.5711 59.6018 13.3587 62.3532C12.4417 64.3112 9.56854 64.4405 8.67539 62.3532C7.46978 59.595 5.45926 57.2932 2.90197 55.7166L1.31938 54.7666C-0.439792 53.7111 -0.439792 51.1538 1.31938 50.0948L2.90197 49.1448C5.58489 47.4933 7.43918 45.1438 8.76364 42.3209ZM11.0187 46.7817C9.57193 49.0495 7.63958 50.9836 5.35059 52.4308C7.63958 53.878 9.57202 55.8121 11.0187 58.0833C12.4655 55.8121 14.3979 53.878 16.6869 52.4308C14.3979 50.9836 12.4654 49.0495 11.0187 46.7817ZM29.6702 13.9974C30.6754 12.0599 33.4739 12.0599 34.4791 13.9974L35.5116 16.3981C37.1417 20.222 39.9367 23.4296 43.4925 25.5685L48.7022 28.708C50.2508 29.7875 50.2508 32.0961 48.7022 33.1755L43.4925 36.3151C40.0488 38.3854 37.3183 41.4636 35.6678 45.1272L34.5709 47.6845C33.5894 49.7718 30.5261 49.9148 29.5751 47.6845L28.6378 45.4848C27.0077 41.6609 24.2127 38.4532 20.6569 36.3144L15.6068 33.277C13.8476 32.2181 13.8476 29.6608 15.6068 28.6052L20.6569 25.5678C24.2126 23.4294 27.0077 20.2217 28.6378 16.3974L29.6702 13.9974ZM32.0747 18.6999C30.0709 23.0074 26.8276 26.6236 22.752 29.0715L19.6445 30.9409L22.752 32.8069C26.8273 35.2586 30.0707 38.8748 32.0747 43.182C34.0784 38.8745 37.3218 35.2583 41.3974 32.8069L44.5048 30.9409L41.3974 29.0715C37.322 26.6232 34.0787 23.007 32.0747 18.6999ZM27.731 1.60999C27.9653 2.71323 27.2623 3.79947 26.162 4.03439C15.0944 6.49968 6.30459 15.4242 4.19192 26.6379C3.98136 27.7445 2.91493 28.4733 1.81121 28.2655C0.704099 28.0544 -0.02273 26.9887 0.184451 25.8785C2.61611 12.9728 12.5805 2.75463 25.3122 0.0366368C26.4024 -0.167675 27.4933 0.499908 27.731 1.60999ZM50.1966 1.46016C51.1407 -0.354744 53.7626 -0.354744 54.7033 1.46016C56.0414 4.27962 57.8617 6.65635 60.5685 8.28401L62.3107 9.33616C63.8559 10.4122 63.8559 12.7276 62.3073 13.8037L60.5685 14.8558C57.9874 16.4051 56.0007 18.7411 54.7916 21.4924C53.8713 23.4504 51.0015 23.5798 50.1084 21.4924C48.9062 18.7343 46.8923 16.4324 44.335 14.8558L42.7524 13.9058C40.9932 12.8503 40.9932 10.293 42.7524 9.234L44.335 8.28401C47.0179 6.63255 48.8722 4.28302 50.1966 1.46016ZM52.4517 5.92088C51.0049 8.18873 49.0726 10.1228 46.7836 11.57C49.0726 13.0172 51.005 14.9513 52.4517 17.2225C53.8985 14.9513 55.8309 13.0172 58.1199 11.57C55.8309 10.1228 53.8984 8.18873 52.4517 5.92088Z" fill="#3390FF"/>
</svg>
