<svg width="1728" height="333" viewBox="0 0 1728 333" fill="none" xmlns="http://www.w3.org/2000/svg">
<path d="M-123.872 37.8069L-89.554 34.5269C-55.1553 31.3773 13.4811 24.8173 83.0036 19.6916C152.526 14.5658 222.774 10.6135 300.2 19.1843C377.904 27.752 462.348 48.5851 548.672 71.1038C634.637 93.4953 722.125 117.445 802.201 129.4C882.358 141.484 955.023 141.444 1017.54 124.974C1080.05 108.505 1132.41 75.6078 1207.66 80.6583C1283.19 85.7056 1381.33 128.704 1461.05 140.531C1540.49 152.362 1601.07 132.763 1656.09 104.169C1711.11 75.5738 1760.41 37.7217 1785.15 18.9261L1809.8 0.000113385L2001.53 310.313L1965.44 310.724C1929.35 311.136 1857.17 311.959 1784.99 312.782C1712.81 313.605 1640.63 314.428 1569 315.245C1497.1 316.065 1426.03 316.875 1354.13 317.695C1282.5 318.512 1210.32 319.335 1138.14 320.158C1065.96 320.982 993.775 321.805 921.594 322.628C849.413 323.451 777.232 324.274 705.606 325.091C633.703 325.911 562.632 326.721 490.729 327.541C419.103 328.358 346.922 329.181 274.741 330.004C202.56 330.827 130.378 331.65 94.2879 332.062L58.1974 332.473L-123.872 37.8069Z" fill="#F7F9FC"/>
</svg>
