<svg width="1728" height="871" viewBox="0 0 1728 871" fill="none" xmlns="http://www.w3.org/2000/svg">
<path d="M2513.54 247.773L2470.37 237.69C2427.03 227.884 2340.69 207.718 2252.37 190.601C2164.06 173.485 2074.12 158.864 1967.64 170.92C1860.8 182.945 1738.13 221.124 1612.03 262.816C1486.48 304.26 1358.05 348.971 1246.16 368.174C1134.1 387.655 1038.77 381.351 966.102 340.114C893.438 298.876 843.442 222.705 741.819 227.276C639.832 231.815 486.58 317.127 375.238 336.084C264.259 355.071 195.913 307.18 139.981 240.158C84.0485 173.136 40.8897 86.4294 19.1305 43.3534L-2.44904 9.33579e-06L-90.0157 718.586L-42.8893 722.57C4.23707 726.554 -101.063 695.932 -6.80983 703.899C87.4431 711.867 40.6321 699.695 134.16 707.601C228.051 715.538 320.854 723.382 414.744 731.319C508.272 739.225 602.525 747.192 696.778 755.159C791.031 763.127 885.284 771.094 979.537 779.061C1073.79 787.028 1168.04 794.996 1261.57 802.902C1355.46 810.838 1448.26 818.683 1542.15 826.62C1635.68 834.526 1729.94 842.493 1824.19 850.46C1918.44 858.427 2012.69 866.395 2059.82 870.378L2480.24 842.8L2513.54 247.773Z" fill="#EFF3F9"/>
</svg>
