<svg width="1728" height="871" viewBox="0 0 1728 871" fill="none" xmlns="http://www.w3.org/2000/svg">
<path d="M2385.38 247.773L2342.22 237.69C2298.87 227.884 2212.53 207.718 2124.21 190.601C2035.9 173.485 1945.96 158.863 1839.48 170.92C1732.64 182.945 1609.97 221.124 1483.88 262.816C1358.32 304.26 1229.89 348.971 1118 368.174C1005.94 387.655 910.607 381.351 837.944 340.114C765.28 298.876 715.284 222.705 613.66 227.276C511.674 231.815 358.422 317.127 247.08 336.084C136.101 355.071 67.755 307.18 11.8226 240.158C-44.1097 173.136 -87.2685 86.4294 -109.028 43.3533L-130.607 -2.11818e-05L-218.174 718.586L-171.047 722.57C-123.921 726.554 -229.221 695.932 -134.968 703.899C-40.7151 711.866 -87.5259 699.695 6.0019 707.601C99.8924 715.538 192.695 723.382 286.586 731.319C380.114 739.225 474.367 747.192 568.62 755.159C662.873 763.127 757.126 771.094 851.379 779.061C945.632 787.028 1039.88 794.996 1133.41 802.902C1227.3 810.838 1320.11 818.683 1414 826.62C1507.52 834.525 1601.78 842.493 1696.03 850.46C1790.28 858.427 1884.54 866.395 1931.66 870.378L2352.08 842.8L2385.38 247.773Z" fill="white"/>
</svg>
