<svg width="93" height="99" viewBox="0 0 93 99" fill="none" xmlns="http://www.w3.org/2000/svg">
<path opacity="0.3" fill-rule="evenodd" clip-rule="evenodd" d="M13.1028 18.2239C11.7106 16.8462 9.81168 16.0047 7.72738 16.0047C3.47654 16.0047 0 19.515 0 23.8751C0 27.4514 2.33969 30.4586 5.52783 31.4197V65.9338C5.52783 68.4376 6.86239 70.7517 9.02904 72.0057L38.9786 89.3187C38.8426 89.9004 38.7726 90.5067 38.7726 91.1296C38.7726 95.4855 42.2492 99 46.5 99C50.7508 99 54.2274 95.4855 54.2274 91.1296C54.2274 90.5067 54.1574 89.9003 54.0214 89.3187L83.971 72.0057C86.1376 70.7517 87.4722 68.4376 87.4722 65.9338V31.4197C90.6603 30.4585 93 27.4514 93 23.8751C93 19.515 89.5235 16.0047 85.2726 16.0047C83.1883 16.0047 81.2895 16.8462 79.8972 18.2239L50.0004 0.940495C47.8337 -0.313498 45.1646 -0.313498 42.9979 0.940495L13.1028 18.2239ZM49.8327 91.1287C49.8327 93.0303 48.354 94.5979 46.5003 94.5979C44.6466 94.5979 43.1679 93.0303 43.1679 91.1287C43.1679 89.2271 44.6466 87.6596 46.5003 87.6596C48.354 87.6596 49.8327 89.2271 49.8327 91.1287ZM77.7524 22.0646L47.807 4.74841C46.9997 4.28228 46.0029 4.28228 45.1955 4.74841L15.2502 22.0646C15.382 22.6462 15.4561 23.2526 15.4561 23.8754C15.4561 27.4518 13.1123 30.4589 9.9242 31.42V65.9341C9.9242 66.8663 10.4226 67.7284 11.23 68.1945L41.1226 85.478C42.5189 84.1044 44.4178 83.2587 46.5021 83.2587C48.5864 83.2587 50.4852 84.1043 51.8817 85.478L81.7743 68.1945C82.5816 67.7284 83.08 66.8663 83.08 65.9341V31.42C79.8919 30.4588 77.5481 27.4518 77.5481 23.8754C77.5481 23.2526 77.6223 22.6461 77.7541 22.0646H77.7524ZM42.9754 19.9031C38.671 22.3946 29.749 27.5508 25.4445 30.0382C23.2614 31.3004 21.9186 33.6351 21.9186 36.1597V56.4253C21.9186 58.9497 23.2613 61.2845 25.4445 62.5426C29.749 65.0342 38.671 70.1904 42.9754 72.6778C45.1585 73.94 47.8442 73.94 50.0273 72.6778C54.3317 70.1904 63.2537 65.0342 67.5581 62.5426C69.7412 61.2845 71.0841 58.9498 71.0841 56.4253V36.1597C71.0841 33.6352 69.7413 31.3004 67.5581 30.0382C63.2537 27.5508 54.3317 22.3946 50.0273 19.9031C47.8442 18.6409 45.1585 18.6409 42.9754 19.9031ZM26.3134 37.158V56.4257C26.3134 57.3786 26.8201 58.2572 27.6439 58.7357L44.3058 68.3675V47.4007C43.8651 47.2523 43.4367 47.0625 43.029 46.8232L26.3134 37.158ZM66.6887 37.158L49.973 46.8228C49.5652 47.062 49.1368 47.2518 48.6961 47.4003V68.3671L65.358 58.7352C66.1818 58.2567 66.6885 57.3781 66.6885 56.4253L66.6887 37.158ZM64.4932 33.3506L47.8313 23.7147C47.0075 23.2403 45.9942 23.2403 45.1704 23.7147L28.5085 33.3506L45.2242 43.0113C46.0151 43.4692 46.9872 43.4692 47.778 43.0113L64.4932 33.3506ZM11.0603 23.8755C11.0603 25.7772 9.58159 27.3447 7.72791 27.3447C5.87022 27.3447 4.39141 25.7772 4.39141 23.8755C4.39141 21.9739 5.87011 20.4023 7.72791 20.4023C9.58149 20.4023 11.0603 21.9739 11.0603 23.8755ZM88.6104 23.8755C88.6104 25.7772 87.1317 27.3447 85.2739 27.3447C83.4203 27.3447 81.9415 25.7772 81.9415 23.8755C81.9415 21.9739 83.4202 20.4023 85.2739 20.4023C87.1316 20.4023 88.6104 21.9739 88.6104 23.8755Z" fill="#3390FF"/>
</svg>
