<svg width="96" height="80" viewBox="0 0 96 80" fill="none" xmlns="http://www.w3.org/2000/svg">
<path d="M9.90479 79.9997H25.1429C30.6131 79.9938 35.0418 75.607 35.0477 70.1884V61.1318H81.006C89.2858 61.1201 95.9881 54.481 96 46.2794C96 45.0294 94.9762 44.0152 93.7143 44.0152H89.6606V8.54367C89.6487 3.82082 85.7737 0 81.0058 0H30.2323C25.4645 0 21.5894 3.82067 21.5775 8.54367V30.1889H9.90479C4.4346 30.1948 0.00594288 34.5816 0 40.0001V70.1887C0.00595202 75.6073 4.4346 79.9938 9.90479 79.9997ZM25.1429 75.4714H9.90479C7.85115 75.4655 5.98219 74.2922 5.10722 72.4526H29.9408C29.0658 74.2922 27.1964 75.4655 25.1429 75.4714ZM81.006 56.6036H35.0477V48.5435H46.1669C47.0954 50.8253 49.3275 52.323 51.8097 52.323H59.4288C61.9109 52.323 64.1431 50.8253 65.0716 48.5435H91.1791C90.1017 53.2546 85.881 56.5977 81.006 56.6036ZM30.2325 4.52829H81.006C83.2501 4.52239 85.0774 6.32073 85.0893 8.54367V44.0152H35.0473V39.9998C35.0294 34.9822 31.1902 30.7899 26.1485 30.2888V8.54397C26.1604 6.32103 27.9884 4.5224 30.2325 4.52829ZM9.90479 34.7169H25.1429C28.0894 34.7227 30.4703 37.0812 30.4763 39.9998V67.9243H4.57144V39.9998C4.57739 37.0812 6.95835 34.7227 9.90479 34.7169Z" fill="#3390FF"/>
</svg>
