<svg width="102" height="100" viewBox="0 0 102 100" fill="none" xmlns="http://www.w3.org/2000/svg">
<path d="M98.9239 13.4376L90.2981 11.1103C87.8777 10.4632 85.2979 12.4896 84.4263 15.735L83.2211 20.2692V20.2742V20.2792L67.942 77.7254V77.7354C67.9271 77.7956 67.9121 77.8558 67.9022 77.9109C67.8972 77.936 67.8972 77.9661 67.8922 77.9912C67.8872 78.0263 67.8823 78.0614 67.8823 78.1015C67.8823 78.1367 67.8773 78.1667 67.8773 78.1968V78.2871C67.8773 78.3222 67.8823 78.3574 67.8823 78.3925C67.8823 78.4075 67.8823 78.4276 67.8872 78.4426L69.6154 95.9584H12.3675C7.76067 95.9584 4.01052 92.1865 4.01052 87.5468C4.01052 82.9072 7.76067 79.1302 12.3675 79.1302H23.6429C29.0813 79.1302 33.5337 74.8166 33.8028 69.4045H34.9582C36.2331 69.4045 37.3835 68.923 38.285 68.0152L39.4355 66.8565C40.3319 65.9537 40.81 64.795 40.81 63.5109V55.4706C41.8409 54.9339 42.6676 54.036 43.1258 52.8974C44.1767 50.244 45.6309 48.2929 47.1699 46.2214C49.8293 42.6501 52.5785 38.9534 52.5785 32.0916C52.5785 20.4849 43.2006 11.0395 31.6756 11.0395C20.1412 11.0445 10.7689 20.4894 10.7689 32.0955C10.7689 38.9572 13.518 42.6539 16.1775 46.2252C17.7164 48.2918 19.1707 50.2479 20.2216 52.8963C20.7096 54.1452 21.6559 55.0982 22.8163 55.6149V63.5198C22.8163 64.8089 23.2944 65.9675 24.1958 66.8654L25.3413 68.019C26.2378 68.9319 27.3882 69.4184 28.6682 69.4184H29.7937C29.5298 72.6035 26.8752 75.1164 23.6431 75.1164H12.3676C5.55454 75.1164 0.0115534 80.6991 0.0115534 87.5607C0.0115534 94.4223 5.55467 100 12.3676 100H71.8226H71.8325C71.9023 100 71.977 99.995 72.0467 99.985C72.0666 99.985 72.0865 99.9799 72.1065 99.9749C72.1612 99.9649 72.216 99.9599 72.2708 99.9448C72.2907 99.9398 72.3106 99.9348 72.3306 99.9298C72.3853 99.9147 72.4352 99.8997 72.485 99.8846C72.5049 99.8796 72.5248 99.8696 72.5447 99.8646C72.5945 99.8445 72.6493 99.8244 72.6941 99.7994C72.7091 99.7893 72.729 99.7843 72.7439 99.7743C72.8037 99.7442 72.8585 99.7091 72.9133 99.674C72.9182 99.669 72.9282 99.669 72.9332 99.6639C72.9929 99.6238 73.0527 99.5787 73.1075 99.5335C73.1224 99.5185 73.1374 99.5034 73.1573 99.4884C73.1971 99.4533 73.232 99.4182 73.2669 99.378C73.2868 99.358 73.3017 99.3379 73.3167 99.3179C73.3515 99.2777 73.3814 99.2376 73.4163 99.1975C73.4262 99.1874 73.4362 99.1724 73.4462 99.1624L84.9257 83.0564C84.9307 83.0514 84.9307 83.0464 84.9307 83.0464C84.9556 83.0063 84.9855 82.9662 85.0054 82.926C85.0104 82.916 85.0154 82.906 85.0253 82.8959C85.0502 82.8508 85.0751 82.8107 85.095 82.7655C85.1 82.7555 85.105 82.7505 85.11 82.7404C85.1299 82.6953 85.1498 82.6451 85.1697 82.595C85.1697 82.59 85.1747 82.5799 85.1797 82.5749C85.1996 82.5198 85.2195 82.4646 85.2345 82.4044L100.505 24.9981C100.51 24.9881 100.515 24.978 100.515 24.963C100.52 24.9529 100.52 24.9429 100.52 24.9329L101.72 20.4187C102.591 17.1633 101.366 14.1037 98.9259 13.4366L98.9239 13.4376ZM36.8044 58.6904H26.809V56.032H31.5253C31.6199 56.047 31.7145 56.0571 31.8092 56.0571C31.9088 56.0571 32.0034 56.047 32.093 56.032H36.7994L36.8044 58.6904ZM24.8068 52.0043C24.3934 52.0043 24.0846 51.7936 23.9303 51.4024C22.6802 48.2575 21.0018 45.9953 19.3733 43.8033C16.9031 40.4779 14.7665 37.6088 14.7665 32.0863C14.7665 22.7017 22.3465 15.0623 31.6699 15.0623C40.988 15.0623 48.5732 22.6964 48.5732 32.0863C48.5732 37.6088 46.4366 40.4779 43.9664 43.8033C42.3379 45.9902 40.6545 48.2523 39.4095 51.3974C39.2551 51.7886 38.9413 51.9993 38.5329 51.9993H33.8166V41.466L36.013 39.6402C36.8646 38.933 36.9891 37.6639 36.2869 36.8063C35.5847 35.9486 34.3246 35.8232 33.4731 36.5304L31.8196 37.9048L30.1661 36.5304C29.3145 35.8232 28.0545 35.9486 27.3523 36.8063C26.65 37.664 26.7746 38.933 27.6262 39.6402L29.8226 41.466V51.9993L24.8068 52.0043ZM28.6615 65.3816C28.4523 65.3816 28.3228 65.3264 28.1684 65.1709L27.008 64.0022C26.8586 63.8568 26.8088 63.7263 26.8088 63.5157V62.7182H36.8042V63.5157C36.8042 63.7263 36.7494 63.8618 36.6 64.0123L35.4495 65.1709C35.3001 65.3264 35.1607 65.3816 34.9515 65.3816L28.6615 65.3816ZM73.2798 92.4675L72.1443 80.951L73.4989 81.3172C73.9073 81.4275 74.3406 81.4025 74.739 81.252L76.4472 80.5849L77.5976 82.0194C77.8616 82.3505 78.2251 82.5912 78.6335 82.7016L79.9882 83.0677L73.2798 92.4675ZM81.8807 79.406L80.297 78.9797L78.6435 76.9131C78.0957 76.231 77.1793 75.9852 76.3674 76.3012L73.9072 77.2592L72.3184 76.8279L86.5673 23.2686L96.1295 25.8517L81.8807 79.406ZM97.8521 19.361L97.1598 21.9642L87.5977 19.376L88.2849 16.7829C88.5788 15.6894 89.1465 15.1528 89.3756 15.0323L97.7773 17.2994C97.9217 17.5151 98.1459 18.2675 97.8521 19.361ZM29.6675 6.04405V2.01135C29.6675 0.897824 30.564 0 31.6646 0C32.7703 0 33.6617 0.902845 33.6617 2.01135V6.04405C33.6617 7.15757 32.7653 8.0554 31.6646 8.0554C30.564 8.0554 29.6675 7.15756 29.6675 6.04405ZM48.4285 15.1127C47.6466 14.3252 47.6466 13.0511 48.4285 12.2636L51.2574 9.41457C52.0393 8.62709 53.3043 8.62709 54.0862 9.41457C54.8681 10.2021 54.8681 11.4761 54.0862 12.2636L51.2574 15.1127C50.8689 15.5039 50.3559 15.7046 49.8429 15.7046C49.33 15.6996 48.817 15.5039 48.4285 15.1127ZM55.3312 32.0314C55.3312 30.9179 56.2277 30.0201 57.3283 30.0201H61.3324C62.438 30.0201 63.3295 30.9229 63.3295 32.0314C63.3295 33.145 62.4331 34.0428 61.3324 34.0428H57.3283C56.2227 34.0478 55.3312 33.1449 55.3312 32.0314ZM53.9865 51.7687C54.7684 52.5561 54.7684 53.8302 53.9865 54.6177C53.5981 55.009 53.0851 55.2096 52.5721 55.2096C52.0591 55.2096 51.5511 55.014 51.1577 54.6177L48.3238 51.7636C47.5419 50.9762 47.5419 49.7021 48.3238 48.9146C49.1057 48.1271 50.3708 48.1271 51.1527 48.9146L53.9865 51.7687ZM9.24839 12.2582C8.46649 11.4708 8.46649 10.1967 9.24839 9.40918C10.0303 8.62169 11.2953 8.62169 12.0773 9.40918L14.9061 12.2582C15.688 13.0457 15.688 14.3198 14.9061 15.1073C14.5177 15.4985 14.0047 15.6992 13.4917 15.6992C12.9787 15.6992 12.4707 15.5036 12.0773 15.1073L9.24839 12.2582ZM0 32.0301C0 30.9166 0.896446 30.0188 1.99709 30.0188H6.00121C7.10684 30.0188 7.9983 30.9217 7.9983 32.0301C7.9983 33.1437 7.10184 34.0415 6.00121 34.0415H1.99709C0.896446 34.0465 0 33.1437 0 32.0301ZM9.34299 51.7674L12.1719 48.9133C12.9538 48.1258 14.2188 48.1258 15.0007 48.9083C15.7826 49.6958 15.7826 50.9698 15.0057 51.7573L12.1768 54.6114C11.7884 55.0077 11.2754 55.2033 10.7624 55.2033C10.2494 55.2033 9.74145 55.0077 9.34797 54.6164C8.56108 53.829 8.56108 52.5549 9.34299 51.7674Z" fill="#3390FF"/>
</svg>
