<svg width="33" height="27" viewBox="0 0 33 27" fill="none" xmlns="http://www.w3.org/2000/svg">
<path d="M20.8046 7.26592H21.8046L24.6546 4.41592L24.7946 3.20592C23.1619 1.76488 21.1889 0.763836 19.0617 0.297356C16.9346 -0.169124 14.7237 -0.0856401 12.6378 0.539922C10.552 1.16548 8.66001 2.31247 7.14067 3.87254C5.62133 5.4326 4.52477 7.35424 3.95459 9.45592C4.27209 9.32579 4.6238 9.30468 4.95459 9.39592L10.6546 8.45592C10.6546 8.45592 10.9446 7.97592 11.0946 8.00592C12.3159 6.66459 14.0038 5.84082 15.8126 5.70325C17.6214 5.56568 19.4145 6.12472 20.8246 7.26592H20.8046Z" fill="#EA4335"/>
<path d="M28.7145 9.45582C28.0594 7.04345 26.7144 4.87476 24.8445 3.21582L20.8445 7.21582C21.6782 7.89698 22.3462 8.75856 22.7984 9.73556C23.2505 10.7126 23.4748 11.7795 23.4545 12.8558V13.5658C23.922 13.5658 24.3849 13.6579 24.8169 13.8368C25.2488 14.0157 25.6412 14.2779 25.9718 14.6085C26.3024 14.9391 26.5646 15.3315 26.7435 15.7635C26.9224 16.1954 27.0145 16.6583 27.0145 17.1258C27.0145 17.5933 26.9224 18.0563 26.7435 18.4882C26.5646 18.9201 26.3024 19.3125 25.9718 19.6431C25.6412 19.9737 25.2488 20.2359 24.8169 20.4148C24.3849 20.5937 23.922 20.6858 23.4545 20.6858H16.3345L15.6245 21.4058V25.6758L16.3345 26.3858H23.4545C25.4427 26.4013 27.3832 25.7764 28.9887 24.6036C30.5943 23.4308 31.7797 21.7723 32.3696 19.8736C32.9596 17.9748 32.9227 15.9366 32.2644 14.0604C31.6061 12.1842 30.3615 10.5698 28.7145 9.45582Z" fill="#4285F4"/>
<path d="M9.20475 26.3452H16.3247V20.6452H9.20475C8.69748 20.6451 8.19616 20.536 7.73475 20.3252L6.73475 20.6352L3.86475 23.4852L3.61475 24.4852C5.22418 25.7005 7.18802 26.3539 9.20475 26.3452Z" fill="#34A853"/>
<path d="M9.20469 7.85553C7.27551 7.86705 5.3981 8.48083 3.83468 9.61113C2.27126 10.7414 1.09991 12.3318 0.484221 14.1601C-0.131464 15.9885 -0.160733 17.9635 0.400502 19.8092C0.961737 21.655 2.08545 23.2794 3.61469 24.4555L7.74469 20.3255C7.21985 20.0884 6.76038 19.7275 6.40569 19.2738C6.051 18.82 5.81169 18.287 5.70828 17.7205C5.60488 17.1539 5.64047 16.5707 5.81201 16.0209C5.98354 15.4712 6.2859 14.9712 6.69313 14.564C7.10036 14.1567 7.60032 13.8544 8.1501 13.6828C8.69987 13.5113 9.28306 13.4757 9.84962 13.5791C10.4162 13.6825 10.9492 13.9218 11.4029 14.2765C11.8567 14.6312 12.2176 15.0907 12.4547 15.6155L16.5847 11.4855C15.7178 10.3523 14.6006 9.43493 13.3203 8.8052C12.04 8.17547 10.6314 7.85044 9.20469 7.85553Z" fill="#FBBC05"/>
</svg>
