<svg width="39" height="39" viewBox="0 0 39 39" fill="none" xmlns="http://www.w3.org/2000/svg">
<path d="M28.5824 28.0651C28.8216 26.0746 28.75 25.7824 30.2326 26.105L30.6089 26.1379C31.749 26.1897 33.2405 25.9545 34.1168 25.5474C36.0031 24.6721 37.1213 23.2111 35.2618 23.5947C31.0193 24.4701 30.7277 23.0335 30.7277 23.0335C35.2076 16.3867 37.0802 7.949 35.4635 5.88353C31.0547 0.25016 23.4232 2.91404 23.2955 2.9829L23.2547 2.99052C22.4165 2.81654 21.4783 2.71264 20.4244 2.69558C18.5046 2.66389 17.0479 3.19893 15.9428 4.03682C15.9428 4.03682 2.32842 -1.57218 2.96187 11.0906C3.09654 13.7844 6.82287 31.4736 11.2676 26.1306C12.8922 24.177 14.462 22.5249 14.462 22.5249C15.2414 23.0426 16.1749 23.3071 17.1536 23.212L17.2295 23.1474C17.2057 23.39 17.2161 23.6273 17.2596 23.9082C16.1149 25.1876 16.4513 25.4122 14.1622 25.8832C11.8459 26.3604 13.2067 27.2101 14.0948 27.4322C15.1719 27.7016 17.6633 28.0831 19.347 25.7266L19.28 25.9953C19.7291 26.3549 19.699 28.5782 19.7623 30.1665C19.826 31.7552 19.9324 33.2375 20.2562 34.1116C20.5801 34.9854 20.9622 37.2365 23.9707 36.5918C26.485 36.0543 28.4072 35.2789 28.5824 28.0651Z" fill="black"/>
<path d="M35.2617 23.5954C31.0189 24.4707 30.7273 23.0341 30.7273 23.0341C35.2072 16.3871 37.0798 7.94906 35.4637 5.88419C31.0549 0.251131 23.4228 2.91501 23.2954 2.98418L23.2543 2.99149C22.4161 2.81751 21.4779 2.71392 20.4234 2.69686C18.5036 2.66548 17.0475 3.2002 15.9424 4.03809C15.9424 4.03809 2.32773 -1.57059 2.96087 11.0919C3.09554 13.786 6.82187 31.4752 11.2667 26.1322C12.8912 24.1785 14.4607 22.5265 14.4607 22.5265C15.2404 23.0442 16.1736 23.3087 17.152 23.2136L17.2282 23.149C17.2044 23.3915 17.2154 23.6289 17.2586 23.9098C16.1136 25.1892 16.45 25.4138 14.1609 25.8848C11.8446 26.3619 13.2054 27.2117 14.0938 27.4338C15.1706 27.7032 17.6623 28.0846 19.3457 25.7282L19.2784 25.9969C19.7272 26.3565 20.0423 28.3345 19.9896 30.1276C19.9365 31.9207 19.9012 33.1519 20.2549 34.1135C20.6084 35.0751 20.9606 37.2384 23.9697 36.5936C26.484 36.055 27.7868 34.6586 27.9684 32.3295C28.097 30.6736 28.388 30.9185 28.4065 29.4381L28.6402 28.7373C28.9096 26.4926 28.6829 25.7687 30.2322 26.1054L30.6085 26.1383C31.7487 26.1901 33.2407 25.9549 34.1167 25.5478C36.0027 24.6731 37.1212 23.2118 35.2617 23.5954Z" fill="#336791"/>
<path d="M23.143 37.2653C20.6348 37.2653 19.8401 35.2791 19.515 34.4668C19.0391 33.2764 18.9364 28.6567 19.0425 24.8682C19.0441 24.8043 19.0583 24.7414 19.0843 24.683C19.1103 24.6246 19.1476 24.572 19.194 24.5281C19.2405 24.4842 19.2951 24.4499 19.3549 24.4272C19.4146 24.4045 19.4783 24.3939 19.5422 24.3959C19.606 24.3977 19.6688 24.412 19.7271 24.438C19.7854 24.4641 19.838 24.5013 19.8818 24.5477C19.9257 24.5941 19.96 24.6487 19.9827 24.7083C20.0055 24.768 20.0163 24.8315 20.0144 24.8953C19.8923 29.2648 20.0656 33.2246 20.4178 34.1057C20.9675 35.4796 21.8011 36.6812 24.1579 36.1764C26.3952 35.6965 27.2331 34.8482 27.6063 32.6847C27.8927 31.0244 28.4591 26.3012 28.5289 25.3691C28.5336 25.3054 28.5508 25.2433 28.5795 25.1862C28.6082 25.1292 28.6479 25.0784 28.6963 25.0367C28.7447 24.9951 28.8009 24.9634 28.8616 24.9434C28.9222 24.9235 28.9863 24.9158 29.0499 24.9206C29.1785 24.9304 29.2979 24.9907 29.3819 25.0884C29.466 25.186 29.5079 25.3131 29.4984 25.4416C29.4256 26.4121 28.8619 31.1262 28.5646 32.8501C28.124 35.4055 26.9848 36.5646 24.3617 37.127C23.916 37.2224 23.511 37.265 23.143 37.2653ZM9.54293 27.5638C9.3237 27.563 9.10601 27.527 8.89821 27.4571C7.26905 26.9136 5.71727 24.2604 4.28585 19.5703C3.19629 16.0003 2.50587 12.2739 2.44523 11.0628C2.26577 7.47238 3.1902 4.9322 5.19352 3.51327C9.15659 0.70527 15.8235 3.37921 16.1053 3.49438C16.2247 3.54315 16.3198 3.63735 16.3698 3.75626C16.4197 3.87516 16.4204 4.00904 16.3716 4.12843C16.3228 4.24783 16.2286 4.34296 16.1097 4.3929C15.9908 4.44284 15.8569 4.4435 15.7375 4.39473C15.6732 4.36853 9.28029 1.80733 5.75353 4.3079C4.04058 5.52238 3.25418 7.7789 3.41597 11.0144C3.46685 12.0348 4.11188 15.6715 5.21545 19.2863C6.49331 23.4733 7.94759 26.1153 9.20564 26.5348C9.40308 26.6007 10.0039 26.8008 10.8628 25.768C11.8645 24.565 12.9037 23.3938 13.9789 22.2561C14.0688 22.1664 14.1904 22.1154 14.3174 22.1142C14.4445 22.1129 14.567 22.1614 14.6587 22.2493C14.7505 22.3372 14.8042 22.4576 14.8083 22.5846C14.8124 22.7116 14.7667 22.8352 14.6809 22.9289C14.6662 22.9441 13.2041 24.4727 11.6105 26.3898C10.8558 27.2975 10.1325 27.5638 9.54293 27.5638ZM30.6971 23.4673C30.6089 23.4671 30.5225 23.4431 30.447 23.3976C30.3715 23.3522 30.3097 23.287 30.2683 23.2092C30.227 23.1314 30.2075 23.0438 30.2121 22.9558C30.2167 22.8677 30.2451 22.7826 30.2943 22.7095C34.8229 15.9896 36.4124 7.87 35.0511 6.13023C33.3375 3.94075 30.918 2.79725 27.8592 2.73114C25.5945 2.68239 23.7944 3.26068 23.5001 3.36154L23.426 3.3917C23.1302 3.48463 22.9032 3.32254 22.8176 3.13302C22.7687 3.02444 22.7613 2.90175 22.7968 2.78809C22.8322 2.67443 22.908 2.57766 23.0098 2.51603C23.0238 2.5078 23.0683 2.48891 23.1405 2.4624C23.6405 2.27929 25.468 1.73085 27.7316 1.75675C31.116 1.7927 33.9118 3.09768 35.8161 5.53122C36.7171 6.68263 36.7192 9.33524 35.8219 12.8093C34.9073 16.3513 33.1861 20.1577 31.1002 23.2531C31.0069 23.3923 30.8534 23.4673 30.6971 23.4673ZM30.9286 26.5781C30.1553 26.5781 29.4622 26.469 29.0472 26.2204C28.6206 25.9648 28.5393 25.6174 28.5286 25.4331C28.4122 23.3886 29.5402 23.0328 30.1154 22.8704C30.0353 22.7491 29.9213 22.6065 29.8034 22.4593C29.468 22.0401 29.0085 21.4661 28.6545 20.6075C28.599 20.4734 28.4253 20.1617 28.2242 19.8006C27.1338 17.8452 24.8647 13.7761 26.3224 11.6923C26.997 10.728 28.3403 10.3483 30.3196 10.5601C29.7373 8.78619 26.9647 3.23722 20.3855 3.12936C18.4069 3.09646 16.7841 3.70492 15.5648 4.93616C12.8348 7.69328 12.9335 12.6819 12.935 12.7319C12.9367 12.7957 12.9258 12.8592 12.9029 12.9188C12.8801 12.9784 12.8457 13.033 12.8017 13.0793C12.7578 13.1256 12.7052 13.1628 12.6468 13.1888C12.5885 13.2148 12.5257 13.229 12.4618 13.2307C12.398 13.2323 12.3345 13.2214 12.2749 13.1986C12.2153 13.1757 12.1608 13.1413 12.1145 13.0974C12.0681 13.0534 12.0309 13.0008 12.005 12.9425C11.979 12.8842 11.9647 12.8213 11.9631 12.7575C11.957 12.536 11.8552 7.30084 14.874 4.25183C16.2869 2.82498 18.1467 2.12054 20.4017 2.15741C24.6106 2.22657 27.3199 4.3664 28.8513 6.14912C30.5207 8.09211 31.3391 10.2353 31.4064 10.9507C31.4567 11.4827 31.0749 11.589 30.9978 11.6049L30.8223 11.6088C28.8799 11.2977 27.6337 11.5138 27.1185 12.2499C26.0098 13.8346 28.1563 17.6837 29.0728 19.3275C29.3068 19.7467 29.4756 20.0499 29.553 20.237C29.854 20.967 30.2468 21.4575 30.5621 21.8518C30.8397 22.1985 31.0801 22.4993 31.166 22.8521C31.2059 22.9222 31.7723 23.7601 35.1333 23.0663C35.9758 22.8926 36.481 23.041 36.6354 23.5081C36.9392 24.4267 35.2348 25.4983 34.2912 25.9364C33.4457 26.3295 32.0962 26.5781 30.9286 26.5781ZM29.4978 25.353C29.6045 25.4605 30.138 25.6461 31.2428 25.5985C32.2251 25.5565 33.261 25.3429 33.8826 25.0544C34.6775 24.6851 35.2083 24.2722 35.4831 23.9904L35.3308 24.0184C33.1818 24.4621 31.6617 24.403 30.8129 23.8426C30.7558 23.8049 30.7009 23.7641 30.6483 23.7205C30.5563 23.7567 30.4713 23.7805 30.4107 23.7975C29.9293 23.9325 29.4314 24.0724 29.4978 25.353ZM15.6157 28.0693C15.0818 28.0693 14.52 27.9964 13.9463 27.8529C13.3518 27.7042 12.3497 27.2567 12.3649 26.5214C12.3823 25.6967 13.5819 25.4492 14.0334 25.3563C15.6647 25.0202 15.771 24.8856 16.2808 24.2381C16.4295 24.0495 16.6144 23.8146 16.8667 23.5331C17.2412 23.1138 17.6504 22.9015 18.083 22.9015C18.3844 22.9015 18.6315 23.0035 18.7948 23.0715C19.3152 23.2872 19.7494 23.8088 19.9279 24.4325C20.0891 24.9953 20.012 25.537 19.7116 25.9578C18.7253 27.3389 17.3088 28.0693 15.6157 28.0693ZM13.4152 26.5632C13.5618 26.6765 13.8555 26.828 14.1824 26.9096C14.6794 27.0339 15.1614 27.097 15.616 27.097C17.0011 27.097 18.1132 26.5236 18.9209 25.3926C19.0894 25.1567 19.0388 24.8572 18.9937 24.6997C18.8993 24.3697 18.6647 24.0696 18.423 23.9694C18.292 23.9151 18.1833 23.8737 18.0833 23.8737C18.0297 23.8737 17.8664 23.8737 17.5916 24.1811C17.4019 24.3944 17.2196 24.6141 17.0449 24.8399C16.41 25.6461 16.119 25.9197 14.2299 26.3088C13.7689 26.4032 13.5325 26.4995 13.4152 26.5632ZM17.1534 24.3207C17.0374 24.3205 16.9252 24.2788 16.8372 24.2032C16.7492 24.1275 16.6911 24.0229 16.6735 23.9081C16.6614 23.8274 16.6533 23.7462 16.6492 23.6647C15.4109 23.6415 14.2162 23.1102 13.3092 22.1638C12.1623 20.9673 11.6404 19.3095 11.8774 17.6157C12.1349 15.7763 12.0386 14.1527 11.9868 13.2803C11.9725 13.0378 11.9621 12.8626 11.9628 12.7413C11.9637 12.5875 11.9667 12.1795 13.3305 11.4882C13.8156 11.2423 14.7881 10.8133 15.8506 10.7033C17.6108 10.5214 18.771 11.3053 19.1183 12.9111C20.0559 17.2461 19.1927 19.1635 18.5623 20.5639C18.445 20.8247 18.3341 21.0709 18.2454 21.3095L18.1671 21.5197C17.8341 22.4127 17.5462 23.1842 17.6345 23.7604C17.6442 23.8235 17.6414 23.8879 17.6262 23.9499C17.611 24.0119 17.5837 24.0703 17.546 24.1218C17.5082 24.1732 17.4606 24.2167 17.406 24.2498C17.3514 24.2829 17.2909 24.3049 17.2278 24.3146L17.1534 24.3207ZM12.9381 12.876L12.957 13.2231C13.0106 14.1292 13.1105 15.8153 12.84 17.7507C12.6446 19.1477 13.0712 20.5112 14.0109 21.4911C14.7534 22.2656 15.7305 22.693 16.7348 22.693H16.7555C16.8679 22.2193 17.0547 21.719 17.2558 21.18L17.3335 20.971C17.4337 20.7016 17.551 20.4408 17.6753 20.1647C18.282 18.8168 19.0373 17.1389 18.1674 13.1167C17.9953 12.32 17.5775 11.859 16.8911 11.7069C15.481 11.3955 13.3796 12.4562 12.9381 12.876ZM15.8722 12.6697C15.8478 12.8416 16.1869 13.3004 16.6294 13.3617C17.0708 13.4235 17.4487 13.0646 17.4727 12.8928C17.4968 12.7209 17.158 12.5314 16.7156 12.4699C16.2735 12.4083 15.8957 12.4979 15.8722 12.6697ZM16.7308 13.5308L16.6068 13.5223C16.3326 13.4842 16.0553 13.3114 15.8655 13.0597C15.7988 12.9714 15.69 12.8001 15.7116 12.6472C15.7424 12.4229 16.016 12.2886 16.4429 12.2886C16.5383 12.2886 16.6376 12.2956 16.7375 12.3096C16.9709 12.3419 17.1875 12.4092 17.3475 12.4985C17.6248 12.6533 17.6452 12.826 17.6327 12.9153C17.5986 13.163 17.2046 13.5308 16.7308 13.5308ZM16.0334 12.6984C16.0471 12.8044 16.3097 13.1542 16.6516 13.2014L16.7311 13.2069C17.0468 13.2069 17.2826 12.9586 17.3103 12.8772C17.2811 12.8218 17.0782 12.6841 16.6933 12.6304C16.6105 12.6185 16.5269 12.6125 16.4432 12.6125C16.1958 12.6125 16.0645 12.6682 16.0334 12.6984ZM29.3193 12.319C29.3434 12.4909 29.0045 12.9497 28.5624 13.0113C28.1206 13.0728 27.7425 12.7142 27.7181 12.5424C27.695 12.3705 28.0338 12.1807 28.4756 12.1195C28.9174 12.0576 29.2949 12.1475 29.3193 12.319ZM28.4604 13.099C28.035 13.099 27.6679 12.7682 27.6377 12.5533C27.6027 12.2956 28.0271 12.0997 28.464 12.039C28.5603 12.0256 28.6557 12.0189 28.7474 12.0189C29.1246 12.0189 29.3744 12.1295 29.3994 12.3081C29.4156 12.4236 29.3269 12.6018 29.1743 12.7627C29.0734 12.8684 28.8616 13.0515 28.5731 13.0914L28.4604 13.099ZM28.7477 12.181C28.6636 12.181 28.5758 12.1874 28.4869 12.1996C28.0478 12.2608 27.7858 12.437 27.7986 12.5314C27.8132 12.6353 28.0935 12.9373 28.4607 12.9373L28.5512 12.9309C28.791 12.8976 28.971 12.741 29.0569 12.6508C29.1919 12.5092 29.2455 12.3757 29.2391 12.3303C29.2306 12.27 29.0685 12.181 28.7477 12.181ZM29.9558 22.1879C29.8677 22.1879 29.7813 22.164 29.7057 22.1187C29.6302 22.0734 29.5684 22.0084 29.5269 21.9307C29.4855 21.853 29.466 21.7655 29.4704 21.6775C29.4749 21.5895 29.5032 21.5044 29.5524 21.4313C30.5877 19.885 30.3982 18.3083 30.2151 16.7833C30.1368 16.1337 30.0563 15.4619 30.077 14.8172C30.0984 14.1539 30.1828 13.6067 30.2641 13.0774C30.3607 12.4504 30.4521 11.8581 30.4143 11.1548C30.4109 11.0911 30.42 11.0273 30.4412 10.9671C30.4625 10.9069 30.4953 10.8515 30.538 10.804C30.5806 10.7564 30.6322 10.7178 30.6897 10.6902C30.7473 10.6627 30.8098 10.6467 30.8735 10.6433C30.9372 10.6398 31.001 10.649 31.0612 10.6702C31.1214 10.6914 31.1769 10.7243 31.2244 10.7669C31.2719 10.8095 31.3105 10.8611 31.3381 10.9187C31.3657 10.9762 31.3816 11.0387 31.3851 11.1024C31.4283 11.9062 31.325 12.5765 31.2251 13.2252C31.148 13.7258 31.0682 14.2435 31.049 14.8483C31.0304 15.4192 31.1032 16.0256 31.1803 16.6672C31.3753 18.2888 31.5962 20.1267 30.3604 21.9722C30.3159 22.0386 30.2557 22.0931 30.1851 22.1307C30.1145 22.1683 30.0358 22.188 29.9558 22.1879Z" fill="white"/>
</svg>
