<?xml version="1.0" encoding="UTF-8"?>
<svg version="1.1" viewBox="0 0 900 900" width="225" height="225" xmlns="http://www.w3.org/2000/svg">
<path transform="translate(0)" d="m0 0h900v900h-900z" fill="#5E56FD"/>
<path transform="translate(439,202)" d="m0 0h42l26 2 36 6 23 6 24 8 6 4 1 36v90l-4 1-16-8-20-8-22-7-26-6-19-3-23-2h-14l-16 3-9 4-7 5-4 7-1 5v8l3 9 8 9 13 8 25 10 43 15 24 10 20 10 16 10 13 10 15 15 9 13 8 15 6 18 3 14 2 18v15l-2 18-5 21-5 13-8 16-9 13-9 10-4 5-11 9-11 8-14 8-16 8-24 8-24 5-22 3-13 1h-34l-36-4-30-6-29-8-34-12-1-2v-124l1-5 5 2 16 8 11 5 29 11 35 10 29 5 8 1h32l14-4 10-5 6-7 3-5 1-4v-11l-4-9-6-8-8-7-15-8-28-11-38-14-27-12-17-9-16-11-12-11-5-5-9-10-9-15-6-15-4-16-2-12v-31l4-22 5-16 5-12 7-13 12-16 17-17 15-11 18-10 19-8 21-6 20-4z" fill="#FEFEFD"/>
</svg>
