<svg width="380" height="59" viewBox="0 0 380 59" fill="none" xmlns="http://www.w3.org/2000/svg">
<g clip-path="url(#clip0_211_4496)">
<path d="M77.5802 0L78.0492 0.157418L77.8927 1.57418L78.6752 1.10193L79.4572 0.157418L79.7696 0.314837V2.99095L79.6137 3.93546L80.7081 5.19481L82.7416 9.44511L84.7751 12.9083L85.8701 14.7973L85.7136 15.8992L84.9316 17.316L84.3056 17.7883L83.2111 18.1031H82.2726L81.4901 17.316L81.0211 16.3715L79.4572 15.2696L77.8927 14.3251L76.3287 13.8528L74.9212 12.9083L74.4517 12.436V12.1212L74.1393 12.2786L73.0443 15.427L71.6363 19.3625L70.5413 22.8257L70.3853 23.4553V26.4463L69.7593 28.965L69.1338 30.5392L68.8208 32.743L71.3238 34.0024L76.1722 36.3636L76.9542 37.1507L77.2672 37.623V39.9842L73.5133 47.5404L72.7313 48.0126L71.4798 49.1146L70.3853 50.2165L68.8208 51.3184H68.3518L67.8823 49.9016V47.383L68.6649 46.5958L68.9773 46.4384L70.6978 46.5958L71.0108 45.3365L72.4183 43.9197L73.6698 41.7159L74.1393 40.4565L73.9828 39.512L73.5133 39.0398L72.2623 38.7249L66.0054 38.2526L64.7544 37.9378L65.3799 42.9752L65.5364 44.8642V47.8552L66.4749 52.1055L67.1004 53.6795L68.6649 55.4115L69.9158 56.513L71.3238 58.5596L71.1673 58.8746H66.6314L66.3184 57.9301V56.1986L64.4414 55.254L63.9724 54.467L63.3464 50.2165L62.7209 47.5404L59.9055 38.8823L59.1235 36.8359V36.5211L55.5261 36.3636L49.8953 35.734L46.9234 35.1043L42.3875 33.6875H41.9182L40.1977 38.7249L38.6336 41.5584L38.008 42.8178L37.6952 44.0772V45.6514L38.3208 47.6978L39.4157 49.5868L41.2926 52.2629L41.9182 52.8924V53.2075L42.3875 53.365L43.1696 54.152L44.5772 55.254L45.6721 56.041L46.9234 58.4021V58.7171H42.7003L41.9182 58.2446L41.6054 56.041L40.1977 55.726L39.2593 54.939L37.5388 52.2629L35.9746 49.4294L34.4105 47.0681L32.69 44.7068L32.2208 43.9197L32.3772 42.6604L33.3156 40.4565L33.7849 38.4101L33.9413 36.6785L31.5951 38.0952L28.9361 39.0398L24.5566 39.9842L23.3053 40.614L22.6797 41.5584L22.3668 43.4475L22.2104 50.8461L20.6463 52.8924L19.7078 54.152L18.6129 55.0965L17.0489 55.8835L16.2668 55.726L16.4232 52.2629L16.736 51.4758L18.3001 51.161H19.0822L18.9258 50.059L19.395 49.1146L19.5514 48.4849V45.6514L19.2386 40.614L19.0822 39.1972V36.8359L19.8643 36.0488L21.1155 35.734L23.7745 35.1043L25.3387 34.4746L26.2771 33.6875L26.59 32.1133L26.4336 28.8075V25.0295L27.0592 22.8257L27.9976 21.2515L28.3105 20.6218H27.2156L26.1207 20.4644L25.0258 21.8812L23.6181 23.2979L21.4284 24.7147L19.0822 25.6592L16.4232 26.2889L15.1719 26.4463H12.2001L10.3232 25.974L10.4796 25.6592L13.295 25.3443L15.4847 24.7147L16.8924 23.9276H17.2053V23.6127L14.7027 24.5573L12.2001 25.0295L8.44621 25.1869L5.6308 24.8721L3.12823 24.085L1.87694 23.4553L2.50258 23.2979L3.75388 23.4553H6.25644L3.28464 22.8257L1.09488 22.0386L0 21.4089V21.0941L2.50258 21.5663H5.47441L7.66417 21.0941L10.0103 20.307L14.5463 18.2606L17.5181 17.316L20.1771 17.0012H22.2104L24.2438 17.316L26.1207 17.9457L27.5284 18.5754L30.1874 18.8902L33.1592 17.4734L35.0362 16.8438L36.7567 16.529H39.1028L42.5439 17.1586L45.6721 17.7883L46.767 17.9457H50.9901L52.7106 17.4734L53.8056 16.3715L55.3696 15.5844L56.7775 15.1122L57.403 14.6399H55.995L56.9335 13.538L58.498 12.1212L59.28 11.649H59.593V11.3341L58.0285 11.1767L57.09 11.0193V10.7044L59.28 9.60251L60.844 8.18578L61.626 7.55611H61.939V7.24125H60.6875L60.375 7.08385L60.531 6.61158L62.7209 5.35225L65.6929 4.2503L67.1004 3.77804L64.1289 4.2503L64.7544 3.62062L66.9439 2.51869L69.1338 1.88902L72.2623 1.41676H73.6698L75.8597 1.7316L77.5802 0Z" fill="#6D6D6E"/>
<path d="M163.553 14.6873H165.274L165.43 14.8447V31.0588L165.586 34.522L166.994 35.1516V36.2535L165.43 36.5684L163.397 36.7258H161.833L161.52 35.7813V35.309L160.425 35.9387L158.861 36.7258L158.235 36.8832H155.732L154.012 36.2535L152.448 34.8368L151.353 32.6329L151.04 31.0588V28.2252L151.353 26.651L151.979 25.2342L152.917 23.8175L154.168 22.7156L155.732 21.9285L157.297 21.6136H159.799L161.207 21.771L161.05 17.3633L159.486 16.8911L159.33 16.5763V15.4743L159.486 15.1595L163.553 14.6873ZM158.548 23.5026L157.453 23.9749L156.671 24.6046L155.732 26.4936L155.42 28.0678V30.5865L155.889 32.4755L156.671 33.7349L157.766 34.3645H159.643L161.207 33.5774V23.9749L160.738 23.5026H158.548Z" fill="#6D6D6E"/>
<path d="M109.122 15.3169L111.781 15.4743L113.502 15.9466L114.753 16.5762V18.4652L114.44 21.771H112.563L111.625 18.6227L110.686 18.3078H108.496L106.776 18.9375L105.994 19.5672L105.055 20.9839L104.43 22.7155L104.117 24.6045V27.5955L104.586 29.9568L105.681 32.1607L106.776 33.1052L108.184 33.7349L108.966 33.8923H110.373L112.563 33.42L114.127 32.7903H114.753L115.222 34.0497L115.066 34.8368L113.502 35.7813L111.625 36.5684L109.748 36.8832H106.776L104.742 36.4109L102.709 35.309L100.988 33.5774L100.05 31.8458L99.2679 29.6419L98.9554 27.2807V25.8639L99.2679 23.3452L99.8939 21.4562L100.988 19.4098L102.709 17.5208L104.742 16.2614L106.463 15.6317L109.122 15.3169Z" fill="#6D6D6E"/>
<path d="M199.841 21.6138H202.5L204.533 22.086L206.097 23.0306L207.349 24.2899L208.287 26.1789L208.6 27.2808L208.756 29.6421L208.443 31.8459L207.661 33.735L206.254 35.3091L204.846 36.2537L202.343 36.8833H199.684L197.807 36.4111L196.243 35.4666L194.835 34.0498L193.897 32.1608L193.584 30.2718V28.0679L194.053 26.1789L194.992 24.2899L196.243 23.0306L198.433 21.9286L199.841 21.6138ZM200.466 23.5028L199.528 23.975L198.902 24.7622L198.276 26.4938L198.12 27.7531V30.1144L198.589 32.9479L199.528 34.5221L200.623 35.1517H202.187L203.282 34.3647L203.907 33.1053L204.22 31.3737V28.0679L203.751 25.5492L202.813 24.1324L202.187 23.6602L201.718 23.5028H200.466Z" fill="#6D6D6E"/>
<path d="M141.499 21.6138H144.627L146.192 22.086L147.13 22.7157L148.069 23.8176L148.381 24.6047L148.538 25.5492L148.694 34.6795L150.258 34.9943L150.415 35.1517V36.0963L149.789 36.5685L148.225 36.8833H146.817L145.566 36.5685L144.94 35.9389L144.784 35.4666L144.158 35.624L142.751 36.5685L141.343 36.8833H139.309L137.902 36.4111L136.65 35.3091L136.025 33.8924L135.868 32.7905L136.181 31.3737L136.807 30.4292L137.902 29.4847L139.153 28.855L140.561 28.5402L144.315 28.2254V26.3363L144.002 25.077L143.376 24.2899L142.594 23.975H140.874L140.248 25.2344L139.779 26.3363H137.902L137.432 25.5492L136.807 23.6602L137.432 23.0306L139.466 22.086L141.499 21.6138ZM143.689 29.7995L141.812 30.1144L141.03 30.5866L140.561 31.2163L140.404 31.6885V33.2627L141.03 34.2072L141.656 34.5221H142.907L144.158 33.8924L144.471 33.4201L144.315 29.9569L143.689 29.7995Z" fill="#6D6D6E"/>
<path d="M174.033 21.6138H175.753L177.943 22.086L179.664 23.188L180.759 24.7622L181.228 26.3363V28.6976L180.602 29.4847H171.999L172.469 31.6885L173.251 32.9479L174.346 33.8924L175.284 34.2072H177.943L179.664 33.735L180.289 33.5775L180.602 33.735L180.915 34.5221L180.759 35.1517L178.256 36.4111L176.066 36.8833H173.564L171.687 36.4111L169.966 35.4666L168.871 34.3647L167.933 32.4756L167.463 30.4292V28.2254L168.089 25.8641L169.028 24.2899L169.81 23.3454L171.53 22.2434L172.938 21.7712L174.033 21.6138ZM174.502 23.3454L173.407 23.8176L172.625 24.7622L172.156 25.8641L171.999 27.5957L172.156 27.7531H176.848L177.005 27.5957V25.2344L176.535 24.2899L175.597 23.5028L174.502 23.3454Z" fill="#6D6D6E"/>
<path d="M187.171 21.6138L187.797 21.7712L187.953 22.8731L187.797 23.975L188.266 23.8176L189.204 22.7157L190.612 21.7712L191.081 21.6138H192.646L193.271 21.9286L193.428 22.8731L193.115 25.077L192.802 26.0215L192.02 25.7066L191.081 25.3918H189.674L188.266 25.8641V34.5221L190.143 34.9943V36.5685H182.323V35.1517L183.418 34.6795H183.73V29.0124L183.574 24.4473L182.166 23.975L182.01 22.7157L182.166 22.4008L184.668 21.9286L187.171 21.6138Z" fill="#6D6D6E"/>
<path d="M120.853 21.6138L121.635 21.7712V23.975L122.261 23.6602L123.356 22.4008L124.763 21.6138H126.171L127.109 21.9286L127.266 23.0306L126.796 25.2344L126.483 26.0215L124.763 25.3918H123.356L121.948 26.0215V34.3647L123.199 34.8369L123.981 35.3091V36.4111L123.825 36.5685H116.161L116.004 36.4111V35.1517L116.317 34.8369L117.568 34.6795V25.7066L117.412 24.4473L116.004 23.975L115.848 23.6602V22.5583L116.63 22.2434L120.853 21.6138Z" fill="#6D6D6E"/>
<path d="M132.271 21.6138H133.522L133.678 22.4008V31.0589L133.835 34.5221L135.086 34.9943L135.243 35.1517V36.5685H127.891L127.735 36.0963L127.891 34.9943L129.299 34.6795V24.2899L127.735 24.1324L127.578 22.7157L128.048 22.2434L132.271 21.6138Z" fill="#6D6D6E"/>
<path d="M130.707 14.6873H132.114L133.053 15.1595L133.678 15.7892L133.991 16.7337L133.835 17.993L132.896 19.0949L132.114 19.4098H130.863L129.925 18.9375L128.986 17.8356V16.4189L129.612 15.4743L130.394 14.8447L130.707 14.6873Z" fill="#6D6D6E"/>
<path d="M116.004 35.1516H116.161L116.317 36.2535L123.825 36.4109V36.5684H116.161L116.004 36.4109V35.1516Z" fill="#6D6D6E"/>
<path d="M296.15 22.3354H297.244L297.401 22.6476V24.0524L299.432 22.8037L300.683 22.3354H303.339L305.058 22.9598L306.465 23.8963L307.402 25.301L308.184 27.1741L308.34 27.9545V31.5445L307.715 34.0418L306.933 35.4466L305.527 37.0074L303.964 37.9439L302.402 38.4122L301.308 38.5682H298.495L297.557 38.4122L297.713 41.846L299.12 42.3143L299.589 42.7825V44.0312L299.432 44.1873H291.462L291.306 44.0312V42.6264L292.4 42.1582H292.869V25.301L291.306 24.6767L291.15 24.3646V23.272L291.775 22.9598L296.15 22.3354ZM299.276 24.9889L297.87 25.6132L297.557 25.9254V36.227L298.338 36.5392L300.057 36.6953L301.464 36.227L302.558 35.2905L303.183 33.8857L303.495 32.1688V28.5789L303.026 26.8619L302.089 25.4571L301.151 24.9889H299.276Z" fill="#6D6D6E"/>
<path d="M273.022 15.6238H277.398L279.429 16.092L280.679 16.7164L280.836 16.8725V18.5894L280.523 22.3354L279.742 22.4915L278.492 22.3354L278.179 21.3989L277.554 19.2137L277.398 18.9015L275.835 18.5894H274.429L272.553 19.0576L271.459 19.8381L270.365 21.555L269.74 23.2719L269.428 25.145V28.891L269.897 31.0761L270.522 32.637L271.616 34.0418L272.866 34.8222L273.96 35.1343H276.616L278.96 34.51L280.367 33.8857H280.836L281.305 36.2269L279.117 37.4756L276.929 38.2561L275.366 38.5682H272.241L269.74 37.9439L268.021 37.0074L266.458 35.6026L265.365 34.0418L264.427 32.0127L263.958 29.9836L263.802 28.7349V26.2375L264.271 23.428L265.365 20.9307L266.458 19.3698L267.552 18.1211L269.74 16.7164L271.616 15.936L273.022 15.6238Z" fill="#6D6D6E"/>
<path d="M232.547 22.3354H235.36L237.392 22.8037L239.111 23.7402L240.204 24.6767L241.298 26.3936L241.923 28.2667L242.08 30.764L241.767 32.9492L240.986 34.9783L239.736 36.5392L238.173 37.6318L236.61 38.2561L234.891 38.5682H232.391L230.516 38.1L228.953 37.3196L227.547 36.0709L226.453 34.354L225.827 32.1688L225.671 31.0762V29.6714L226.14 27.4863L226.765 25.9254L228.015 24.3646L229.266 23.4281L230.828 22.6476L232.547 22.3354ZM233.328 24.2085L232.078 24.8328L231.297 26.0815L230.672 28.5789V32.1688L231.141 34.354L231.766 35.6027L232.86 36.5392L233.172 36.6953H234.735L235.829 36.0709L236.61 34.9783L237.079 33.1053V28.4228L236.61 26.3936L235.829 25.145L235.204 24.5207L234.266 24.2085H233.328Z" fill="#6D6D6E"/>
<path d="M357.878 22.3354H361.16L363.036 22.9598L364.442 23.8963L365.536 25.301L366.161 26.8619L366.317 27.7984V29.3592L366.005 30.1397L365.536 30.6079L356.472 30.764L356.628 32.3249L357.253 33.8857L358.035 34.6661L359.129 35.4466L359.598 35.6027H363.192L364.911 34.9783L365.536 35.1344L365.848 35.7587V36.5392L363.661 37.7878L361.629 38.4122L360.692 38.5682H358.035L356.003 38.1L354.128 37.0074L352.878 35.7587L351.784 33.5735L351.471 32.3249V29.0471L351.94 27.1741L352.878 25.301L353.972 24.0524L355.69 22.9598L357.097 22.4915L357.878 22.3354ZM358.66 24.2085L357.722 24.6767L356.941 25.6132L356.316 27.9545L356.472 28.7349H361.473L361.786 27.9545L361.629 25.9254L360.692 24.5207L360.066 24.2085H358.66Z" fill="#6D6D6E"/>
<path d="M328.499 22.3354H331.468L332.875 22.6476L334.438 23.4281L335.532 24.5207L336.469 26.3936L336.782 27.7984V29.6714L336.157 30.6079H326.937L327.405 33.1053L328.343 34.51L329.593 35.4466L331.156 35.7587H332.562L334.438 35.4466L335.375 34.9783H336L336.313 35.7587V36.5392L334.281 37.7878L332.25 38.4122L331.312 38.5682H328.499L326.624 38.1L324.905 37.1635L323.498 35.7587L322.404 33.5735L322.092 32.1688V28.7349L322.717 26.7058L323.655 24.9889L324.749 23.8963L326.624 22.8037L328.499 22.3354ZM329.124 24.2085L328.031 24.8328L327.249 26.0815L326.937 27.4863V28.7349H332.093L332.25 28.5789V26.3936L331.625 24.9889L330.999 24.3646L330.531 24.2085H329.124Z" fill="#6D6D6E"/>
<path d="M247.862 22.3354H251.144L253.488 22.8037L254.738 23.4281L254.582 25.301L254.426 26.8619L253.957 27.3302H252.706L252.081 25.7693L251.612 24.8328L250.675 24.3646H248.644L247.862 24.8328L247.393 25.6132L247.55 26.7058L248.331 27.4863L250.206 28.4228L252.706 29.5153L254.426 30.764L255.363 32.1688L255.52 32.6371V34.8222L254.894 36.227L254.269 37.0074L252.706 37.9439L251.3 38.4122L250.206 38.5682H247.237L244.58 38.1L243.174 37.4757V35.7587L243.486 33.2614H244.893L245.518 33.5735L246.299 35.7587L247.081 36.3831L247.706 36.5392H249.893L250.831 36.0709L251.3 35.2905V34.1979L250.831 33.4175L249.581 32.6371L245.987 31.0762L244.737 30.1397L243.643 28.891L243.174 27.3302L243.33 25.7693L244.111 24.2085L245.518 23.1159L246.925 22.4915L247.862 22.3354Z" fill="#6D6D6E"/>
<path d="M343.033 22.3354H346.315L348.658 22.8037L349.596 23.272L349.752 23.4281L349.596 25.9254L349.44 27.018L349.127 27.3302H347.877L347.564 27.1741L346.783 24.8328L345.846 24.3646H343.814L342.876 24.8328L342.564 25.4571V26.3936L343.189 27.3302L348.189 29.8275L349.44 30.764L350.377 32.0127L350.69 32.7931V34.8222L349.909 36.3831L348.815 37.4757L347.095 38.2561L345.221 38.5682H342.251L339.751 38.1L338.344 37.4757L338.188 36.8513L338.657 33.5735L338.813 33.4175H340.532L341.001 34.6661L341.782 36.227L342.564 36.5392H345.221L346.002 36.0709L346.471 35.2905L346.315 33.8857L345.533 33.1053L340.845 30.9201L339.282 29.6714L338.5 28.2667L338.344 27.6423V26.0815L338.969 24.5207L339.751 23.7402L341.157 22.8037L343.033 22.3354Z" fill="#6D6D6E"/>
<path d="M372.256 22.3354H375.381L377.569 22.8037L378.976 23.4281L378.819 25.7693L378.507 27.1741L378.194 27.3302H377.1L376.631 26.5497L375.85 24.6767L375.069 24.3646H373.037L372.1 24.8328L371.787 25.4571V26.3936L372.412 27.3302L374.912 28.5789L377.569 29.8275L379.132 31.2323L379.757 32.6371L379.913 34.354L379.288 36.0709L378.194 37.3196L376.631 38.1L374.443 38.5682H371.631L368.974 38.1L367.567 37.4757L367.411 36.6953L367.88 33.5735L368.036 33.4175L369.599 33.2614L370.068 34.0418L370.693 35.7587L370.849 36.227L372.1 36.5392H374.287L375.225 36.0709L375.694 34.9783L375.537 33.8857L374.756 33.1053L371.787 31.7005L369.912 30.764L368.818 29.9836L367.88 28.5789L367.567 27.6423V26.0815L368.193 24.5207L368.974 23.7402L370.381 22.8037L372.256 22.3354Z" fill="#6D6D6E"/>
<path d="M222.545 14.6873L223.014 14.8433V33.5735L223.171 35.9148L224.733 36.5391V38.0999L220.514 38.256H217.232L216.764 38.0999V36.5391L218.014 36.0709H218.326V18.4333L218.17 17.6529L216.764 17.1846L216.607 17.0285V15.6237L217.545 15.3115L222.545 14.6873Z" fill="#6D6D6E"/>
<path d="M314.591 22.3354H315.685V24.9889L317.56 23.1159L318.967 22.3354H321.154L321.623 22.6476V24.2085L320.998 26.7058H320.373L319.123 26.2376H317.56L316.31 26.7058L315.997 27.018V35.6027L316.154 35.9148L317.873 36.3831L318.185 36.6953V38.1L317.716 38.2561H309.746L309.59 38.1V36.6953L309.903 36.3831L311.153 35.9148V25.301L310.059 24.9889L309.59 24.8328L309.434 23.272L309.903 22.9598L314.591 22.3354Z" fill="#6D6D6E"/>
<path d="M287.087 22.3354H288.649L288.806 35.7587L288.962 36.0709L290.212 36.5392L290.368 36.6953L290.525 37.9439L290.368 38.1L288.181 38.2561H282.555L282.242 37.4757L282.399 36.3831L283.961 35.9148V25.4571L282.711 24.9889L282.242 24.8328L282.086 23.272L282.711 22.9598L287.087 22.3354Z" fill="#6D6D6E"/>
<path d="M293.025 25.3008L293.338 25.4569L293.494 29.359L293.182 33.7294H293.025V25.3008Z" fill="#6D6D6E"/>
<path d="M263.958 25.7693H264.115L264.271 26.8618V29.6714L264.427 30.764H264.115L263.802 28.7349V26.2375L263.958 25.7693Z" fill="#6D6D6E"/>
<path d="M237.079 28.8909L237.392 29.3591L237.548 32.0125L237.235 32.793H237.079V28.8909Z" fill="#6D6D6E"/>
<path d="M291.306 23.1157L291.619 23.2718L291.462 23.5839L291.775 24.5204L292.244 24.6765V24.9887L291.306 24.6765L291.15 24.3644V23.2718L291.306 23.1157Z" fill="#6D6D6E"/>
<path d="M284.864 15.7407L286.584 15.8981L287.836 17.0001L287.992 17.4723V19.2039L286.897 20.4633L286.115 20.7781H284.551L283.613 20.3058L282.83 19.3613L282.674 19.0465V17.7871L283.143 16.8427L284.082 16.0555L284.864 15.7407Z" fill="#6D6D6E"/>
</g>
<defs>
<clipPath id="clip0_211_4496">
<rect width="380" height="59" fill="white"/>
</clipPath>
</defs>
</svg>
