<svg width="659" height="225" viewBox="0 0 659 225" fill="none" xmlns="http://www.w3.org/2000/svg">
<path d="M95.2461 109.121H157.993L161.21 111.052L161.854 112.017V115.557L156.062 136.472L150.914 154.492L145.122 175.086L143.191 181.199L142.547 182.487L141.904 182.808H68.8604L67.5732 180.234L67.895 177.016L71.7563 163.823L75.9395 148.7L81.0879 131.002L85.271 115.557L86.8799 111.696L88.4888 110.087L90.0977 109.443L95.2461 109.121Z" fill="#6D6D6E"/>
<path d="M62.4248 25.1375H131.929L134.181 26.1028L135.146 27.3899V29.6423L131.607 43.157L126.78 59.8894L123.562 71.1516L120.988 80.4832L117.771 92.3889L116.483 95.9285L115.196 97.5374L112.622 98.8245H47.623L43.4399 98.1809L41.8311 96.572L41.1875 95.6067V93.0325L46.9795 72.4387L51.8062 55.7063L57.2764 35.7561L59.207 29.3206L60.8159 26.1028L62.4248 25.1375Z" fill="#6D6D6E"/>
<path d="M199.18 66.9685H224.279L230.714 67.6121L237.472 69.2209L242.298 71.1516L246.16 73.0823L250.665 76.3L254.526 79.8396L257.744 84.0227L260.64 89.1711L262.57 93.9978L264.501 101.72L264.823 103.329V112.661L263.214 120.384L261.283 125.854L258.387 131.324L255.169 135.507L251.952 139.047L247.447 142.586L242.298 145.482L237.472 147.413L231.358 148.7L226.209 149.344H197.571L194.675 146.769L194.354 146.126V72.4387L194.997 69.8645L196.606 68.2556L199.18 66.9685ZM205.294 77.2654L204.972 87.884V121.349L205.294 139.368H210.764L222.348 139.047L230.714 138.403L235.863 136.794L241.333 133.898L244.551 131.324L247.447 128.428L250.343 123.923L252.273 119.74L253.561 115.879L253.882 113.948V102.042L252.595 97.2156L250.343 92.0671L247.447 87.884L243.907 84.3445L240.689 82.092L235.541 79.5178L230.714 77.9089L222.992 77.2654H205.294Z" fill="#6D6D6E"/>
<path d="M279.303 66.9685H326.926L329.178 67.6121L330.787 69.2209L331.752 71.1516V73.7258L330.787 75.3347L329.178 76.6218L326.926 77.2654L285.095 77.5872V103.329H323.386L325.317 103.973L326.926 105.26L327.891 107.191L327.569 109.765L326.282 111.696L324.673 112.661L322.743 112.983H285.095V139.368L290.243 139.047H325.96L329.178 139.69L330.787 140.977L331.752 142.908V146.126L330.465 148.056L328.213 149.344L324.352 149.665H306.332L277.694 149.344L274.798 147.091L274.476 146.126L274.154 139.047V129.072L274.476 70.5081L275.763 68.5774L278.016 67.2903L279.303 66.9685Z" fill="#6D6D6E"/>
<path d="M484.597 66.6467H487.814L490.067 67.6121L491.998 69.2209L493.606 71.7952L500.042 87.5623L506.156 101.399L509.374 109.121L513.557 119.096L518.705 131.324L522.888 140.977L523.532 143.23V146.769L522.566 148.378L520.314 149.665H516.453L514.522 148.378L512.591 145.16L508.408 134.864L505.834 128.75H465.934L464.646 131.324L461.107 140.334L457.889 147.413L456.602 149.022L455.315 149.665H450.81L448.236 147.413L447.592 145.804L447.914 142.908L451.775 133.576L456.602 122.636L459.82 114.913L465.29 102.042L469.151 92.7107L473.013 83.7009L478.161 71.4734L480.092 68.5774L482.022 67.2903L484.597 66.6467ZM485.24 81.1267L480.414 92.7107L477.196 100.755L472.369 112.339L470.117 117.809V118.775H501.651L501.007 116.844L496.502 105.904L491.676 93.9978L486.849 82.4138L486.206 81.1267H485.24Z" fill="#6D6D6E"/>
<path d="M153.81 56.3499H163.141L174.082 56.6716L176.656 58.9241L176.978 61.1765L175.369 67.9338L170.864 83.3792L167.968 93.676L166.681 96.8938L164.106 98.5027L163.141 98.8245H129.033L126.458 97.8591L124.85 95.9285V92.3889L129.354 76.9436L133.216 63.429L134.825 58.9241L137.399 56.6716L153.81 56.3499Z" fill="#6D6D6E"/>
<path d="M39.5786 109.443H74.6523L77.5483 111.374L77.8701 112.017V115.879L71.7563 138.081L69.1821 147.413L67.895 149.987L66.6079 150.952L65.6426 151.274H28.6382L26.7075 149.987L26.3857 149.022V144.839L28.6382 136.794L31.2124 128.106L34.4302 116.2L36.0391 112.017L37.3262 110.408L39.5786 109.443Z" fill="#6D6D6E"/>
<path d="M385.167 66.9685H444.053L446.305 67.9338L448.236 70.1863L448.558 72.4387L447.592 75.3347L445.983 76.6218L444.053 77.2654H419.919V145.482L418.632 148.056L417.023 149.344L416.058 149.665H411.875L409.623 147.735L409.301 147.091L408.979 143.873V122.314L409.301 77.2654H383.88L381.95 76.3L380.341 74.3694L380.019 71.4734L380.984 69.5427L383.237 67.6121L385.167 66.9685Z" fill="#6D6D6E"/>
<path d="M345.267 66.6467L348.163 66.9685L350.416 68.8992L351.381 71.4734V138.403H389.994L392.247 139.047L393.855 140.656L395.143 142.908V145.482L393.212 148.056L391.603 149.344L389.994 149.665H367.47L345.911 149.344L342.693 147.091L341.084 145.16L340.44 142.908V87.884L340.762 70.1863L342.049 68.2556L343.98 66.9685L345.267 66.6467Z" fill="#6D6D6E"/>
<path d="M540.586 112.661H556.353L560.858 113.304L563.432 114.592L564.719 117.166L565.363 121.992L565.041 125.854L563.754 129.715L565.041 133.255L565.363 135.507V141.621L564.076 144.839L561.501 147.091L558.927 147.735H538.333L536.403 145.482L536.081 144.517V116.2L537.046 114.27L538.977 112.983L540.586 112.661ZM542.838 119.418L542.517 119.74V139.368L542.838 141.299H557.318L558.605 140.656L558.927 140.012V134.542L558.284 133.898L548.63 133.255H547.343L547.021 129.715L547.665 126.819H553.135L557.962 126.497L558.927 125.532V120.062L557.962 119.74L551.848 119.418H542.838Z" fill="#6D6D6E"/>
<path d="M586.6 112.661H595.932L603.011 112.983L603.333 113.304V119.418L585.313 119.74L581.773 120.062L581.13 120.384L580.808 126.497V135.185L581.452 139.69L582.417 140.334L587.244 140.977H597.219L597.541 138.725L597.862 132.933H586.922L585.957 131.324V127.784L587.244 126.497L588.531 126.176H602.367L603.333 126.497L603.654 127.463V141.621L603.011 144.517L601.724 146.448L600.437 147.413L599.149 147.735H583.382L580.165 147.091L577.59 145.804L575.66 143.552L574.373 140.656L573.729 135.829V125.21L574.373 120.384L575.66 116.844L577.912 114.592L581.452 113.304L586.6 112.661Z" fill="#6D6D6E"/>
<path d="M622.639 129.393H625.213L628.431 130.037L630.04 131.646L630.362 132.289V135.185L628.109 146.448L626.5 147.735H621.03L618.456 146.769L616.525 144.517L615.56 142.264L615.238 140.334V136.472L616.204 132.933L617.812 131.002L620.387 129.715L622.639 129.393Z" fill="#6D6D6E"/>
</svg>
