<svg width="213" height="41" viewBox="0 0 213 41" fill="none" xmlns="http://www.w3.org/2000/svg">
<path d="M94.3438 2.38419C94.3742 3.03715 94.3742 3.06752 94.4655 2.61196L94.5568 2.09567L94.8306 2.56641C95.2262 3.23456 95.3936 3.14344 95.3784 2.30826C95.3631 1.86789 95.3175 1.76159 95.2871 2.00456C95.211 2.53604 95.0436 2.53604 94.785 2.05011C94.4807 1.47307 94.3286 1.59456 94.3438 2.38419ZM94.6329 3.84196V4.34307L93.2636 4.5253C90.7228 4.87456 88.2885 6.01344 86.3106 7.8053C85.5347 8.50381 85.5195 8.519 85.1239 8.26085C84.6675 7.95715 84.6219 8.12419 85.0631 8.48863L85.3978 8.74678L84.8349 9.52122C83.6634 11.146 82.6136 14.016 82.6136 15.5953C82.6136 16.142 82.4006 16.7038 82.2636 16.552C82.218 16.5064 82.005 16.1116 81.792 15.6712C81.2443 14.5779 80.3314 13.7275 79.1295 13.1505L78.1254 12.6797L78.1102 11.6775C78.0645 9.88567 77.106 8.57974 75.3107 7.86604C74.5196 7.54715 74.2001 7.51678 69.5749 7.47122L64.6607 7.42567V10.7816H68.0535C71.5984 10.7816 72.3744 10.8727 73.0134 11.3586C73.8197 11.9509 74.0936 12.5583 74.0936 13.7427V14.836L74.976 15.0334C76.5887 15.3827 77.4559 16.0357 78.0341 17.3112C78.384 18.0705 78.4601 19.589 78.2014 20.5305C77.958 21.3809 77.1516 22.3223 76.2996 22.7627C75.5541 23.1575 75.4933 23.1575 72.1157 23.1575H68.6925L68.6469 18.0249L68.6164 12.9075H64.6607V26.5742H70.5639C76.9386 26.5742 77.319 26.5286 78.81 25.7238C79.7989 25.1923 81.2443 23.6586 81.7616 22.5957C82.1724 21.7453 82.5984 20.0446 82.6136 19.1334C82.6288 18.7234 82.6896 18.8449 82.9179 19.7409C83.3134 21.2442 84.4089 23.4005 85.3521 24.509C86.0976 25.3594 86.1129 25.4049 85.8846 25.7542C85.5347 26.3009 85.6108 26.4831 86.0064 26.0275L86.3715 25.6175L87.2387 26.3312C88.9123 27.6827 91.3466 28.6546 93.7656 28.9279L94.6329 29.019V29.5505C94.6329 29.839 94.7089 30.0668 94.785 30.0668C94.8763 30.0668 94.9371 29.839 94.9371 29.5657V29.0646L96.5194 28.8216C98.4364 28.5179 100.186 27.8649 101.494 26.9538C102.97 25.9212 103.107 25.8757 103.427 26.1642C103.579 26.316 103.807 26.4223 103.929 26.4223C104.05 26.4223 103.944 26.2553 103.685 26.0579L103.229 25.6934L103.701 25.1771C105.541 23.1879 106.622 20.8797 106.987 18.192L107.169 16.8557H107.672C107.945 16.8557 108.174 16.7797 108.174 16.7038C108.174 16.6127 107.93 16.552 107.641 16.552C107.139 16.552 107.109 16.5216 107.109 16.0509C107.109 15.0334 106.515 12.7557 105.937 11.5257C105.602 10.8271 104.979 9.77937 104.537 9.20233C103.746 8.15455 103.731 8.13937 103.974 7.72937C104.34 7.12196 104.264 7.00048 103.868 7.50159L103.518 7.94196L102.529 7.15233C100.719 5.67937 97.4475 4.419 95.4392 4.40382C94.9676 4.40382 94.9371 4.37344 94.9371 3.87233C94.9371 3.58381 94.8763 3.34085 94.785 3.34085C94.7089 3.34085 94.6329 3.56863 94.6329 3.84196ZM94.6329 5.08715C94.6329 5.29974 94.7089 5.46678 94.785 5.46678C94.8763 5.46678 94.9371 5.28456 94.9371 5.07196V4.66196L95.9717 4.76826C98.5581 5.02641 101.038 6.11974 102.727 7.71418C103.275 8.23048 103.29 8.27604 103.077 8.61011C102.94 8.80752 102.909 8.95937 102.986 8.95937C103.077 8.95937 103.199 8.83789 103.29 8.70122C103.427 8.45826 103.457 8.45826 103.777 8.73159C104.309 9.21752 105.511 11.1157 105.937 12.1786C106.363 13.2568 106.804 15.1853 106.804 16.0205C106.804 16.4912 106.759 16.552 106.424 16.552C106.211 16.552 106.044 16.6127 106.044 16.7038C106.044 16.7797 106.211 16.8557 106.424 16.8557C106.759 16.8557 106.804 16.9164 106.804 17.3871C106.804 18.2071 106.363 20.1509 105.968 21.1531C105.465 22.3831 104.629 23.7042 103.731 24.676C103.107 25.3594 102.925 25.4809 102.696 25.3594C102.255 25.1316 102.164 25.1771 102.453 25.496C102.712 25.7694 102.681 25.8149 101.829 26.4223C100.171 27.6068 98.0561 28.3964 95.9413 28.6242L94.9371 28.7305V28.3357C94.9371 28.1231 94.8763 27.9409 94.785 27.9409C94.7089 27.9409 94.6329 28.1231 94.6329 28.3357C94.6329 28.7305 94.6329 28.7305 93.7656 28.6242C91.3618 28.3509 89.3535 27.5612 87.6039 26.2401C86.6149 25.4809 86.4019 25.1771 86.7214 24.9797C86.8127 24.9342 86.8736 24.8127 86.8736 24.7216C86.8736 24.6305 86.7367 24.676 86.5541 24.8431C86.2346 25.1316 86.2346 25.1316 85.8542 24.676C84.0894 22.5197 83.1461 20.3331 82.8722 17.6453C82.7809 16.886 82.7961 16.8557 83.1461 16.8557C83.3591 16.8557 83.5264 16.7797 83.5264 16.7038C83.5264 16.6127 83.3591 16.552 83.1461 16.552C82.7657 16.552 82.7657 16.5368 82.857 15.6712C83.1156 13.4846 84.1198 10.8271 85.2152 9.52122C85.6716 8.97456 85.7021 8.95937 86.052 9.18715C86.265 9.32381 86.4171 9.35419 86.4171 9.26307C86.4171 9.17196 86.3106 9.06567 86.1889 9.02011C85.8086 8.86826 85.9303 8.57974 86.6149 7.94196C88.6232 6.10456 91.6661 4.78344 94.0699 4.7227C94.572 4.70752 94.6329 4.75307 94.6329 5.08715ZM82.6136 17.4631C82.6136 17.6605 82.5984 17.6605 82.4614 17.4631C82.3854 17.3416 82.3093 17.129 82.3093 17.0075C82.3093 16.8101 82.3245 16.8101 82.4614 17.0075C82.5375 17.129 82.6136 17.3416 82.6136 17.4631Z" fill="#6D6D6E"/>
<path d="M92.7311 7.36482C90.5098 7.77482 88.4254 8.95927 87.0257 10.6448C86.1129 11.7382 85.6564 12.6037 85.1848 14.1222C84.6675 15.7926 84.6979 18.4196 85.2456 20.1204C86.265 23.203 89.1253 25.83 92.3507 26.5893C93.5374 26.8778 96.1695 26.8474 97.3714 26.5285C99.8361 25.8908 102.331 23.9926 103.518 21.8515C105.039 19.103 105.07 15.2004 103.594 12.2848C102.849 10.7815 100.962 8.97445 99.3189 8.20001C97.2649 7.21297 95.0589 6.93964 92.7311 7.36482ZM97.0063 11.2674C98.5581 11.8293 99.897 13.4085 100.353 15.1852C100.688 16.4759 100.582 18.4348 100.125 19.6193C99.684 20.7733 98.5125 22.0337 97.4019 22.5804C96.6107 22.9752 96.3977 23.0056 94.785 23.0056C93.2179 23.0056 92.9441 22.96 92.1986 22.6107C91.0879 22.0945 90.1294 21.1074 89.5513 19.8926C89.0949 18.9511 89.0796 18.8145 89.0796 17.0074C89.0796 15.2308 89.1101 15.0485 89.5209 14.1678C90.0381 13.0593 91.2401 11.8293 92.2899 11.3585C93.72 10.7359 95.4849 10.6904 97.0063 11.2674Z" fill="#6D6D6E"/>
<path d="M93.7656 13.0895C93.7809 13.1958 93.8721 13.3325 93.9482 13.3932C94.0395 13.4691 94.0091 13.5147 93.8721 13.5147C93.7352 13.5147 93.5679 13.454 93.4918 13.378C93.4005 13.3021 93.1266 13.1958 92.868 13.1502C92.5029 13.0743 92.2746 13.1502 91.7421 13.5299C91.1184 13.9854 91.0879 14.031 91.4074 14.1373C91.59 14.2132 91.7117 14.3499 91.6661 14.4562C91.6356 14.5625 91.5596 14.8965 91.5139 15.1851C91.4835 15.4736 91.4074 15.914 91.3466 16.1721C91.2857 16.5062 91.3466 16.7188 91.59 16.9769C91.7574 17.1591 91.8639 17.3869 91.803 17.4932C91.7421 17.5843 91.7574 17.6147 91.8486 17.5691C91.9247 17.5084 92.1529 17.6451 92.3203 17.8425C92.5029 18.0551 92.7919 18.2221 92.9745 18.2221C93.1571 18.2221 93.5374 18.3588 93.8113 18.541C94.4199 18.9054 94.4655 18.8447 93.9786 18.3132C93.72 18.0399 93.5222 17.964 93.2788 18.0247C92.9745 18.1006 92.9441 18.0703 92.9897 17.6754C93.0354 17.2958 93.1114 17.2351 93.5374 17.1895C93.8113 17.1591 94.146 17.2199 94.2677 17.3262C94.4351 17.4628 94.4807 17.4477 94.4807 17.1743C94.4807 17.0073 94.5264 16.8554 94.6024 16.8554C94.6633 16.8554 94.9219 16.6428 95.1958 16.3999C95.4697 16.1417 95.7891 15.9443 95.9261 15.9443C96.0934 15.9443 96.1543 15.8532 96.0934 15.671C96.0174 15.4736 96.0782 15.3825 96.2608 15.3825C96.4129 15.3825 96.5803 15.4584 96.6411 15.5495C96.7172 15.6558 96.7629 15.6406 96.7629 15.4888C96.7476 15.2154 96.3369 14.7143 95.8804 14.4562C95.4392 14.2132 95.3936 14.2284 95.3936 14.5625C95.3936 14.7143 95.2871 14.9269 95.1654 15.0332C94.998 15.1851 94.8915 15.1699 94.7089 14.9877C94.5872 14.8662 94.4046 14.7295 94.2981 14.684C94.0243 14.5928 94.3438 14.0614 94.7241 13.9854C94.8763 13.9702 95.1349 13.8336 95.2719 13.7121C95.5609 13.454 95.8804 13.5603 95.7587 13.8791C95.7131 13.9854 95.7739 14.1221 95.9109 14.1677C96.276 14.3043 96.3216 13.8488 95.9717 13.5147C95.5761 13.1502 95.0893 13.1199 95.0893 13.454C95.0893 13.5754 95.0284 13.6514 94.9371 13.5906C94.8611 13.5451 94.8307 13.4084 94.8915 13.2869C94.9371 13.1654 94.8915 13.0591 94.785 13.0591C94.6937 13.0591 94.6481 13.1199 94.7089 13.1958C94.7546 13.2869 94.6481 13.4236 94.4655 13.5299C94.1764 13.6817 94.146 13.6665 94.2373 13.4236C94.2981 13.2717 94.2525 13.1047 94.146 13.0288C93.8569 12.8617 93.72 12.8769 93.7656 13.0895ZM94.8915 18.7232C94.7546 18.8143 94.6024 19.0877 94.5568 19.3154C94.4655 19.6495 94.5416 19.8014 94.8611 20.1051C95.2871 20.4999 95.3175 20.8188 94.998 21.6388C94.8915 21.9121 94.9219 21.8969 95.3631 21.5628C97.6453 19.8014 97.9648 19.4369 97.2193 19.4369C97.0671 19.4369 96.8694 19.3458 96.8085 19.2395C96.5194 18.784 95.2566 18.4499 94.8915 18.7232ZM133.84 5.26914C133.779 5.31469 133.734 9.93099 133.734 15.5191V25.6628H137.841V5.16284H135.894C134.814 5.16284 133.886 5.2084 133.84 5.26914ZM171.739 5.95247C170.719 6.2258 169.944 7.45581 169.944 8.76173V9.26284H170.978C171.891 9.26284 172.013 9.23247 172.15 8.92877C172.408 8.3821 173.032 8.32136 174.34 8.74655C174.979 8.95914 176.014 9.15655 176.638 9.2021C177.672 9.29321 177.825 9.26284 178.311 8.92877C178.996 8.47321 179.483 7.57729 179.62 6.55988L179.726 5.77025H178.646C177.627 5.77025 177.551 5.78543 177.368 6.18025C177.094 6.75729 176.364 6.80284 174.858 6.3321C173.367 5.86136 172.454 5.73988 171.739 5.95247ZM119.797 14.608C116.039 19.0573 112.403 23.3699 111.703 24.1747L110.441 25.6628L112.92 25.6477H115.4L116.587 24.2203L117.759 22.7777L120.695 22.7473L123.616 22.7017L123.662 21.0769L123.707 19.4521L122.171 19.4065L120.634 19.361L122.779 16.7795C123.966 15.3521 125.092 14.031 125.305 13.8184L125.67 13.4388V25.6628H129.778V6.52951H126.628L119.797 14.608ZM142.406 9.56655V12.148H140.276V15.3369H142.101V17.1895C142.117 20.9706 142.558 22.4891 144.094 23.9014C145.372 25.101 147.061 25.6628 149.267 25.6628H150.317V22.3221H149.511C148.339 22.3221 147.213 21.9425 146.757 21.411C146.179 20.7277 146.057 20.0443 146.057 17.5691V15.3369H149.861V12.148H146.057V6.98506H142.406V9.56655ZM0 16.9921V26.574H4.10785V11.0851H6.66385C8.47435 11.0851 9.44806 11.1458 9.98057 11.3128C12.4149 12.0265 13.5407 14.6232 12.4149 16.9162C11.7607 18.2525 10.7261 18.9054 8.79385 19.2091L8.21571 19.3003V22.7017L9.85885 24.6303L11.4868 26.5588H14.3775L17.253 26.574L16.5684 25.8451C15.0013 24.2202 12.7496 21.6995 12.7952 21.6691L13.4647 21.3351C13.7994 21.168 14.5297 20.591 15.0774 20.0443C16.2184 18.9206 16.6597 17.9791 16.9335 16.1114C17.3899 12.8769 15.8989 9.83988 13.1756 8.50358C11.3194 7.57729 11.0456 7.54692 5.29457 7.48618L0 7.41025V16.9921ZM20.5697 14.1525C20.6306 20.6669 20.6306 20.9099 20.9653 21.7754C21.4369 23.0358 21.939 23.8406 22.7454 24.6454C24.5559 26.4221 27.5987 27.1965 30.5655 26.6651C33.0302 26.2247 34.9168 24.9036 35.8905 22.8991C36.7425 21.168 36.8186 20.4695 36.8186 13.621V7.44062H32.7107V13.5603C32.7107 20.758 32.6955 20.834 31.4479 22.0791C29.5157 23.9925 26.5185 23.5065 25.1797 21.0921L24.7232 20.2721L24.6776 13.8488L24.6319 7.44062H20.5241L20.5697 14.1525ZM41.2307 17.0073V26.574H45.3386V20.5758C45.3386 17.2806 45.3842 14.5777 45.4603 14.5777C45.5211 14.5777 46.6927 15.7014 48.0772 17.0832L50.5723 19.5736L53.1435 16.9314C54.5584 15.4736 55.7756 14.274 55.8517 14.274C55.9277 14.274 55.9886 16.8251 55.9886 20.424V26.574H60.0964V7.44062H57.4644L54.0412 10.8117L50.6027 14.1828L47.3164 10.8117L44.0454 7.44062H41.2307V17.0073ZM208.223 9.76395C208.025 9.96136 207.705 10.4625 207.508 10.8877C207.203 11.5558 207.082 11.6773 206.625 11.7532C205.651 11.9051 205.393 11.8747 205.393 11.5406C205.393 11.1306 205.18 11.161 204.83 11.6014C204.51 12.0417 203.187 12.2391 203.187 11.8595C203.187 11.4799 202.852 11.5102 202.593 11.9202C202.396 12.224 202.213 12.2999 201.757 12.2999C200.889 12.2999 200.22 12.4669 200.22 12.6795C200.22 12.8617 200.813 12.9984 204.465 13.621C205.332 13.7728 206.062 13.9702 206.108 14.0614C206.138 14.1677 206.017 14.7751 205.804 15.428L205.454 16.6277L204.343 16.7795L203.248 16.9314L202.654 18.0399C201.894 19.4825 200.616 21.1377 199.307 22.3828C198.364 23.2636 196.797 24.448 196.553 24.448C196.508 24.448 196.766 24.1291 197.131 23.7495C198.455 22.3221 199.094 20.424 198.957 18.298C198.866 16.8706 198.425 15.6103 197.679 14.6384C197.375 14.2284 197.192 13.8488 197.238 13.7121C197.299 13.5451 197.268 13.5147 197.101 13.5754C196.964 13.621 196.553 13.4236 196.082 13.0743C194.652 11.981 192.385 11.4951 190.346 11.8443C186.831 12.4365 184.412 15.3217 184.397 18.9054C184.397 20.9858 185.006 22.4891 186.39 23.871C187.455 24.934 188.733 25.5717 190.331 25.8451C191.274 25.9969 191.578 26.1184 192.065 26.5436C194.149 28.381 197.847 28.5936 201.042 27.0447C203.719 25.754 206.747 22.4436 207.751 19.7103L208.01 18.9965L207.295 18.0854L206.564 17.1591L207.082 15.9443C207.371 15.2762 207.66 14.7295 207.751 14.7295C207.827 14.7295 208.983 15.5495 210.307 16.5669C212.041 17.888 212.772 18.3588 212.848 18.2069C212.924 18.0854 212.711 17.6906 212.239 17.1136C211.768 16.5214 211.539 16.1265 211.585 15.9291C211.707 15.4888 211.509 15.094 211.296 15.3065C211.022 15.5799 210.946 15.5343 210.505 14.9117C210.201 14.4562 210.124 14.2284 210.201 13.8488C210.292 13.378 210.094 13.1654 209.881 13.5147C209.714 13.788 209.531 13.6817 208.999 12.9528C208.466 12.2391 208.466 12.2391 208.679 11.5406C208.923 10.7358 208.953 9.62729 208.74 9.49062C208.664 9.44506 208.42 9.56655 208.223 9.76395ZM192.887 15.261C193.313 15.3977 193.708 15.5647 193.754 15.6406C193.815 15.7317 193.465 16.2177 192.993 16.7491C192.05 17.7817 190.909 19.9228 190.62 21.1832C190.513 21.5932 190.422 22.0336 190.392 22.1399C190.346 22.3069 190.179 22.2614 189.676 21.9728C187.486 20.6821 187.516 16.901 189.737 15.6406C190.878 15.018 191.7 14.9117 192.887 15.261ZM195.214 17.6603C195.64 19.2395 195.062 21.0921 193.876 21.9121C193.313 22.2917 191.898 22.7169 191.73 22.5499C191.563 22.3828 192.05 20.6821 192.613 19.4825C192.932 18.784 193.495 17.8121 193.845 17.2958L194.499 16.3695L194.773 16.7036C194.925 16.8858 195.123 17.3262 195.214 17.6603ZM157.377 11.9202C156.083 12.1936 154.973 12.801 153.969 13.7577C152.523 15.1243 151.839 16.8099 151.839 18.9054C151.854 22.0791 153.543 24.4936 156.494 25.5262C158.411 26.1943 161.104 26.0577 162.915 25.1921C163.645 24.8277 165.227 23.4458 165.212 23.1725C165.212 23.0814 164.649 22.5499 163.964 21.988L162.732 20.9858L162.017 21.6236C159.841 23.5673 156.449 22.6106 155.794 19.8773C155.323 17.9336 156.159 16.1417 157.924 15.3521C158.868 14.9269 160.359 14.9421 160.359 15.3673C160.359 15.4584 159.674 16.3999 158.822 17.478C157.985 18.5562 157.331 19.4977 157.377 19.5736C157.422 19.6343 157.97 20.0443 158.594 20.4847L159.72 21.2591L162.336 17.7362L164.938 14.198L164.223 13.5451C162.489 11.9658 159.933 11.3584 157.377 11.9202ZM174.508 11.9051C173.549 12.1784 173.184 12.391 172.347 13.1806L171.617 13.864V11.9962H167.814V25.6628H171.754L171.8 21.3503L171.845 17.0377L172.302 16.3847C173.534 14.6536 176.257 14.6688 177.246 16.4151C177.627 17.0832 177.627 17.1136 177.672 21.3654L177.718 25.6628H181.674L181.628 20.758C181.583 16.0658 181.567 15.838 181.217 14.9877C180.685 13.6362 180.046 12.9073 178.89 12.3151C178.022 11.8747 177.703 11.7988 176.547 11.7532C175.725 11.7228 174.919 11.7836 174.508 11.9051ZM108.478 16.7036C108.478 17.5084 108.615 17.6147 109.315 17.311C109.573 17.2047 109.528 17.1743 109.117 17.1743C108.524 17.1591 108.523 16.8403 109.102 16.6884C109.467 16.5821 109.467 16.5821 109.056 16.5669C108.523 16.5517 108.493 16.248 109.01 16.248C109.223 16.248 109.391 16.1721 109.391 16.0962C109.391 16.0051 109.193 15.9443 108.934 15.9443C108.493 15.9443 108.478 15.9595 108.478 16.7036ZM94.4351 30.3095C94.2221 30.5373 94.3438 30.841 94.7089 31.008C94.9219 31.0991 95.0893 31.251 95.0893 31.3269C95.0893 31.4028 94.9219 31.4332 94.7089 31.4028C94.2525 31.3117 94.2069 31.5243 94.6481 31.661C95.0132 31.7825 95.4849 31.4028 95.3175 31.1295C95.2566 31.0384 95.0436 30.8865 94.8154 30.8106C94.5264 30.7043 94.4807 30.6132 94.6024 30.4917C94.7241 30.3703 94.8459 30.3854 95.0284 30.5373C95.2566 30.7195 95.2871 30.7195 95.211 30.5221C95.1349 30.2791 94.6176 30.1425 94.4351 30.3095ZM28.4507 36.0191C27.4314 38.388 26.5489 40.4077 26.5185 40.4988C26.4577 40.6354 26.6098 40.6962 26.9749 40.6962C27.4922 40.6962 27.5074 40.681 28.0704 39.3295L28.6485 37.9477L30.3982 37.9932L32.1478 38.0388L32.6955 39.3295C33.2128 40.5443 33.2737 40.6203 33.7453 40.6658C34.0039 40.6962 34.2322 40.6506 34.2322 40.5595C34.2322 40.3621 30.5959 32.0103 30.4438 31.8432C30.3677 31.7825 29.4853 33.6503 28.4507 36.0191ZM31.098 35.5028L31.7827 37.0517H30.3982C29.1506 37.0517 29.0289 37.0214 29.1202 36.7784C29.4092 36.0191 30.3373 33.878 30.3829 33.9084C30.3982 33.9388 30.7329 34.6525 31.098 35.5028ZM41.3829 31.8736C39.2833 32.5569 38.2792 33.9843 38.2792 36.2925C38.2639 37.3251 38.34 37.7351 38.6291 38.388C39.3137 39.9065 40.8504 40.848 42.6761 40.848C45.0799 40.848 46.7079 39.4054 46.9665 37.0517L47.0578 36.1406H43.3607V37.0517H45.9776L45.8711 37.5528C45.5972 38.8891 44.2584 39.9369 42.7978 39.9369C40.7591 39.9369 39.3594 38.5247 39.3442 36.4443C39.3442 35.2447 39.5876 34.4703 40.2114 33.7565C40.8352 33.0428 41.7176 32.648 42.7217 32.648C43.7259 32.648 44.4714 32.9517 45.1256 33.6351L45.6277 34.1665L46.0232 33.8325L46.4188 33.4832L45.9319 32.9821C45.1104 32.1469 44.3497 31.8432 42.9804 31.7977C42.3109 31.7673 41.5959 31.7977 41.3829 31.8736ZM62.0743 36.1862V40.6962H62.9871L63.0176 37.4162L63.0632 34.121L65.7105 36.991C67.1711 38.5703 68.586 40.104 68.8751 40.3925L69.3772 40.924V31.8888H68.4643V35.1688C68.4643 36.9758 68.4034 38.4184 68.3426 38.388C68.2665 38.3728 67.0037 37.0062 65.5127 35.3814C64.0217 33.7565 62.6372 32.2532 62.4394 32.0406L62.0743 31.661V36.1862ZM77.4864 32.0406C76.5735 32.4051 75.615 33.2706 75.1281 34.1969C74.8391 34.7436 74.7782 35.0777 74.7782 36.2925C74.7782 37.9325 75.0217 38.5854 76.0106 39.5421C76.9539 40.4684 77.7906 40.7721 79.2664 40.7721C80.3619 40.7721 80.6814 40.7114 81.3204 40.3773C82.0354 40.0128 82.0811 39.9521 82.1267 39.3295L82.1724 38.6765L81.6399 39.0865C80.1184 40.2406 78.3384 40.2254 76.9691 39.041C76.1171 38.3273 75.7672 37.5225 75.7672 36.2925C75.7672 35.0625 76.1171 34.2577 76.9691 33.544C78.3079 32.3747 80.1641 32.3595 81.6399 33.4832L82.1724 33.8932L82.1267 33.2251C82.0811 32.6025 82.0354 32.5569 81.3204 32.1925C80.2706 31.6762 78.597 31.6154 77.4864 32.0406ZM96.7933 31.9951C96.4586 32.6177 93.1114 40.4077 93.1114 40.5595C93.1114 40.6506 93.3244 40.6962 93.5983 40.6658C94.0547 40.6203 94.1156 40.5443 94.6329 39.3295L95.1806 38.0388L96.9302 37.9932L98.6799 37.9477L99.258 39.3295C99.8209 40.6658 99.8514 40.6962 100.353 40.6962C100.643 40.6962 100.871 40.6658 100.871 40.6354C100.871 40.5443 97.0519 31.828 96.9911 31.7673C96.9606 31.7369 96.8694 31.8432 96.7933 31.9951ZM98.2843 36.991C98.2843 37.0214 97.6757 37.0517 96.915 37.0517H95.5609L96.0934 35.7914C96.3977 35.108 96.702 34.3791 96.7933 34.1665C96.9302 33.8173 96.9911 33.9236 97.6149 35.351C97.98 36.2165 98.2843 36.9606 98.2843 36.991ZM154.912 31.9951C154.577 32.6177 151.23 40.3925 151.23 40.5443C151.23 40.6506 151.428 40.6962 151.702 40.6658C152.158 40.6203 152.234 40.5291 152.736 39.3295L153.299 38.0388L155.049 37.9932L156.798 37.9477L157.346 39.284C157.894 40.6051 157.909 40.6203 158.457 40.6658C158.883 40.7114 159.004 40.6658 158.944 40.514C158.761 40.0432 155.14 31.8128 155.11 31.7673C155.079 31.7369 154.988 31.8432 154.912 31.9951ZM155.779 35.4725C156.129 36.2773 156.388 36.9758 156.357 37.0062C156.312 37.0365 155.703 37.0517 154.988 37.0214L153.695 36.9758L154.318 35.4877C154.668 34.6828 154.988 34.0147 155.049 34.0147C155.11 34.0147 155.429 34.6677 155.779 35.4725ZM182.647 31.9799C181.932 32.3443 181.674 32.648 181.506 33.2858C181.156 34.5462 181.872 35.6395 183.454 36.2925C184.641 36.7784 185.158 37.158 185.401 37.7503C185.873 38.874 185.097 39.9369 183.804 39.9369C182.967 39.9369 182.541 39.6788 182.267 38.9954C182.145 38.7221 182.054 38.4791 182.039 38.4488C182.008 38.4336 181.826 38.4943 181.598 38.5854C181.126 38.8132 181.096 39.0865 181.506 39.7547C182.145 40.7873 183.895 41.1517 185.158 40.514C186.101 40.028 186.421 39.5117 186.497 38.3728C186.573 37.0062 186.253 36.581 184.351 35.6091C183.515 35.184 182.754 34.7132 182.632 34.5462C182.282 34.0603 182.374 33.4377 182.876 32.9214C183.286 32.5265 183.423 32.4658 183.895 32.5417C184.199 32.6025 184.625 32.8151 184.854 33.0277C185.31 33.468 185.432 33.4832 185.827 33.1795C186.116 32.9517 186.116 32.9517 185.751 32.5569C185.553 32.3443 185.204 32.071 184.975 31.9495C184.428 31.661 183.21 31.6762 182.647 31.9799ZM52.1089 32.0862C52.0633 32.1925 52.0481 34.1514 52.0633 36.4443L52.1089 40.6203H56.6732V39.7091L54.8932 39.6636L53.0979 39.618V36.2925H56.7493V35.3814H53.0979V32.7999H56.7493V31.8888H54.4672C52.7632 31.8888 52.1546 31.9343 52.1089 32.0862ZM87.4821 36.3077V40.7114L87.9842 40.6658L88.4711 40.6203L88.5167 36.2469L88.5471 31.8888H87.4821V36.3077ZM108.965 36.2317L109.01 40.6203L110.943 40.6051C113.423 40.5747 114.153 40.3469 115.066 39.3295C115.842 38.464 116.085 37.7199 116.085 36.171C116.085 34.3032 115.416 33.0884 114.016 32.4051C113.27 32.0406 112.966 31.9951 111.049 31.9191L108.934 31.8432L108.965 36.2317ZM113.301 33.1188C114.427 33.544 115.02 34.6221 115.02 36.2925C115.02 37.9628 114.427 39.041 113.301 39.4662C113.057 39.5573 112.221 39.6332 111.429 39.6332H109.999V32.7543L111.445 32.8606C112.236 32.9062 113.073 33.0277 113.301 33.1188ZM121.41 36.2925V40.6962H125.974V39.6332H122.475V36.2925H125.974V35.3814H122.475V32.7999H125.974V31.8888H121.41V36.2925ZM135.514 36.2469C136.487 38.6462 137.324 40.6658 137.37 40.7266C137.461 40.8328 141.036 32.2836 141.036 31.9951C141.036 31.9343 140.808 31.8888 140.519 31.8888H140.017L138.739 35.2295C138.039 37.0517 137.446 38.5247 137.415 38.4943C137.385 38.464 136.792 36.991 136.107 35.1991L134.859 31.9647L134.296 31.9191L133.749 31.8736L135.514 36.2469ZM145.601 36.3077V40.7114L146.103 40.6658L146.59 40.6203L146.635 36.2469L146.666 31.8888H145.601V36.3077ZM165.197 35.5636C165.166 38.1603 165.09 39.3599 164.953 39.5877C164.725 40.0128 164.025 40.0584 163.462 39.6788C163.097 39.451 163.067 39.451 162.778 39.7243C162.489 40.028 162.489 40.028 162.884 40.4077C163.219 40.7114 163.417 40.7721 164.253 40.7721C165.105 40.7721 165.273 40.7266 165.638 40.3469L166.064 39.9369L166.11 35.9128L166.155 31.8888H165.258L165.197 35.5636ZM171.769 36.2925V40.6962H176.334V39.6332H172.834V36.2925H176.334V35.3814H172.834V32.7999H176.334V31.8888H171.769V36.2925Z" fill="#6D6D6E"/>
</svg>
