<svg width="1517" height="362" viewBox="0 0 1517 362" fill="none" xmlns="http://www.w3.org/2000/svg">
<path d="M277 0H294L310 4L322 10L333 19L340 29L344 39L345 44V56L341 69L336 85L335 92V109L338 124L345 140L354 153L367 166L382 176L399 185L411 194L423 205L432 217L440 232L445 248L446 254V274L443 288L438 301L431 313L423 323L411 335L396 345L380 353L360 359L339 362H322L301 359L281 353L265 345L253 338L238 332L223 328L208 326H188L168 329L150 335L134 343L120 352L106 358L93 361L85 362H71L54 359L38 353L27 346L17 337L10 329L3 315L0 304V288L4 273L11 261L22 249L32 242L46 235L60 231L66 230H90L104 233L125 239L138 241H165L182 238L200 232L216 224L228 215L236 208L250 192L258 179L263 167L266 153V133L262 116L254 100L245 88L237 80L230 69L226 56V44L230 31L236 22L241 16L254 7L267 2L277 0Z" fill="#6D6D6E"/>
<path d="M1052 80H1085V279H1053L1052 266L1051 264L1042 272L1028 279L1016 282H999L983 278L972 272L961 263L952 251L946 239L942 225L941 217V199L944 184L949 171L955 161L964 151L971 145L987 137L1003 134L1019 135L1034 140L1046 147L1052 152V80ZM1006 163L995 167L985 176L979 185L975 197V219L979 232L986 242L994 249L1004 253L1010 254H1018L1027 252L1036 247L1042 242L1049 231L1053 215V201L1050 188L1044 177L1037 170L1026 164L1022 163H1006Z" fill="#6D6D6E"/>
<path d="M690 134H705L719 137L735 145L745 154L752 162L759 176L763 192V216H659L661 225L667 236L676 244L686 249L694 251H714L727 247L739 239H743L755 256L757 261L749 268L733 276L716 281L710 282H691L676 279L663 274L652 267L643 259L634 246L629 235L626 223L625 208L627 190L632 175L639 163L648 153L656 146L672 138L683 135L690 134ZM689 164L679 167L669 173L663 181L659 191V193H731L730 185L725 176L716 168L705 164H689Z" fill="#6D6D6E"/>
<path d="M1175 134H1190L1204 137L1220 145L1230 154L1237 162L1245 178L1248 191V216H1144L1147 227L1153 237L1161 244L1171 249L1179 251H1200L1212 247L1223 240L1227 238L1239 254L1242 259L1240 263L1232 269L1218 276L1206 280L1195 282H1176L1161 279L1146 273L1135 265L1129 260L1120 248L1114 235L1111 222V196L1115 181L1119 171L1128 158L1137 149L1150 141L1164 136L1175 134ZM1174 164L1164 167L1156 172L1148 181L1144 191V193H1216L1215 185L1211 177L1204 170L1194 165L1190 164H1174Z" fill="#6D6D6E"/>
<path d="M1439 134H1448L1462 136L1477 141L1491 150L1502 161L1509 172L1514 184L1517 197V219L1513 236L1506 250L1497 261L1488 269L1478 275L1460 281L1453 282H1434L1420 279L1407 274L1397 267L1387 258L1380 248L1374 236L1370 219V197L1374 181L1382 165L1391 155L1400 147L1410 141L1425 136L1439 134ZM1438 164L1425 168L1417 174L1410 182L1405 193L1404 198V219L1408 231L1416 242L1426 249L1435 252H1452L1463 248L1473 240L1480 229L1483 219V197L1479 185L1473 177L1464 169L1455 165L1449 164H1438Z" fill="#6D6D6E"/>
<path d="M864 134L879 135L892 139L900 145L908 154L913 166L916 181V279H883L882 188L879 176L874 169L865 165H848L837 169L829 176L824 186L823 279H789V138L790 137H821L822 138L823 156L830 148L841 141L853 136L864 134Z" fill="#6D6D6E"/>
<path d="M550 134L567 135L582 139L596 146L607 155L608 157L601 165L590 177L584 173L573 166L563 162L551 161L542 163L537 166L535 170V180L539 185L549 190L576 198L592 206L600 213L605 219L608 227L609 233V243L606 254L601 262L595 269L584 276L574 280L564 282H544L529 279L517 274L507 268L499 261L497 257L509 246L518 239L525 245L535 251L544 254L549 255H564L572 251L576 245V236L573 231L558 225L537 219L523 213L512 205L506 198L502 189L501 184V169L505 158L514 148L522 142L533 137L541 135L550 134Z" fill="#6D6D6E"/>
<path d="M1347 134L1360 135L1366 137L1358 171L1357 173L1347 171H1335L1324 175L1315 183L1310 193L1309 197L1308 279H1274V138L1275 137H1307L1308 160L1312 154L1317 148L1328 140L1337 136L1347 134Z" fill="#6D6D6E"/>
</svg>
