<svg width="346" height="261" viewBox="0 0 346 261" fill="none" xmlns="http://www.w3.org/2000/svg">
<path d="M162.5 0H183.75L185 1L194 2.75L201 4.75L206.25 6.75L211.25 9L216.75 12L222.75 15.75L226 18.25L228.75 20.5L232.25 23.5L237.5 28.75L239.75 31.5L242.25 34.5L245.5 39L248.5 44L251 48.5L253.5 54L256 61L257.75 67.5L259 74L259.75 80.5L260 84.5V90.5L259.5 97.25L258.5 103.75L257 110.5L254 119.5L251.75 124.5L249.75 128.5L246.75 133.75L244.75 136.75L242 140.5L238.5 144.75L235.75 147.75L231.5 152L228.75 154.25L225 157.25L221 160L216.5 162.75L212 165.25L207.75 167.25L200.5 170L193.5 172L187.25 173.25L181.5 174L178.25 174.25H167.25L160.25 173.5L153.5 172.25L146.5 170.25L141.5 168.5L135.25 165.75L128.75 162.25L124.5 159.5L121 157L117 153.75L113.75 150.75L111.5 148.75L109.75 146.75L108 145L105.75 142.25L102.5 138L100 134.25L98 131L95 125.5L92.75 120.25L91.25 116.5L89.5 111L88 104.75L86.75 96.5L86.5 93.25V81L87.25 74.5L88.25 69L90.25 61.5L92.5 55L95.5 48.25L98.75 42.5L101.75 37.75L104.75 33.75L107 31L109.25 28.5L111 26.5L114 23.5L116 21.75L119.25 19L124 15.5L128.25 12.75L132.75 10.25L136.75 8.25L140.75 6.5L145.5 4.75L150.5 3.25L157.5 1.75L162.5 0.75V0ZM171.75 12.75L165 13.25L158.25 14.25L151.25 16L145.5 18L139 21L133.75 24L128.75 27.5L124.75 30.75L121.75 33.5L117.75 37.5L115.5 40.25L113 43.5L110 48L108 51.5L106 55.25L103.75 60.5L101.5 67.25L100 73.5L99 81.25L98.75 85V90.5L99.25 96.25L100.25 102.5L102 109.25L104.5 116.25L107.75 123L111.25 128.75L114.5 133.25L117.5 136.75L120.25 139.75L123.25 142.75L126 145L129.75 148L133.5 150.5L138.75 153.5L144.5 156.25L150.75 158.5L157.25 160.25L163.25 161.25L167.75 161.75H178.75L186.5 160.75L193 159.25L200.5 156.75L206.5 154L210.75 151.75L215 149L219.75 145.5L223.5 142.25L228.5 137.25V136.75H229L231.75 133.25L234.25 130L236.5 126.5L239 122.25L242 116L243.75 111.25L245.5 105L246.75 98.75L247.25 93.75V80.75L246.5 74.5L245 67.75L242.25 59.5L240 54.5L237.5 49.75L234.5 45L232.25 42L230 39.25L227.75 36.75L226 34.75L224.25 33L222.25 31.25L218.25 28L214 25L210.25 22.75L206.25 20.5L201.25 18.25L196.5 16.5L192.25 15.25L186.75 14L181 13.25L174 12.75H171.75Z" fill="#6D6D6E"/>
<path d="M134 58.75H141.75L147.25 59.75L150.25 60.75L154.5 62.75L158.75 65.25L161.5 67.25L164 69.5L166.25 72.75L167.5 75.25L167.75 76.25V78.25L166.75 81.25L164.75 86.5L163.25 93L163 93.5H162.5V93H162L159.5 89.25L156.5 85.25L153.75 82.25L151.25 80L148.5 78.25L144.5 76.75L140 76H138.75L139.5 76.25H140.75L140.25 77L143.25 78.25L147 80.5L150.25 83.25L153.5 86.25L155.75 88.75L159 93.25L161.75 97.75L162.25 98.75L162 102.75V111.5L162.75 112.5L164 103L165.5 96.25L167.25 91.25L169.5 86L171.5 82L173.5 78.5L175.5 75.5L178 72.25L182.75 67.5L186.25 65L189.75 63L193.5 61.25L198.5 59.75L202.75 59L205 58.75H212.25L218 59.75L231.5 63L238.25 64L239 64.25L238.75 65.5L235.25 70L232 74.5L229 78.25L227.25 80.25L221 86.5L216.75 89.75L213 92L209 94L204.5 95.5L201 96.25L199 96.5H193L189 96L187.5 95.75V146.75L187 147H183.5L182.25 146.25L180.25 143.5L177.25 138.25L174.75 133L173 127.25L172.25 123.5L171.75 118.75V116L172.5 109.25L173.25 105.75L175 100.75L177.25 96L179.75 92L183 88L185.25 85.5L186 84.75H186.5V84.25L191.5 80.5L196 77.75L199.25 76.25L207.25 74.25L210.25 73.75L213.75 73.5L214 73.25L211 72.75H203L198.5 73.5L193 75L188.5 77L185.75 78.5L182.75 80.5L180.25 82.5L177.25 85.25L175 87.5L173.25 90L171.25 93.25L168.75 99.5L167.25 104.75L166.25 109.5L165.5 116.75V125L166.25 130.5L168 135.25L170 139.25L172.25 143.5L174 146.25V146.75L173.25 147H157.25L156.5 146.25V96.5L153.5 97H146.5L142.5 96.25L137.5 94.5L132.5 92L129.25 89.75L125.75 86.75L120.75 81.75L119 79.75L117.25 78L115 75.25L112.25 72L109.5 68L107.5 65.25V64.75H107V64.25L113.25 63.5L119.75 62L126.25 60.25L132 59L134 58.75Z" fill="#6D6D6E"/>
<path d="M231.25 186.75H241.25L242.5 188L245 191L247.5 194.25L250.75 198.25L253.5 201.75L257 206.25L260.25 210.25L262 212.5L264.75 216L266.75 218.5H267.25L267 210V187L267.25 186.75H280L280.5 187.25L280.25 242.75L280 243H270L268.75 241.75L265.75 238.25L263.25 235L260.5 231.5L257.5 228L255 224.75L251.75 220.75L249.75 218.25L247.25 215L245 212.5L244.5 212V242.75L244.25 243H231.5L231.25 242.75V186.75Z" fill="#6D6D6E"/>
<path d="M62.75 186.75H101L101.25 188.5V198.25L100.25 198.75H75.5V209H97.25L97.5 209.25V219.5L97.25 219.75H75.5L75.75 221.5V228L75.5 231.25H101.5L101.75 231.5V242.75L101.5 243H62.5L62.25 242.75V187L62.75 186.75Z" fill="#6D6D6E"/>
<path d="M131.5 186.5H138.5L142.75 187.25L146.75 188.5L151 190.25L155 192.25L155.25 193L150.25 202.5L150 203.5L148.75 203.25L144.75 201L141 199.5L138.25 198.75L136.75 198.5H132L129.5 199.5L128.25 201L128 201.75V203.5L129 205L130.75 206.5L136 208.25L143.75 210.5L148.5 212.5L151 214L153.5 216.25L155.25 218.5L156.5 221.75L157 225.5V228.5L156.25 232L155.25 234.25L153.5 237L151 239.5L147.5 241.5L143.75 242.75L139.25 243.5H131.5L126.75 242.75L121.25 241.25L116.5 239.25L112.5 237.25L112 236L112.75 234.5L115.25 229.75L117.5 225.5H118.5L120.75 227L125.5 229.25L131.25 231L135.25 231.5L139 231.25L141 230.5L142.5 228.75L142.75 227L141.75 225.5V225L137.75 223L133 221.5L124 218.5L120.25 216.5L117.75 214.25L116.25 212.5L115 210L114.25 207.5V202L115.25 198.25L117 194.75L118.5 192.75H119L119.5 191.75L122.5 189.5L126 187.75L129.75 186.75L131.5 186.5Z" fill="#6D6D6E"/>
<path d="M186.75 186.75H197.75L198.25 187L200.25 193L204 203.25L209.25 217.75L211.5 223.75L214.25 231.5L217.25 239.5L218.25 242V243H205.25L204.5 242.5L201 232.25L200.25 230.5H183.5L180 241.25L179.25 242.75L179 243H166L165.75 242L167.75 237L171.75 226L173.75 220.75L176 214.25L179.5 204.75L184.25 191.5L185.75 187.5L186.75 186.75ZM192 203L190.75 205.5L187.75 214.5L185.75 220.25L185.5 221.25H198.25L198 219.75L196.75 216.5L193.5 206L192.75 203.5L192.5 203H192Z" fill="#6D6D6E"/>
<path d="M314 186.75H325L326 187.5L328.75 195.5L333.5 208.5L338.5 222.25L342 232L345.25 241L345.5 243H332.5L331.75 242L330.5 238L328.5 232L327.75 230.5H311.25L309.5 235.5L307 242.75L306.75 243H293.75L293.25 242.5L296 235.25L300.25 223.5L304.25 212.5L308.5 200.75L312.25 190.25L313.5 187.25L314 186.75ZM319 203.25L317 209.5L314.5 217L313 220.75V221.25H325.75L325.5 219.5L322 209.25L320.25 203.75L319.75 203.25H319Z" fill="#6D6D6E"/>
<path d="M1.75 186.75H48.25L48.5 187V198.5L48.25 198.75H31.5L31.75 242.75L31.5 243H18.75L18.5 242.75L18.25 198.75H2.75L1.5 198.5V187L1.75 186.75Z" fill="#6D6D6E"/>
<path d="M170.5 35.5H174L177 36.25L180 37.75L182.5 39.75L184.5 42.5L185.75 45L186.5 48V52L185.5 55.25L184 58.25L181.75 60.75L179 62.75L176.25 64L173.75 64.5H169.5L166 63.5L163.25 61.75L161.75 60.5L160.25 58.5L158.5 55L157.75 52V48.25L158.75 44.5L159.75 42.5L161.75 39.75L164 37.75L166.75 36.25L168.5 35.75L170.5 35.5Z" fill="#6D6D6E"/>
<path d="M203.75 117.25H206.75L208.25 118.25L209.5 119.75L209.75 120.5V122.75L208.5 124.75L207 126L206.5 126.25H203.75L202.25 125.25L201 123.75L200.5 122.75V121L201.5 119L203.25 117.5L203.75 117.25Z" fill="#6D6D6E"/>
<path d="M137.25 117.25H140L141.5 118L143 119.75L143.25 120.25V123L141.75 125L140.5 126L139.75 126.25H137.5L136 125.5L134.75 124.25L134.25 122.75V120.75L135 119L136.25 117.75L137.25 117.25Z" fill="#6D6D6E"/>
<path d="M161.75 0H162.25V0.5H161.75V0Z" fill="#6D6D6E"/>
</svg>
