<svg width="543" height="116" viewBox="0 0 543 116" fill="none" xmlns="http://www.w3.org/2000/svg">
<g clip-path="url(#clip0_211_3821)">
<mask id="mask0_211_3821" style="mask-type:luminance" maskUnits="userSpaceOnUse" x="0" y="0" width="543" height="116">
<path d="M543 0H0V116H543V0Z" fill="white"/>
</mask>
<g mask="url(#mask0_211_3821)">
<path d="M20.5001 19.5624C21.2529 19.6875 22.0058 19.8125 22.7814 19.9414C26.5517 21.7402 28.338 25.2538 29.776 29.046C30.5043 31.391 31.1624 33.7452 31.797 36.1171C32.0355 36.9743 32.274 37.8314 32.5197 38.7146C33.2733 41.432 34.0119 44.1533 34.7501 46.8749C35.2609 48.7268 35.7726 50.5783 36.2853 52.4296C37.5349 56.95 38.7711 61.4739 40.0001 65.9999C42.0805 61.3508 43.7393 56.81 45.1212 51.8945C45.5029 50.5682 45.8851 49.242 46.2677 47.916C46.8569 45.857 47.4419 43.7972 48.018 41.7346C48.5824 39.7218 49.163 37.7143 49.7462 35.707C50.0832 34.5156 50.4202 33.3243 50.7675 32.0969C52.3247 28.1845 54.2263 25.8869 58.0001 23.9999C63.2946 23.6528 66.7468 23.4757 71.0001 26.9999C73.7516 30.9582 75.1424 35.1244 76.4806 39.707C76.8072 40.7951 76.8072 40.7951 77.1403 41.9051C77.8292 44.2057 78.5086 46.509 79.1876 48.8124C79.6551 50.3797 80.1232 51.9467 80.5919 53.5136C81.7352 57.3403 82.8699 61.1694 84.0001 64.9999C86.3384 61.4925 87.2197 58.0277 88.2775 54.0078C88.7129 52.3997 89.1485 50.7916 89.5841 49.1835C90.2623 46.6541 90.9379 44.124 91.6112 41.5932C92.2644 39.1463 92.9267 36.702 93.59 34.2578C93.787 33.5055 93.9839 32.7533 94.1869 31.9782C96.7863 22.4324 96.7863 22.4324 101.125 19.6249C106.295 18.501 111.005 18.9328 115.688 21.4374C118.93 27.7673 113.882 38.1471 111.883 44.6171C111.585 45.5955 111.286 46.574 110.979 47.582C110.35 49.6382 109.72 51.6937 109.088 53.7485C108.13 56.8582 107.18 59.9698 106.231 63.082C104.757 67.9081 103.26 72.7269 101.756 77.5438C101.094 79.6943 100.46 81.8499 99.839 84.0126C99.5183 85.0835 99.1977 86.1544 98.8673 87.2578C98.6184 88.128 98.3694 88.9983 98.1129 89.895C96.6144 92.7297 94.8411 93.6091 92.0001 94.9999C87.2469 96.1901 83.2107 96.4181 78.5626 94.8124C73.5976 91.3006 72.1861 87.116 70.5548 81.4257C70.3395 80.7013 70.1241 79.9769 69.9023 79.2305C69.2187 76.9267 68.5463 74.6198 67.8751 72.3124C67.195 69.9949 66.5126 67.6781 65.8266 65.3623C65.401 63.9233 64.979 62.4832 64.5611 61.042C63.7854 57.7531 63.7854 57.7531 62.0001 54.9999C61.7182 56.0037 61.4362 57.0075 61.1456 58.0417C60.0916 61.7818 59.0218 65.5173 57.9474 69.2517C57.4855 70.8654 57.0277 72.4803 56.5744 74.0964C55.9201 76.4257 55.2507 78.7501 54.5783 81.0742C54.3802 81.7921 54.1821 82.51 53.978 83.2496C52.6968 87.6097 51.1642 90.7228 48.0001 93.9999C43.6308 96.039 39.7857 96.4272 35.0001 95.9999C30.7351 94.3595 28.4524 92.8105 26.0001 88.9999C24.956 86.2815 24.956 86.2815 24.0072 83.1332C23.6471 81.9517 23.2869 80.7701 22.9159 79.5527C22.5334 78.267 22.1513 76.9812 21.7697 75.6953C21.3709 74.37 20.9716 73.0449 20.5718 71.7199C19.737 68.9458 18.9081 66.1701 18.0834 63.393C17.0287 59.8434 15.9594 56.2984 14.8854 52.7546C14.0584 50.0196 13.2393 47.2824 12.4226 44.5444C12.0315 43.2368 11.638 41.9299 11.242 40.6238C10.6882 38.7934 10.1463 36.9595 9.60487 35.1254C9.29415 34.0849 8.98343 33.0444 8.66329 31.9724C7.96731 28.8528 7.75554 26.1851 8.00013 22.9999C11.6095 19.2617 15.533 18.6184 20.5001 19.5624Z" fill="#6D6D6E"/>
<path d="M362.453 21.3594C366.307 25.3552 368.011 30.0425 370.125 35.125C370.595 36.2236 371.065 37.3222 371.55 38.4541C373.047 41.9635 374.525 45.481 376 49C377.463 52.4651 378.929 55.9292 380.395 59.3933C381.333 61.6147 382.268 63.8375 383.199 66.0618C385.979 72.6869 388.889 79.188 392.172 85.582C393.18 88.527 393.049 90.0845 392 93C387.311 96.1263 382.484 95.6892 377 95C373.516 93.5482 371.634 91.3135 369.98 87.8867C369.23 85.9572 368.604 83.9802 368 82C367.01 82.495 367.01 82.495 366 83C363.893 83.0164 361.785 82.9643 359.68 82.8789C358.423 82.8306 357.166 82.7822 355.871 82.7324C354.552 82.6763 353.234 82.6203 351.875 82.5625C350.535 82.5093 349.195 82.4565 347.855 82.4043C344.57 82.2743 341.285 82.1393 338 82C337.511 83.0306 337.511 83.0306 337.012 84.082C336.575 84.9831 336.138 85.8841 335.688 86.8125C335.258 87.7058 334.829 88.5991 334.387 89.5195C332.686 92.5608 331.342 94.5961 327.949 95.6172C322.719 96.2134 319.581 95.9774 315 93C314.67 92.67 314.34 92.34 314 92C314.335 85.4643 316.914 80.1929 319.625 74.3125C320.621 72.1098 321.613 69.9052 322.602 67.6992C322.867 67.1068 323.133 66.5143 323.406 65.9039C325.682 60.7918 327.833 55.6322 329.961 50.457C330.463 49.2371 330.463 49.2371 330.976 47.9924C332.32 44.7262 333.661 41.4594 334.99 38.1869C335.924 35.885 336.868 33.5868 337.812 31.2891C338.09 30.5964 338.368 29.9037 338.654 29.19C341.16 23.1311 341.16 23.1311 344 21C350.249 18.5003 356.481 18.0502 362.453 21.3594ZM352 43C350.828 46.2899 349.663 49.5822 348.5 52.875C348.166 53.8121 347.832 54.7493 347.488 55.7148C347.015 57.0587 347.015 57.0587 346.531 58.4297C346.238 59.2571 345.945 60.0845 345.643 60.937C344.901 62.9581 344.901 62.9581 345 65C350.28 65 355.56 65 361 65C359.049 57.4891 356.763 50.2508 354 43C353.34 43 352.68 43 352 43Z" fill="#6D6D6E"/>
<path d="M444.75 37.5624C452.738 42.2738 457.86 49.0404 460.59 57.9179C462.403 67.1246 460.914 76.7995 455.875 84.7499C451.583 90.2352 444.819 94.6361 438 95.9999C430.42 96.7591 424.623 95.8351 418 91.9999C417.505 91.5049 417.505 91.5049 417 90.9999C416.985 91.6507 416.971 92.3014 416.956 92.9719C416.881 95.9193 416.785 98.8656 416.687 101.813C416.665 102.837 416.642 103.861 416.619 104.916C416.584 105.899 416.548 106.882 416.512 107.895C416.485 108.801 416.459 109.707 416.432 110.64C415.922 113.426 415.272 114.347 413 116C409.969 116.398 409.969 116.398 406.5 116.375C404.783 116.387 404.783 116.387 403.031 116.398C400 116 400 116 398.335 114.81C396.514 112.341 396.619 110.699 396.612 107.646C396.602 106.551 396.593 105.456 396.583 104.327C396.589 103.143 396.595 101.959 396.601 100.738C396.599 99.5185 396.596 98.2987 396.593 97.042C396.591 94.4571 396.596 91.8722 396.609 89.2873C396.625 85.3455 396.609 81.4046 396.59 77.4628C396.592 74.9505 396.596 72.4381 396.601 69.9257C396.595 68.7515 396.589 67.5773 396.583 66.3674C396.664 56.8368 398.296 49.9749 404.894 42.8281C415.384 33.7199 432.236 31.6437 444.75 37.5624ZM418 55.9999C415.163 60.3839 415.338 65.953 416 70.9999C418.069 75.1379 419.751 77.2724 424 78.9999C428.71 79.7365 432.17 79.4224 436.437 77.2499C439.595 74.4775 440.793 72.5885 441.336 68.414C441.419 62.4498 441.242 58.5955 437 53.9999C430.531 50.0889 423.556 50.9857 418 55.9999Z" fill="#6D6D6E"/>
<path d="M257.937 14.5625C258.978 14.5432 260.018 14.5238 261.09 14.5039C264 15 264 15 266.332 16.3555C268.986 20.5627 268.679 24.8724 268.75 29.75C268.78 30.7336 268.809 31.7171 268.84 32.7305C268.91 35.1537 268.963 37.576 269 40C269.654 39.6158 270.309 39.2316 270.983 38.8357C278.329 34.6235 284.463 33.6417 292.707 35.6641C298.754 37.7491 302.621 40.576 306 46C308.66 52.0123 309.44 57.6027 309.363 64.1211C309.364 65.3601 309.364 65.3601 309.365 66.624C309.362 68.3509 309.353 70.0777 309.336 71.8044C309.312 74.4552 309.316 77.105 309.322 79.7559C309.317 81.4401 309.31 83.1244 309.301 84.8086C309.302 85.9976 309.302 85.9976 309.304 87.2106C309.231 92.7689 309.231 92.7689 307 95C303.883 95.3359 303.883 95.3359 300.125 95.375C298.89 95.4034 297.655 95.4317 296.383 95.4609C293 95 293 95 290.82 93.4221C288.336 90.1161 288.502 87.8939 288.496 83.7852C288.487 83.0924 288.477 82.3996 288.468 81.6859C288.439 79.4778 288.436 77.2708 288.437 75.0625C288.434 72.858 288.424 70.6542 288.397 68.4498C288.372 66.4472 288.37 64.4444 288.369 62.4417C287.977 58.7866 287.224 56.8941 285 54C280.973 52.4316 277.078 52.6102 273.062 54.0625C269.686 57.2341 269.091 60.8601 268.729 65.3875C268.716 66.5938 268.704 67.8001 268.691 69.043C268.666 70.377 268.641 71.7109 268.615 73.0449C268.586 75.1252 268.562 77.2055 268.544 79.2859C268.522 81.3093 268.482 83.3324 268.441 85.3555C268.428 86.5584 268.414 87.7613 268.401 89.0007C268 92 268 92 266.646 93.8882C264.149 95.5746 262.04 95.4338 259.062 95.4375C258.022 95.4568 256.982 95.4762 255.91 95.4961C252.22 94.867 251.264 93.9538 249 91C248.499 87.7678 248.499 87.7678 248.498 83.8923C248.493 83.1846 248.487 82.4768 248.482 81.7476C248.469 79.4133 248.486 77.0803 248.504 74.7461C248.504 73.1223 248.502 71.4985 248.499 69.8748C248.498 66.4744 248.511 63.0744 248.533 59.6741C248.562 55.3136 248.559 50.9538 248.546 46.5932C248.539 43.2415 248.547 39.8899 248.56 36.5382C248.564 34.9302 248.564 33.3222 248.561 31.7142C248.558 29.4685 248.574 27.2238 248.596 24.9783C248.601 23.7002 248.607 22.4221 248.612 21.1052C249 18 249 18 250.352 16.091C252.854 14.4348 254.97 14.5662 257.937 14.5625Z" fill="#6D6D6E"/>
<path d="M517.367 38.6796C523.156 41.5828 527.647 47.2979 529.937 53.3124C532.659 62.758 532.955 70.7605 529 79.9999C525.036 86.9523 519.342 91.8769 512.187 95.3749C503.1 97.1567 496.32 95.8347 488 91.9999C487.67 91.9999 487.34 91.9999 487 91.9999C487.021 92.5848 487.042 93.1697 487.063 93.7724C487.147 96.4314 487.199 99.0901 487.25 101.75C487.283 102.67 487.317 103.591 487.351 104.539C487.449 111.285 487.449 111.285 485.359 114.609C482.392 116.358 480.435 116.534 477 116.5C475.453 116.515 475.453 116.515 473.875 116.531C470.279 115.867 469.277 114.815 467 112C466.485 109.556 466.485 109.556 466.466 106.795C466.451 105.756 466.435 104.717 466.418 103.647C466.423 102.527 466.428 101.408 466.433 100.254C466.427 99.0917 466.421 97.9296 466.415 96.7323C466.407 94.2686 466.411 91.8047 466.423 89.341C466.437 85.6072 466.403 81.876 466.365 78.1425C466.322 64.6985 466.329 53.5068 474 41.9999C478.935 41.4615 482.75 42.1126 487.5 43.4999C495.651 45.8433 501.085 45.3581 508.898 41.8749C511 40.9999 511 40.9999 513 40.9999C513 40.3399 513 39.6799 513 38.9999C515 37.9999 515 37.9999 517.367 38.6796ZM489 54.9999C486.339 59.7702 485.333 63.5707 486 68.9999C487.302 72.673 488.512 76.0331 491.863 78.2109C496.521 79.9309 501.358 79.7136 505.875 77.7499C509.579 74.6991 511.106 72.5094 511.875 67.7499C512.254 62.9664 511.473 59.1313 509 54.9999C505.922 52.0156 503.134 51.7847 499 51.6249C494.873 51.7782 492.113 52.0757 489 54.9999Z" fill="#6D6D6E"/>
<path d="M155.687 36.9375C156.78 37.6181 157.874 38.2987 159 39C159.66 39.33 160.32 39.66 161 40C161.495 39.3606 161.99 38.7212 162.5 38.0625C165.858 35.2922 168.707 34.9061 173 35C176.216 35.9089 177.64 36.6404 180 39C180.319 41.0935 180.319 41.0935 180.414 43.7148C180.453 44.6988 180.492 45.6827 180.532 46.6965C180.563 47.766 180.593 48.8355 180.625 49.9375C180.661 51.036 180.696 52.1345 180.733 53.2663C180.839 56.844 180.923 60.4216 181 64C181.028 65.241 181.057 66.4821 181.087 67.7607C181.162 71.4447 181.211 75.1279 181.25 78.8125C181.271 79.968 181.293 81.1236 181.315 82.3142C181.319 83.3926 181.323 84.4709 181.328 85.582C181.337 86.5331 181.347 87.4842 181.356 88.4641C180.935 91.4611 180.059 92.8147 178 95C173.626 96.5246 169.814 96.2908 165.5 94.75C163 93 163 93 162 90C161.457 90.3493 160.914 90.6986 160.355 91.0586C159.64 91.5136 158.924 91.9686 158.187 92.4375C157.126 93.1162 157.126 93.1162 156.043 93.8086C150.493 97.0449 144.214 96.6165 138 96C130.281 93.6259 123.976 88.7907 119.719 81.9375C115.264 73.028 115.11 63.4217 118 54C120.798 46.2768 125.815 40.3853 133.125 36.5625C140.291 33.7329 148.724 33.4813 155.687 36.9375ZM139 55C136.334 59.7795 135.417 63.5601 136 69C137.202 72.7949 138.172 75.2453 141.125 77.9375C145.174 79.4339 148.737 79.683 153 79C157.088 76.9186 159.315 75.2427 161 71C161.74 65.1747 161.557 59.8619 158 55C152.163 50.9278 144.617 50.0245 139 55Z" fill="#6D6D6E"/>
<path d="M233 38.0001C236.125 40.2501 236.125 40.2501 238 43.0001C238.635 47.0239 238.65 49.0255 236.375 52.4376C233.211 54.519 231.758 54.4965 228 54.0001C226.534 53.524 225.076 53.0219 223.625 52.5001C219.186 50.9077 215.699 50.6703 211 51.0001C210.34 51.3301 209.68 51.6601 209 52.0001C209 52.9901 209 53.9801 209 55.0001C210.468 55.381 210.468 55.381 211.965 55.7696C215.361 56.6558 218.747 57.574 222.132 58.5005C223.666 58.9107 225.209 59.2864 226.754 59.6524C233.007 61.3162 236.285 64.7926 240 70.0001C241.879 73.7582 241.509 77.9075 241 82.0001C238.817 88.167 234.869 91.1831 229.184 94.0899C220.322 97.7837 207.674 97.3806 198.688 94.2501C194.997 92.6289 191.701 91.0612 189 88.0001C187.938 85.1251 187.938 85.1251 188 82.0001C189.643 78.6504 190.833 76.6002 194.188 74.8751C197.893 75.0398 200.55 76.4202 203.867 78.0079C209.259 80.516 215.361 80.8796 221 79.0001C220.505 77.0201 220.505 77.0201 220 75.0001C219.138 74.8043 219.138 74.8043 218.259 74.6045C215.628 73.9991 213.002 73.3748 210.375 72.7501C209.471 72.5451 208.568 72.3401 207.637 72.129C200.911 70.5088 196.464 68.5942 191.625 63.5001C189.229 58.3388 189.239 53.5963 190 48.0001C192.793 42.207 196.95 38.6403 202.875 36.2501C212.344 33.3731 224.006 33.6935 233 38.0001Z" fill="#6D6D6E"/>
<path d="M528 3C527.781 15.3229 524.913 26.9863 516 36C509.473 41.3454 503.329 44.4324 494.75 43.6875C491.956 43.3535 489.685 42.8949 487 42C487.543 37.5999 489.13 34.9782 491.75 31.4375C492.425 30.5081 493.101 29.5787 493.797 28.6211C495.994 26.0069 498.265 24.0319 501 22C494.712 26.1408 489.386 29.6541 486 36.5312C485.67 37.0159 485.34 37.5006 485 38C484.01 38 483.02 38 482 38C481.505 37.505 481.505 37.505 481 37C481 37.99 481 38.98 481 40C474.722 40.5022 471.041 40.2007 466 36C462.234 32.6964 461.168 28.7677 460 24C459.812 20.4375 459.812 20.4375 460 18C463.784 18.6898 467.397 19.6493 471.062 20.8125C472.085 21.1283 473.107 21.4441 474.16 21.7695C477.239 23.1036 478.876 24.4242 481 27C481.33 27.99 481.66 28.98 482 30C482.159 29.3477 482.317 28.6955 482.48 28.0234C484.231 21.4677 485.891 16.6629 491.82 12.8203C499.925 8.46598 508.51 7.6072 517.512 6.66016C521.302 5.94276 524.35 3 528 3Z" fill="#6D6D6E"/>
<path d="M509.941 8.90234C511.734 8.91975 511.734 8.91975 513.562 8.9375C515.359 8.95104 515.359 8.95104 517.191 8.96484C518.118 8.97645 519.045 8.98805 520 9C520 9.66 520 10.32 520 11C519.34 11 518.68 11 518 11C518 11.66 518 12.32 518 13C520.31 13.33 522.62 13.66 525 14C526.587 18.8077 525.274 21.4527 523.062 25.875C519.208 33.3849 514.863 37.8226 507.562 41.9375C503.247 43.2246 499.463 43.2732 495 43C495.99 42.34 496.98 41.68 498 41C497.01 41 496.02 41 495 41C495.495 36.545 495.495 36.545 496 32C498.64 31.34 501.28 30.68 504 30C502.68 29.01 501.36 28.02 500 27C500.928 26.6906 500.928 26.6906 501.875 26.375C504.847 24.4522 505.13 22.3341 506 19C505.051 19.2063 504.102 19.4125 503.125 19.625C502.094 19.7487 501.062 19.8725 500 20C498 18 498 18 497.812 14.9375C498 12 498 12 499 11C501.333 10.6667 503.667 10.3333 506 10C507 9 507 9 509.941 8.90234Z" fill="#6D6D6E"/>
<path d="M257.937 14.5625C258.978 14.5432 260.018 14.5238 261.09 14.5039C264 15 264 15 266.363 16.3242C269.042 20.7028 268.415 25.2351 268.25 30.25C268.232 31.2812 268.214 32.3125 268.195 33.375C268.148 35.9176 268.082 38.4583 268 41C267.67 41 267.34 41 267 41C266.98 40.4349 266.96 39.8698 266.94 39.2876C266.845 36.7329 266.735 34.1791 266.625 31.625C266.594 30.7355 266.563 29.8461 266.531 28.9297C266.493 28.0789 266.454 27.2281 266.414 26.3516C266.367 25.1733 266.367 25.1733 266.319 23.9712C266.16 21.77 266.16 21.77 264 20C261.636 19.5374 261.636 19.5374 259 19.375C257.67 19.2629 257.67 19.2629 256.312 19.1484C254.877 19.0563 253.438 19 252 19C252.015 19.8725 252.029 20.745 252.045 21.644C252.183 29.8549 252.316 38.0659 252.443 46.277C252.509 50.4987 252.576 54.7203 252.648 58.9419C252.717 63.0137 252.782 67.0856 252.843 71.1575C252.867 72.7133 252.893 74.2691 252.921 75.8248C252.959 77.9989 252.991 80.173 253.022 82.3472C253.042 83.5863 253.062 84.8254 253.082 86.102C253 89 253 89 252 91C255.96 91.33 259.92 91.66 264 92C264.02 91.0714 264.04 90.1428 264.06 89.186C264.138 85.7455 264.225 82.3054 264.317 78.8652C264.356 77.3754 264.391 75.8855 264.422 74.3955C264.467 72.2555 264.525 70.1162 264.586 67.9766C264.617 66.6883 264.649 65.4 264.681 64.0728C265 61 265 61 267 59C267.65 57.7934 267.65 57.7934 268.312 56.5625C270.35 53.4685 271.584 52.4537 275 51C277.6 50.6145 280.17 50.3761 282.793 50.2109C285.04 50.1298 285.04 50.1298 287 49C288.625 52.3125 288.625 52.3125 290 56C289.34 56.99 288.68 57.98 288 59C287.691 58.1956 287.381 57.3913 287.062 56.5625C284.73 53.6652 284.15 53.5103 280.625 53C277.593 52.8373 275.967 53.0121 273.062 54.0625C269.686 57.2341 269.091 60.8601 268.729 65.3875C268.716 66.5938 268.704 67.8001 268.691 69.043C268.666 70.377 268.641 71.7109 268.615 73.0449C268.586 75.1252 268.562 77.2055 268.544 79.2859C268.522 81.3093 268.482 83.3324 268.441 85.3555C268.428 86.5584 268.414 87.7613 268.401 89.0007C268 92 268 92 266.646 93.8882C264.149 95.5746 262.04 95.4338 259.062 95.4375C258.022 95.4568 256.982 95.4762 255.91 95.4961C252.22 94.867 251.264 93.9538 249 91C248.499 87.7678 248.499 87.7678 248.498 83.8923C248.493 83.1846 248.487 82.4768 248.482 81.7476C248.469 79.4133 248.486 77.0803 248.504 74.7461C248.504 73.1223 248.502 71.4985 248.499 69.8748C248.498 66.4744 248.511 63.0744 248.533 59.6741C248.562 55.3136 248.559 50.9538 248.546 46.5932C248.539 43.2415 248.547 39.8899 248.56 36.5382C248.564 34.9302 248.564 33.3222 248.561 31.7142C248.558 29.4685 248.574 27.2238 248.596 24.9783C248.601 23.7002 248.607 22.4221 248.612 21.1052C249 18 249 18 250.352 16.091C252.854 14.4348 254.97 14.5662 257.937 14.5625Z" fill="#6D6D6E"/>
<path d="M155.687 36.9374C156.78 37.618 157.874 38.2987 159 38.9999C159.66 39.3299 160.32 39.6599 161 39.9999C161.495 39.3605 161.99 38.7212 162.5 38.0624C165.858 35.2922 168.707 34.906 173 34.9999C176.216 35.9088 177.64 36.6403 180 38.9999C180.319 40.9711 180.319 40.9711 180.414 43.3515C180.452 44.2023 180.491 45.053 180.531 45.9296C180.562 46.8191 180.593 47.7085 180.625 48.6249C180.663 49.5221 180.702 50.4193 180.742 51.3437C180.836 53.5622 180.922 55.7807 181 57.9999C180.34 57.6699 179.68 57.3399 179 56.9999C178.67 51.3899 178.34 45.7799 178 39.9999C175.03 39.9999 172.06 39.9999 169 39.9999C168.67 40.9899 168.34 41.9799 168 42.9999C166.68 42.9999 165.36 42.9999 164 42.9999C163.67 43.6599 163.34 44.3199 163 44.9999C160.525 44.5049 160.525 44.5049 158 43.9999C157.505 42.5149 157.505 42.5149 157 40.9999C144.104 38.3461 144.104 38.3461 131.812 41.9999C127.877 44.6705 125.627 48.0586 123.226 52.1093C122 53.9999 122 53.9999 120 54.9999C120.094 67.5585 120.094 67.5585 124.144 79.2616C125.273 81.5558 125.324 83.4866 125 85.9999C126.114 86.1855 126.114 86.1855 127.25 86.3749C129.801 86.9548 131.727 87.737 134 88.9999C134 89.6599 134 90.3199 134 90.9999C135.98 90.5049 135.98 90.5049 138 89.9999C138 90.6599 138 91.3199 138 91.9999C139.625 92.1678 141.25 92.3342 142.875 92.4999C144.232 92.6391 144.232 92.6391 145.617 92.7812C147.933 93.0304 147.933 93.0304 150 92.9999C150.577 92.5049 151.155 92.0099 151.75 91.4999C154.637 89.5749 156.6 89.7681 160 89.9999C156.403 93.9967 153.382 95.7033 148.019 96.371C138.193 96.5745 131.434 94.393 124.125 87.7499C117.906 80.945 115.884 73.0931 116 63.9999C116.895 54.6856 120.113 46.9382 127.035 40.5429C135.125 34.1896 146.244 32.25 155.687 36.9374Z" fill="#6D6D6E"/>
<path d="M115.688 21.4374C118.892 27.6942 113.979 37.7777 111.961 44.164C111.675 45.0821 111.389 46.0002 111.095 46.9461C110.193 49.8405 109.284 52.7328 108.375 55.6249C107.757 57.6027 107.14 59.5805 106.523 61.5585C105.021 66.374 103.512 71.1875 102 75.9999C100.515 75.5049 100.515 75.5049 99 74.9999C99.1444 74.4431 99.2887 73.8862 99.4375 73.3124C99.8026 71.8117 100.128 70.3005 100.406 68.7812C101.104 65.5125 102.064 62.3768 103.062 59.1874C103.425 58.026 103.787 56.8646 104.16 55.6679C104.576 54.3473 104.576 54.3473 105 52.9999C105.33 52.9999 105.66 52.9999 106 52.9999C106.17 51.9958 106.34 50.9916 106.516 49.957C108.077 41.0479 110.104 32.5854 113 23.9999C109.457 22.0943 107.07 21.3937 103 21.9999C100.543 24.7956 100.026 26.817 99.5 30.4999C99 33.9999 99 33.9999 97.5898 36.1796C95.5026 39.8822 94.8672 43.4834 94.0625 47.6249C90.1883 66.1151 90.1883 66.1151 86 69.7226C84 70.9999 84 70.9999 82 71.9999C80.683 67.9389 79.3722 63.8759 78.0625 59.8124C77.6893 58.662 77.3161 57.5115 76.9316 56.3261C76.5739 55.2143 76.2162 54.1025 75.8477 52.957C75.5177 51.9358 75.1878 50.9146 74.8479 49.8625C74.0743 47.2508 73.4841 44.6786 73 41.9999C73.66 41.9999 74.32 41.9999 75 41.9999C75.33 41.0099 75.66 40.0199 76 38.9999C78.64 47.5799 81.28 56.1599 84 64.9999C86.3383 61.4925 87.2196 58.0277 88.2773 54.0078C88.7128 52.3997 89.1483 50.7916 89.584 49.1835C90.2621 46.6541 90.9378 44.124 91.6111 41.5932C92.2642 39.1463 92.9266 36.702 93.5898 34.2578C93.7868 33.5055 93.9838 32.7533 94.1868 31.9782C96.7862 22.4324 96.7862 22.4324 101.125 19.6249C106.295 18.501 111.005 18.9328 115.688 21.4374Z" fill="#6D6D6E"/>
<path d="M297.773 37.6797C303.759 41.2288 306.348 46.1026 308.398 52.5647C309.354 56.4331 309.41 60.1534 309.363 64.1211C309.364 65.36 309.364 65.36 309.365 66.624C309.362 68.3508 309.353 70.0777 309.336 71.8044C309.312 74.4552 309.316 77.105 309.322 79.7558C309.317 81.4401 309.31 83.1243 309.301 84.8086C309.302 85.9975 309.302 85.9975 309.304 87.2105C309.231 92.7689 309.231 92.7689 307 95C303.883 95.3359 303.883 95.3359 300.125 95.375C298.89 95.4033 297.655 95.4317 296.383 95.4609C293 95 293 95 290.82 93.415C288.35 90.1372 288.498 87.9758 288.504 83.8984C288.502 83.2207 288.501 82.5431 288.499 81.8449C288.501 80.4177 288.513 78.9905 288.533 77.5634C288.563 75.3749 288.554 73.1887 288.541 71C288.547 69.6119 288.556 68.2239 288.566 66.8359C288.576 65.5731 288.586 64.3103 288.596 63.0093C288.729 62.0162 288.863 61.0231 289 60C289.99 59.34 290.98 58.68 292 58C292.75 61.979 293.103 65.6845 293.027 69.7304C293.009 71.3054 293.009 71.3054 292.99 72.9121C292.955 75.1075 292.916 77.3028 292.873 79.498C292.862 80.5441 292.851 81.5902 292.84 82.6679C292.815 84.0953 292.815 84.0953 292.789 85.5515C292.824 88.2579 292.824 88.2579 295 91C297.437 91.3641 297.437 91.3641 300.125 91.1875C301.035 91.1604 301.945 91.1333 302.883 91.1054C303.581 91.0706 304.28 91.0358 305 91C305.896 87.309 306 84.2711 305.625 80.5C304.995 73.4519 304.67 66.4061 304.393 59.3359C304.199 54.812 303.881 50.4553 303 46C302.01 45.67 301.02 45.34 300 45C299.381 44.34 298.763 43.68 298.125 43C293.931 39.0526 287.911 39.7876 282.438 39.75C281.683 39.7293 280.928 39.7087 280.15 39.6875C276.736 39.6634 274.437 39.7377 271.473 41.5156C270.987 42.0054 270.501 42.4953 270 43C270 41.68 270 40.36 270 39C279.272 33.872 288.025 33.2542 297.773 37.6797Z" fill="#6D6D6E"/>
<path d="M362.531 21.5507C365.725 24.7188 367.172 27.9491 368.875 32.0625C369.195 32.7824 369.514 33.5023 369.844 34.2441C372.132 39.6026 372.132 39.6026 371 43C369 40 369 40 369 37C368.01 36.67 367.02 36.34 366 36C364.684 33.5312 364.684 33.5312 363.438 30.5C362.064 26.4921 362.064 26.4921 359 24C357.377 23.9038 355.751 23.8701 354.125 23.875C353.261 23.8724 352.398 23.8698 351.508 23.8671C348.153 24.0049 348.153 24.0049 345 25C343.713 27.2398 343.713 27.2398 342.875 29.9375C341.172 34.8278 341.172 34.8278 339 37C338.835 38.155 338.67 39.31 338.5 40.5C338 44 338 44 336 46C335.325 47.4994 334.707 49.0248 334.125 50.5625C332.496 54.7773 330.731 58.8925 328.832 62.9921C327.946 64.9788 327.946 64.9788 327.504 67.0937C327 69 327 69 325.125 71.625C322.87 75.2071 321.814 78.3889 320.711 82.4375C319.911 85.3223 318.947 88.1598 318 91C322.62 91 327.24 91 332 91C332.66 88.03 333.32 85.06 334 82C334.99 82 335.98 82 337 82C336.354 87.4887 333.924 91.2956 329.812 94.9375C325.72 96.4835 322.202 96.0584 318 95C315.438 93.4375 315.438 93.4375 314 92C314.488 85.4431 316.892 80.2404 319.625 74.3125C320.621 72.1097 321.613 69.9052 322.602 67.6992C322.867 67.1067 323.133 66.5143 323.406 65.9039C325.682 60.7918 327.833 55.6321 329.961 50.457C330.463 49.237 330.463 49.237 330.976 47.9924C332.32 44.7262 333.661 41.4594 334.99 38.1869C335.924 35.8849 336.868 33.5868 337.812 31.289C338.09 30.5963 338.368 29.9036 338.654 29.19C341.16 23.1311 341.16 23.1311 344 21C350.27 18.4921 356.656 17.9513 362.531 21.5507Z" fill="#6D6D6E"/>
<path d="M233 38.0001C236.125 40.2501 236.125 40.2501 238 43.0001C238.635 47.0239 238.65 49.0255 236.375 52.4376C233.211 54.519 231.759 54.4965 228 54.0001C226.534 53.524 225.076 53.0219 223.625 52.5001C219.186 50.9077 215.699 50.6703 211 51.0001C210.34 51.3301 209.68 51.6601 209 52.0001C209 53.3201 209 54.6401 209 56.0001C208.34 56.0001 207.68 56.0001 207 56.0001C206.813 53.1251 206.813 53.1251 207 50.0001C207.99 49.3401 208.98 48.6801 210 48.0001C210 47.6701 210 47.3401 210 47.0001C216.766 46.8862 223.289 47.1198 230 48.0001C230 48.6601 230 49.3201 230 50.0001C231.32 49.6701 232.64 49.3401 234 49.0001C234.33 47.3501 234.66 45.7001 235 44.0001C227.538 39.756 220.469 39.2289 212 39.0001C211.14 38.9601 210.281 38.9201 209.395 38.879C207.065 38.7752 207.065 38.7752 204 39.0001C203.34 39.6601 202.68 40.3201 202 41.0001C200.348 42.0231 198.682 43.0262 197 44.0001C197.33 44.9901 197.66 45.9801 198 47.0001C197.34 47.4538 196.68 47.9076 196 48.3751C193.304 51.914 193.72 54.434 193.957 58.7579C194 61.0001 194 61.0001 193 63.0001C193.516 63.1032 194.031 63.2063 194.563 63.3126C197 64.0001 197 64.0001 200.125 65.4376C203.828 67.0787 207.519 67.7437 211.488 68.461C215.176 69.2523 218.512 70.5789 222 72.0001C221.67 72.9901 221.34 73.9801 221 75.0001C217.62 74.2706 214.248 73.5129 210.875 72.7501C209.924 72.5451 208.972 72.3401 207.992 72.129C201.073 70.5433 196.588 68.7242 191.625 63.5001C189.229 58.3388 189.239 53.5963 190 48.0001C192.793 42.207 196.95 38.6403 202.875 36.2501C212.344 33.3731 224.006 33.6935 233 38.0001Z" fill="#6D6D6E"/>
<path d="M20.5001 19.5624C21.2529 19.6875 22.0057 19.8125 22.7813 19.9413C26.5305 21.7301 28.3154 25.2461 29.7828 29.0048C30.5207 31.2927 31.1888 33.5899 31.8321 35.9062C32.073 36.7491 32.3138 37.592 32.562 38.4605C33.0655 40.234 33.5635 42.0091 34.0565 43.7856C34.8116 46.4963 35.5911 49.1992 36.3731 51.9023C36.8609 53.6323 37.3473 55.3628 37.8321 57.0937C38.0653 57.8969 38.2985 58.7002 38.5388 59.5279C39.7715 64.0508 40.2116 67.3417 39.0001 71.9999C36.0484 68.5116 34.0001 64.6658 34.0001 59.9999C33.6701 59.3399 33.3401 58.6799 33.0001 57.9999C33.0001 57.0099 33.0001 56.0199 33.0001 54.9999C32.4383 52.9669 31.8272 50.9473 31.1876 48.9374C30.8228 47.7785 30.458 46.6197 30.0821 45.4257C29.5465 43.7299 29.5465 43.7299 29.0001 41.9999C28.4543 40.2095 27.9121 38.418 27.3751 36.6249C27.1366 35.8347 26.8981 35.0445 26.6524 34.2304C26.2283 32.7805 25.8236 31.3247 25.4415 29.8632C25.0135 28.2275 24.5141 26.6107 24.0001 24.9999C21.5946 23.7972 20.0501 23.8992 17.3751 23.9374C16.5578 23.9464 15.7405 23.9555 14.8985 23.9648C14.272 23.9764 13.6455 23.988 13.0001 23.9999C11.4758 27.9208 12.6086 30.5668 13.9376 34.4374C16.011 40.5031 16.011 40.5031 15.9415 43.6601C15.7725 46.0567 15.7725 46.0567 17.336 47.7499C19.8523 51.1523 20.5749 54.9419 21.6251 58.9999C21.8416 59.8069 22.0582 60.6138 22.2813 61.4452C23.0513 64.3254 23.8096 67.2063 24.5054 70.1054C24.9922 72.1311 24.9922 72.1311 26.0001 74.4999C27.4559 79.5953 27.6758 84.7266 28.0001 89.9999C26.0001 88.9999 26.0001 88.9999 25.0762 86.6422C24.7609 85.5966 24.4455 84.5511 24.1207 83.4738C23.7604 82.292 23.4002 81.1102 23.0291 79.8926C22.6414 78.5912 22.2541 77.2898 21.8672 75.9882C21.467 74.6586 21.0663 73.3292 20.6651 72C19.8246 69.2079 18.9897 66.4142 18.1588 63.6193C17.0959 60.0461 16.0188 56.4775 14.9372 52.91C14.1059 50.1622 13.2825 47.412 12.4615 44.6612C12.0676 43.3452 11.6713 42.0299 11.2725 40.7155C10.7139 38.8704 10.167 37.0218 9.62067 35.173C9.30693 34.1235 8.99319 33.0739 8.66995 31.9925C7.96968 28.8642 7.75333 26.1944 8.00006 22.9999C11.6094 19.2616 15.533 18.6183 20.5001 19.5624Z" fill="#6D6D6E"/>
<path d="M428.75 34.75C429.536 34.7294 430.323 34.7088 431.133 34.6875C436.497 34.6519 440.289 35.361 445 38C445.495 39.485 445.495 39.485 446 41C439.439 40.1169 439.439 40.1169 437.027 39.4754C433.397 38.6243 429.712 38.8155 426 38.8125C425.193 38.8003 424.386 38.7881 423.555 38.7754C422.773 38.7735 421.992 38.7716 421.187 38.7696C420.48 38.7655 419.772 38.7614 419.043 38.7571C416.625 39.0446 415.069 39.7274 413 41C412.01 42.2685 412.01 42.2685 411 43.5625C409 46 409 46 406.875 46.5C406.256 46.665 405.637 46.83 405 47C400.468 55.056 400.725 64.9716 400.805 73.9102C400.807 75.1182 400.81 76.3263 400.813 77.5709C400.824 81.4016 400.849 85.232 400.875 89.0625C400.885 91.6713 400.894 94.28 400.902 96.8887C400.924 103.259 400.958 109.63 401 116C399.031 114.835 399.031 114.835 397 113C396.499 110.567 396.499 110.567 396.498 107.646C396.489 106.551 396.479 105.456 396.47 104.327C396.481 103.143 396.492 101.959 396.504 100.738C396.502 99.5186 396.501 98.2988 396.499 97.0421C396.501 94.4572 396.513 91.8722 396.533 89.2874C396.562 85.3455 396.554 81.4049 396.541 77.4629C396.547 74.9506 396.556 72.4382 396.566 69.9258C396.563 68.7516 396.56 67.5774 396.557 66.3676C396.666 56.8452 398.302 49.9692 404.894 42.8282C411.886 36.7577 419.722 34.8081 428.75 34.75Z" fill="#6D6D6E"/>
<path d="M59 49C59.33 49.66 59.66 50.32 60 51C61.32 51 62.64 51 64 51C64.33 50.34 64.66 49.68 65 49C67.6078 53.4705 69.0523 58.6455 68.9375 63.8125C68.7522 66.0955 68.7522 66.0955 70.5 67.5C70.995 67.995 71.49 68.49 72 69C72 70.6667 72 72.3333 72 74C72.8493 76.7294 73.9304 79.351 75 82C75.33 82.99 75.66 83.98 76 85C76.66 85.66 77.32 86.32 78 87C78 87.99 78 88.98 78 90C79.4375 91.688 79.4375 91.688 81 93C79.02 93.495 79.02 93.495 77 94C73.4549 90.1094 71.8597 86.3132 70.457 81.3281C70.2431 80.6051 70.0292 79.8821 69.8088 79.1371C69.1324 76.8445 68.4718 74.5476 67.8125 72.25C67.1396 69.939 66.4634 67.6291 65.7841 65.32C65.3635 63.8868 64.9471 62.4522 64.5354 61.0164C63.7743 57.7405 63.7743 57.7405 62 55C61.718 56.0038 61.436 57.0076 61.1455 58.0417C60.0914 61.7819 59.0217 65.5174 57.9473 69.2517C57.4853 70.8654 57.0276 72.4803 56.5742 74.0964C55.92 76.4257 55.2505 78.7501 54.5781 81.0742C54.38 81.7921 54.1819 82.51 53.9778 83.2497C52.698 87.6053 51.1574 90.7215 48 94C45.75 94.8125 45.75 94.8125 44 95C44 94.34 44 93.68 44 93C44.99 93 45.98 93 47 93C47.1934 91.952 47.3867 90.904 47.5859 89.8242C47.8486 88.4452 48.1116 87.0663 48.375 85.6875C48.5013 84.9972 48.6277 84.3069 48.7578 83.5957C49.4211 80.163 50.035 77.9475 52 75C52.66 75 53.32 75 54 75C54.0258 74.38 54.0516 73.7599 54.0781 73.1211C54.6155 64.7302 56.6692 57.0332 59 49Z" fill="#6D6D6E"/>
<path d="M509 45.9999C507.68 46.9899 506.36 47.9799 505 48.9999C505.554 49.4472 506.109 49.8945 506.68 50.3554C514.417 56.8124 514.417 56.8124 515.277 62.9921C515.655 68.3211 514.626 72.4902 511.809 77.039C508.306 80.8361 504.012 82.2078 499 82.9999C495.781 82.8686 492.88 82.4938 490 80.9999C489.505 79.5149 489.505 79.5149 489 77.9999C488.01 77.9999 487.02 77.9999 486 77.9999C484.68 74.3699 483.36 70.7399 482 66.9999C482.99 66.0099 483.98 65.0199 485 63.9999C484.34 63.9999 483.68 63.9999 483 63.9999C482.67 63.0099 482.34 62.0199 482 60.9999C483.18 59.0273 483.18 59.0273 484.875 56.9374C487.162 54.1125 487.162 54.1125 489 50.9999C491.322 50.5926 493.657 50.2556 496 49.9999C495.67 49.3399 495.34 48.6799 495 47.9999C496.956 47.4706 498.915 46.9517 500.875 46.4374C502.511 46.0024 502.511 46.0024 504.18 45.5585C507 44.9999 507 44.9999 509 45.9999ZM489 54.9999C486.34 59.7702 485.333 63.5707 486 68.9999C487.302 72.673 488.512 76.0331 491.863 78.2109C496.521 79.9309 501.358 79.7137 505.875 77.7499C509.58 74.6991 511.106 72.5094 511.875 67.7499C512.254 62.9665 511.473 59.1313 509 54.9999C505.922 52.0156 503.135 51.7847 499 51.6249C494.873 51.7783 492.113 52.0757 489 54.9999Z" fill="#6D6D6E"/>
<path d="M193 75C197.793 75.4565 201.617 77.0876 206 79C211.005 80.3764 216.05 80.6499 221 79C221 77.68 221 76.36 221 75C222.32 75 223.64 75 225 75C225.363 79.4834 225.363 79.4834 223.812 81.6875C220.317 84.2189 217.81 85.0552 213.449 84.7578C211.587 84.4446 211.587 84.4446 209.687 84.125C208.433 83.9213 207.179 83.7177 205.887 83.5078C204.458 83.2564 204.458 83.2564 203 83C203 82.34 203 81.68 203 81C199.7 80.34 196.4 79.68 193 79C192.67 81.31 192.34 83.62 192 86C192.66 86 193.32 86 194 86C194 86.66 194 87.32 194 88C195.583 88.4803 197.166 88.9592 198.75 89.4375C199.632 89.7043 200.513 89.9712 201.422 90.2461C207.331 91.9742 212.671 92.0448 218.801 91.873C225.712 91.7702 225.712 91.7702 229 94C223.991 95.9909 219.624 96.3862 214.312 96.375C213.519 96.3734 212.725 96.3718 211.907 96.3701C203.933 96.2046 197.707 94.2245 190.875 90.125C188.401 87.3208 187.925 85.7397 188 82C189.484 79.3778 190.865 77.1353 193 75Z" fill="#6D6D6E"/>
<path d="M153 49C157.205 50.325 159.688 52.6079 162.438 56.0625C165.081 61.3841 164.95 67.427 163.446 73.086C161.2 77.9838 157.243 79.8895 152.535 82.1524C148.112 83.6315 144.898 83.3083 140.75 81.25C140.064 80.9252 139.379 80.6004 138.672 80.2657C136.454 78.5865 136.397 77.7475 136 75C135.7 73.1612 135.7 73.1612 135.395 71.2852C135.198 69.878 135.004 68.4705 134.813 67.0625C134.705 66.3594 134.597 65.6562 134.487 64.9317C133.915 60.6643 133.991 57.8286 136 54C136.33 53.34 136.66 52.68 137 52C137.99 51.67 138.98 51.34 140 51C144.28 48.1466 147.978 48.3971 153 49ZM139 55C136.335 59.7796 135.417 63.5601 136 69C137.202 72.795 138.173 75.2454 141.125 77.9375C145.174 79.4339 148.737 79.6831 153 79C157.089 76.9186 159.315 75.2428 161 71C161.74 65.1748 161.558 59.862 158 55C152.163 50.9278 144.618 50.0246 139 55Z" fill="#6D6D6E"/>
<path d="M372 43C374.585 46.1488 376.134 49.3096 377.707 53.0586C378.212 54.2503 378.717 55.4421 379.237 56.6699C379.762 57.9256 380.288 59.1815 380.813 60.4375C381.838 62.8745 382.865 65.3107 383.895 67.7461C384.652 69.548 384.652 69.548 385.424 71.3862C386.494 73.8386 387.583 76.2353 388.759 78.6333C389.317 79.7765 389.875 80.9198 390.449 82.0977C390.962 83.1148 391.475 84.132 392.003 85.1799C393.127 88.3591 393.179 89.8596 392 93C387.321 96.1197 382.475 95.7087 377 95C373.397 93.3391 371.501 90.8931 369.563 87.4375C368.965 84.8489 369.086 83.4674 370 81C370.66 81 371.32 81 372 81C373.32 83.97 374.64 86.94 376 90C378.413 90.2784 378.413 90.2784 380.875 90.5625C381.78 90.6669 382.685 90.7713 383.617 90.8789C386.017 91.1967 386.017 91.1967 388 90C388.318 85.3393 387.852 83.5908 385 80C384.489 78.6997 384.013 77.3853 383.563 76.0625C382.291 72.4236 380.466 69.9756 378 67C378 66.01 378 65.02 378 64C377.427 62.129 376.796 60.2757 376.125 58.4375C375.603 56.9815 375.603 56.9815 375.07 55.4961C374.134 52.8868 374.134 52.8868 372 51C370.743 45.5143 370.743 45.5143 372 43Z" fill="#6D6D6E"/>
<path d="M481 43C481 43.99 481 44.98 481 46C479.333 46 477.667 46 476 46C475.493 47.282 475.493 47.282 474.977 48.5899C474.307 50.247 474.307 50.247 473.625 51.9375C473.184 53.0397 472.743 54.1418 472.289 55.2774C471 58 471 58 469 59C469.33 59.33 469.66 59.66 470 60C470.112 61.5743 470.157 63.1535 470.174 64.7317C470.187 65.7398 470.201 66.7479 470.214 67.7865C470.225 68.8843 470.235 69.9822 470.246 71.1133C470.279 73.416 470.312 75.7188 470.346 78.0215C470.393 81.6689 470.437 85.3162 470.477 88.9636C470.516 92.472 470.568 95.9801 470.621 99.4883C470.629 100.58 470.638 101.672 470.647 102.797C470.663 103.814 470.68 104.832 470.697 105.88C470.707 106.774 470.718 107.668 470.728 108.59C471.016 111.142 471.713 112.797 473 115C470 115 470 115 468.339 113.818C466.564 111.408 466.607 109.889 466.58 106.909C466.564 105.87 466.548 104.831 466.532 103.76C466.532 102.636 466.531 101.511 466.531 100.352C466.524 99.1881 466.516 98.0246 466.508 96.8258C466.497 94.3561 466.494 91.8863 466.499 89.4165C466.5 85.674 466.459 81.9336 466.414 78.1914C466.286 53.0556 466.286 53.0556 472 45C475.081 42.9976 477.352 42.7974 481 43Z" fill="#6D6D6E"/>
<path d="M420 50C422.901 49.6966 425.541 49.5819 428.438 49.625C429.214 49.6134 429.991 49.6018 430.791 49.5898C436.478 49.6192 436.478 49.6192 438.746 51.2749C440 53 440 53 440 57C440.66 57 441.32 57 442 57C442.66 60.3 443.32 63.6 444 67C443.34 67 442.68 67 442 67C442.062 67.9075 442.124 68.815 442.188 69.75C441.983 73.2924 441.473 74.5265 439 77C438.34 77 437.68 77 437 77C436.794 77.6187 436.588 78.2375 436.375 78.875C435 81 435 81 432.375 82.3125C428.194 83.1642 425.191 82.7225 421 82C421 81.34 421 80.68 421 80C418.525 79.01 418.525 79.01 416 78C416.33 76.68 416.66 75.36 417 74C416.34 74 415.68 74 415 74C414.34 73.34 413.68 72.68 413 72C413 71.01 413 70.02 413 69C413.66 69 414.32 69 415 69C414.67 66.36 414.34 63.72 414 61C413.34 62.32 412.68 63.64 412 65C411.601 61.5123 411.825 60.2508 413.875 57.3125C415.221 55.8478 416.593 54.4066 418 53C418.66 52.01 419.32 51.02 420 50ZM418 56C415.163 60.3839 415.338 65.9531 416 71C418.069 75.1379 419.751 77.2724 424 79C428.71 79.7365 432.17 79.4225 436.438 77.25C439.595 74.4776 440.794 72.5886 441.336 68.4141C441.419 62.4499 441.242 58.5955 437 54C430.531 50.0889 423.556 50.9858 418 56Z" fill="#6D6D6E"/>
<path d="M413 88C417.814 87.6642 419.962 88.5194 424 91C427.047 91.5701 427.047 91.5701 430.188 91.6875C431.233 91.7533 432.278 91.819 433.355 91.8867C434.903 91.953 436.451 92 438 92C438.33 91.34 438.66 90.68 439 90C441.64 90.33 444.28 90.66 447 91C443.886 94.8059 440.274 95.7638 435.48 96.2617C428.798 96.5328 423.794 95.3552 418 92C417.67 91.67 417.34 91.34 417 91C416.67 98.26 416.34 105.52 416 113C414.02 113.99 414.02 113.99 412 115C412 112.143 412.098 109.311 412.219 106.457C412.264 105.384 412.309 104.311 412.355 103.205C412.403 102.086 412.451 100.966 412.5 99.8125C412.548 98.6814 412.595 97.5502 412.645 96.3848C412.762 93.5898 412.881 90.7949 413 88Z" fill="#6D6D6E"/>
<path d="M518 39C524.617 42.7473 529.254 49.7455 531.312 56.9375C533.195 66.2218 532.119 75.599 526.812 83.625C526.214 84.4087 525.616 85.1925 525 86C524.34 85.01 523.68 84.02 523 83C523.66 83 524.32 83 525 83C525.751 78.5914 526.427 74.1766 527.062 69.75C527.239 68.528 527.416 67.3059 527.598 66.0469C528.435 59.7026 526.272 53.2764 522.621 48.0117C521.438 46.6533 520.222 45.3237 519 44C519 43.34 519 42.68 519 42C517.68 42 516.36 42 515 42C515 41.34 515 40.68 515 40C515.99 39.67 516.98 39.34 518 39Z" fill="#6D6D6E"/>
<path d="M56 25C56.99 25.99 57.98 26.98 59 28C58.01 28.66 57.02 29.32 56 30C55.0533 32.1718 55.0533 32.1718 54.4375 34.6875C54.1874 35.5911 53.9373 36.4948 53.6797 37.4258C53.3432 38.7 53.3432 38.7 53 40C51.2192 46.411 49.1315 52.6987 47 59C46.67 59 46.34 59 46 59C45.951 59.6033 45.902 60.2066 45.8516 60.8281C45.7768 61.6273 45.702 62.4266 45.625 63.25C45.5554 64.0389 45.4858 64.8278 45.4141 65.6406C44.9849 68.0859 44.214 69.8484 43 72C42.34 71.34 41.68 70.68 41 70C41.3645 64.504 42.5585 59.4107 44.1445 54.1406C44.3556 53.429 44.5666 52.7173 44.7841 51.9841C45.2287 50.4941 45.6768 49.0051 46.1282 47.5171C46.8138 45.2458 47.4785 42.9691 48.1426 40.6914C48.5795 39.2366 49.0176 37.7822 49.457 36.3281C49.7495 35.314 49.7495 35.314 50.0478 34.2794C51.3044 30.225 52.7387 27.7315 56 25Z" fill="#6D6D6E"/>
<path d="M179 62C182.248 65.2476 181.296 69.1546 181.322 73.5781C181.319 74.8311 181.316 76.0841 181.312 77.375C181.329 78.6202 181.345 79.8655 181.361 81.1484C181.362 82.3447 181.363 83.5409 181.363 84.7734C181.366 85.8709 181.369 86.9684 181.372 88.0991C180.958 91.3256 180.244 92.6859 178 95C173.626 96.5246 169.814 96.2908 165.5 94.75C163 93 163 93 162 90C161.34 89.67 160.68 89.34 160 89C161.65 88.67 163.3 88.34 165 88C165.33 89.32 165.66 90.64 166 92C169.63 92 173.26 92 177 92C176.835 91.2162 176.67 90.4325 176.5 89.625C175.87 85.0603 175.918 80.5993 176 76C176.99 75.67 177.98 75.34 179 75C179 70.71 179 66.42 179 62Z" fill="#6D6D6E"/>
<path d="M528 3C527.886 5.12563 527.759 7.25053 527.625 9.375C527.555 10.5584 527.486 11.7417 527.414 12.9609C527 16 527 16 525 18C525 16.68 525 15.36 525 14C522.36 14 519.72 14 517 14C517.33 13.01 517.66 12.02 518 11C518.66 11 519.32 11 520 11C520 10.34 520 9.68 520 9C517.854 9.14029 515.708 9.28738 513.562 9.4375C512.368 9.51871 511.173 9.59992 509.941 9.68359C507.114 9.67656 507.114 9.67656 506 11C503.668 11.3393 501.334 11.6724 499 12C498.01 12.495 498.01 12.495 497 13C496.34 12.34 495.68 11.68 495 11C502.488 8.66491 509.834 7.40498 517.617 6.625C521.395 5.92701 524.359 3 528 3Z" fill="#6D6D6E"/>
<path d="M232 62C233.132 62.908 234.255 63.8268 235.375 64.75C236.001 65.2605 236.628 65.7709 237.273 66.2969C240.452 69.4327 241.318 72.3419 241.438 76.75C241.324 82.2345 239.609 85.9102 236 90C231.969 93 231.969 93 229 93C229.475 88.7266 232.031 86.8968 235 84C237.723 80.2392 237.355 76.4775 237 72C235.646 70.2281 235.646 70.2281 234 69C233.648 67.6714 233.312 66.3384 233 65C232.34 64.67 231.68 64.34 231 64C231.33 63.34 231.66 62.68 232 62Z" fill="#6D6D6E"/>
<path d="M463 23C466.472 23.0694 469.073 23.2506 471.836 25.4844C474.892 28.8413 474.892 28.8413 476 31C475.67 32.32 475.34 33.64 475 35C472.03 34.67 469.06 34.34 466 34C465.918 33.2163 465.835 32.4325 465.75 31.625C465.272 28.8525 465.272 28.8525 462.938 27.6875C462.298 27.4606 461.659 27.2337 461 27C461.66 25.68 462.32 24.36 463 23Z" fill="#6D6D6E"/>
<path d="M494 90.9999C495.326 91.6801 496.656 92.3548 498 92.9999C498 93.6599 498 94.3199 498 94.9999C493.57 94.4847 490.743 93.3783 487 90.9999C487.01 91.6204 487.021 92.2408 487.032 92.88C487.073 95.6908 487.099 98.5015 487.125 101.313C487.15 102.777 487.15 102.777 487.176 104.271C487.182 105.209 487.189 106.147 487.195 107.113C487.206 107.977 487.216 108.841 487.227 109.732C487 112 487 112 485 115C484.01 115 483.02 115 482 115C482.33 113.68 482.66 112.36 483 111C483.66 111 484.32 111 485 111C485 105.06 485 99.1199 485 92.9999C484.34 92.9999 483.68 92.9999 483 92.9999C483 91.3499 483 89.6999 483 87.9999C487.362 85.9061 490.343 88.7008 494 90.9999Z" fill="#6D6D6E"/>
<path d="M338 78C347.9 78 357.8 78 368 78C368 78.33 368 78.66 368 79C366.02 79 364.04 79 362 79C362.33 79.99 362.66 80.98 363 82C355.08 82 347.16 82 339 82C338.67 80.68 338.34 79.36 338 78Z" fill="#6D6D6E"/>
<path d="M448 40C454.84 45.0962 459.452 51.4309 461 60C461.067 61.9156 461.085 63.8334 461.062 65.75C461.053 66.7348 461.044 67.7197 461.035 68.7344C461.024 69.482 461.012 70.2297 461 71C459.48 69.6367 459.48 69.6367 458 68C458.312 65.8125 458.312 65.8125 459 64C458.34 64 457.68 64 457 64C457.055 63.126 457.111 62.252 457.168 61.3516C456.889 55.7919 454.044 51.5556 451 47C448.337 44.5126 448.337 44.5126 446 43C446 42.34 446 41.68 446 41C446.66 40.67 447.32 40.34 448 40Z" fill="#6D6D6E"/>
<path d="M494 29C496.679 33.0189 496.156 35.2416 496 40C496.99 40.33 497.98 40.66 499 41C498.67 41.33 498.34 41.66 498 42C498.66 42.66 499.32 43.32 500 44C498.395 43.8585 496.791 43.7116 495.188 43.5625C494.294 43.4813 493.401 43.4001 492.48 43.3164C490 43 490 43 487 42C487.34 36.5579 490.703 33.0633 494 29Z" fill="#6D6D6E"/>
<path d="M462 28C462.99 28.33 463.98 28.66 465 29C465.33 30.32 465.66 31.64 466 33C470.455 33.99 470.455 33.99 475 35C475.33 34.01 475.66 33.02 476 32C478 33 478 33 479.125 36.0625C479.414 37.0319 479.702 38.0013 480 39C471.7 39.9018 471.7 39.9018 467.812 37.8398C464.875 35.4473 463.25 33.7653 462.062 30.125C462.042 29.4237 462.021 28.7225 462 28Z" fill="#6D6D6E"/>
<path d="M100 77C101.251 80.7523 100.572 82.2724 99.375 86C99.0527 87.0519 98.7305 88.1038 98.3984 89.1875C96.7137 92.5758 95.441 93.5024 92 95C89.3242 95.5117 89.3242 95.5117 86.6875 95.6875C85.8045 95.7532 84.9215 95.819 84.0117 95.8867C83.0159 95.9428 83.0159 95.9428 82 96C84.6982 93.3018 87.349 92.9608 91 92C91.99 91.67 92.98 91.34 94 91C94.1547 89.9791 94.1547 89.9791 94.3125 88.9375C95.1473 85.3708 96.4947 82.3378 98 79C98.66 79 99.32 79 100 79C100 78.34 100 77.68 100 77Z" fill="#6D6D6E"/>
<path d="M457 71C457.99 71 458.98 71 460 71C459.327 79.2489 456.199 84.4539 450 90C449.34 90.33 448.68 90.66 448 91C448.918 86.4998 449.913 83.8213 453.062 80.4375C455.871 77.417 456.794 75.2179 457 71Z" fill="#6D6D6E"/>
<path d="M475 23C478.878 24.4709 480.044 26.4275 482 30C482.536 30.7013 483.073 31.4025 483.625 32.125C485 34 485 34 486 37C484.062 37.5625 484.062 37.5625 482 38C481.67 37.67 481.34 37.34 481 37C481 37.99 481 38.98 481 40C478.03 40 475.06 40 472 40C472 39.67 472 39.34 472 39C475.465 38.505 475.465 38.505 479 38C478.67 36.35 478.34 34.7 478 33C478.66 32.67 479.32 32.34 480 32C479.652 30.0246 479.652 30.0246 479 28C478.34 27.67 477.68 27.34 477 27C477 26.34 477 25.68 477 25C476.34 25 475.68 25 475 25C475 24.34 475 23.68 475 23Z" fill="#6D6D6E"/>
<path d="M58 23.9999C66.837 23.5506 66.837 23.5506 71 26.9999C73.678 30.5388 74.4908 33.6209 75 37.9999C73.0625 37.3749 73.0625 37.3749 71 35.9999C70.25 32.8749 70.25 32.8749 70 29.9999C69.34 29.9999 68.68 29.9999 68 29.9999C68 29.3399 68 28.6799 68 27.9999C65.9976 26.8812 65.9976 26.8812 63.5625 26.5624C61 25.9999 61 25.9999 58 23.9999Z" fill="#6D6D6E"/>
<path d="M291 64C291.33 64 291.66 64 292 64C292.02 64.7113 292.04 65.4226 292.06 66.1555C292.155 69.3749 292.265 72.5936 292.375 75.8125C292.406 76.9321 292.437 78.0516 292.469 79.2051C292.507 80.2782 292.546 81.3514 292.586 82.457C292.617 83.4468 292.649 84.4365 292.681 85.4563C292.838 88.2408 292.838 88.2408 295 91C297.656 91.5835 297.656 91.5835 300.625 91.6875C301.628 91.7532 302.631 91.819 303.664 91.8867C304.435 91.9241 305.206 91.9615 306 92C305.67 92.66 305.34 93.32 305 94C303.229 94.0271 301.458 94.0464 299.688 94.0625C298.701 94.0741 297.715 94.0857 296.699 94.0977C294 94 294 94 291 93C291 83.43 291 73.86 291 64Z" fill="#6D6D6E"/>
<path d="M494 90.9999C495.326 91.6801 496.656 92.3548 498 92.9999C498 93.6599 498 94.3199 498 94.9999C493.611 94.4896 490.663 93.4778 487 90.9999C486.67 91.6599 486.34 92.3199 486 92.9999C485.01 92.9999 484.02 92.9999 483 92.9999C483 91.3499 483 89.6999 483 87.9999C487.362 85.9061 490.343 88.7008 494 90.9999Z" fill="#6D6D6E"/>
<path d="M420 35C422.855 34.9184 425.707 34.8592 428.562 34.8125C429.362 34.7874 430.162 34.7622 430.986 34.7363C436.448 34.6695 440.129 35.509 445 38C442.716 38.7614 441.256 39.0527 438.875 38.5625C435.153 37.8342 431.469 37.6437 427.688 37.4375C426.947 37.3943 426.206 37.3511 425.443 37.3066C423.629 37.2013 421.815 37.1002 420 37C420 36.34 420 35.68 420 35Z" fill="#6D6D6E"/>
<path d="M252 15C253.915 14.8916 255.833 14.8142 257.75 14.75C258.817 14.7036 259.885 14.6572 260.984 14.6094C264 15 264 15 266.375 16.3125C269.031 20.7045 268.416 25.2332 268.25 30.25C268.232 31.2812 268.214 32.3125 268.195 33.375C268.148 35.9176 268.082 38.4583 268 41C267.67 41 267.34 41 267 41C266.98 40.4349 266.96 39.8698 266.94 39.2876C266.845 36.7329 266.735 34.1791 266.625 31.625C266.594 30.7355 266.563 29.8461 266.531 28.9297C266.493 28.0789 266.454 27.2281 266.414 26.3516C266.383 25.566 266.351 24.7805 266.319 23.9712C266.16 21.77 266.16 21.77 264 20C264 19.01 264 18.02 264 17C260.04 16.67 256.08 16.34 252 16C252 15.67 252 15.34 252 15Z" fill="#6D6D6E"/>
<path d="M506 36C508.97 36 511.94 36 515 36C511.801 39.7113 508.629 41.4293 504 43C501.562 42.6875 501.562 42.6875 500 42C500.619 41.9381 501.237 41.8762 501.875 41.8125C504.278 41.1711 504.278 41.1711 505.25 38.4375C505.497 37.6331 505.745 36.8288 506 36Z" fill="#6D6D6E"/>
<path d="M481 42.9999C481 43.9899 481 44.9799 481 45.9999C479.334 45.9999 477.667 45.9999 476 45.9999C473.525 51.9399 473.525 51.9399 471 57.9999C470.074 54.2971 469.945 52.9261 470.688 49.3749C470.836 48.5989 470.984 47.8229 471.137 47.0234C472 44.9999 472 44.9999 473.91 43.7343C476.376 42.8679 478.405 42.8558 481 42.9999Z" fill="#6D6D6E"/>
<path d="M494 29C494.33 29.66 494.66 30.32 495 31C494.223 32.9453 494.223 32.9453 493.062 35.125C492.682 35.8495 492.302 36.5739 491.91 37.3203C491.46 38.1518 491.46 38.1518 491 39C491.99 40.32 492.98 41.64 494 43C491.69 42.67 489.38 42.34 487 42C487.34 36.5579 490.703 33.0633 494 29Z" fill="#6D6D6E"/>
<path d="M491 15C491.66 15 492.32 15 493 15C493.268 15.9694 493.536 16.9388 493.812 17.9375C494.204 18.9481 494.596 19.9587 495 21C495.99 21.33 496.98 21.66 498 22C496.35 22.66 494.7 23.32 493 24C493 24.66 493 25.32 493 26C492.34 26 491.68 26 491 26C490.691 25.2163 490.381 24.4325 490.062 23.625C489.071 21.0767 489.071 21.0767 488 19C488.33 18.34 488.66 17.68 489 17C489.66 17 490.32 17 491 17C491 16.34 491 15.68 491 15Z" fill="#6D6D6E"/>
<path d="M516 88C517.98 88 519.96 88 522 88C518.178 92.4009 515.526 93.8081 510 95C509.01 94.01 508.02 93.02 507 92C508.114 91.8556 509.227 91.7113 510.375 91.5625C513.821 91.2163 513.821 91.2163 516 90C516 89.34 516 88.68 516 88Z" fill="#6D6D6E"/>
<path d="M209 56C213.95 56.99 218.9 57.98 224 59C224 59.33 224 59.66 224 60C222.085 60.2228 220.168 60.4277 218.25 60.625C217.183 60.741 216.115 60.857 215.016 60.9766C211.962 61.0003 210.538 60.6142 208 59C208.33 58.01 208.66 57.02 209 56Z" fill="#6D6D6E"/>
<path d="M503 23C503.33 23.66 503.66 24.32 504 25C503.01 25.66 502.02 26.32 501 27C501.99 27.33 502.98 27.66 504 28C504 28.66 504 29.32 504 30C502.907 30.3094 501.814 30.6188 500.688 30.9375C498.446 31.5834 496.213 32.2623 494 33C494 30.8125 494 30.8125 495 28C497.508 26.0381 500.196 24.5008 503 23Z" fill="#6D6D6E"/>
<path d="M485 56C485.66 56.33 486.32 56.66 487 57C486.67 60.96 486.34 64.92 486 69C484.68 68.67 483.36 68.34 482 68C482.66 67.01 483.32 66.02 484 65C483.67 64.67 483.34 64.34 483 64C482.67 63.01 482.34 62.02 482 61C483.438 58.3125 483.438 58.3125 485 56Z" fill="#6D6D6E"/>
<path d="M75 39C77.109 42.1635 78.0584 44.8804 79.1875 48.5C79.5523 49.6447 79.9171 50.7894 80.293 51.9688C81 55 81 55 80 58C77.5831 53.7705 76.6517 50.8766 77 46C76.01 46 75.02 46 74 46C73.67 44.68 73.34 43.36 73 42C73.66 42 74.32 42 75 42C75 41.01 75 40.02 75 39Z" fill="#6D6D6E"/>
<path d="M117 71C117.66 71 118.32 71 119 71C123.079 78.0547 123.079 78.0547 122.75 82C122.503 82.66 122.255 83.32 122 84C118.558 79.7761 117 76.4994 117 71Z" fill="#6D6D6E"/>
<path d="M133 58C133.66 58.33 134.32 58.66 135 59C135.414 62.1602 135.414 62.1602 135.625 66.0625C135.7 67.3529 135.774 68.6432 135.851 69.9727C135.9 70.9717 135.949 71.9707 136 73C135.01 72.67 134.02 72.34 133 72C132.804 70.23 132.619 68.459 132.437 66.6875C132.333 65.7014 132.228 64.7152 132.121 63.6992C132 61 132 61 133 58Z" fill="#6D6D6E"/>
<path d="M443 59C445.031 62.9275 446.343 65.6527 445.312 70.0625C445.164 70.7547 445.016 71.447 444.863 72.1602C444 74 444 74 440 76C440.66 73.03 441.32 70.06 442 67C442.66 67 443.32 67 444 67C443.34 64.69 442.68 62.38 442 60C442.33 59.67 442.66 59.34 443 59Z" fill="#6D6D6E"/>
<path d="M105 53C105.66 53.66 106.32 54.32 107 55C106.575 56.774 106.135 58.5441 105.688 60.3125C105.444 61.2986 105.2 62.2848 104.949 63.3008C104 66.0014 103.182 67.2096 101 69C101.285 67.2697 101.578 65.5408 101.875 63.8125C102.037 62.8496 102.2 61.8866 102.367 60.8945C102.98 58.0897 103.857 55.6278 105 53Z" fill="#6D6D6E"/>
<path d="M524 19C525 22 525 22 524.074 24.2266C523.617 25.018 523.159 25.8095 522.688 26.625C522.013 27.82 522.013 27.82 521.324 29.0391C520 31 520 31 518 32C518 30.35 518 28.7 518 27C518.66 26.67 519.32 26.34 520 26C520 25.34 520 24.68 520 24C520.66 24 521.32 24 522 24C522.66 22.35 523.32 20.7 524 19Z" fill="#6D6D6E"/>
<path d="M473 26C475.97 26.495 475.97 26.495 479 27C479.33 28.65 479.66 30.3 480 32C477.625 31.8125 477.625 31.8125 475 31C473.688 28.4375 473.688 28.4375 473 26Z" fill="#6D6D6E"/>
<path d="M495 12C495.33 12.99 495.66 13.98 496 15C494.35 15 492.7 15 491 15C491 15.66 491 16.32 491 17C490.34 17 489.68 17 489 17C488.34 18.65 487.68 20.3 487 22C486.34 22 485.68 22 485 22C486.284 17.5059 489.77 12 495 12Z" fill="#6D6D6E"/>
<path d="M28 90C29.32 90.33 30.64 90.66 32 91C32 91.66 32 92.32 32 93C35.3 93.66 38.6 94.32 42 95C42 95.33 42 95.66 42 96C36.7838 96.313 33.4342 95.8506 29 93C28.67 92.01 28.34 91.02 28 90Z" fill="#6D6D6E"/>
<path d="M460 18C461.32 18.33 462.64 18.66 464 19C463.34 21.64 462.68 24.28 462 27C459.71 23.5648 459.821 22.0147 460 18Z" fill="#6D6D6E"/>
<path d="M488 37C490.802 38.8678 492.112 40.3027 494 43C491.69 42.67 489.38 42.34 487 42C487.33 40.35 487.66 38.7 488 37Z" fill="#6D6D6E"/>
<path d="M418 88C422.95 89.98 422.95 89.98 428 92C427.34 92.66 426.68 93.32 426 94C423.125 93.25 423.125 93.25 420 92C419.34 90.68 418.68 89.36 418 88Z" fill="#6D6D6E"/>
<path d="M504 39C505.65 39.33 507.3 39.66 509 40C506.238 42.7622 503.793 42.5786 500 43C500.33 42.34 500.66 41.68 501 41C501.99 41 502.98 41 504 41C504 40.34 504 39.68 504 39Z" fill="#6D6D6E"/>
</g>
</g>
<defs>
<clipPath id="clip0_211_3821">
<rect width="543" height="116" fill="white"/>
</clipPath>
</defs>
</svg>
