<svg width="679" height="170" viewBox="0 0 679 170" fill="none" xmlns="http://www.w3.org/2000/svg">
<g clip-path="url(#clip0_211_4715)">
<path d="M524 34.75H536L541.5 35.5L547.75 37.25L551 38.25L557 41.5L561.25 44.25L565 47.25L567.75 49.5L569.5 51.25L571.75 54L574.25 57.25L576.75 61L579.75 66.75L582.25 74L583.5 79.5L584 84.5V93L583 99.5L582 104.25L582.25 105L582 105.5H581.25L579.25 111L577.5 114.25L575 118L574.25 120.25V120.75L575.25 121.25L586.25 132.25L588.25 135L588.75 136.5V139L587.75 142.75L586.25 144.5L584.25 145.75L582.5 146.75L580.25 147L577.25 146.5L574.5 144.75L572 142.75L561.5 132.25L560.75 132L559.75 133.25L558 134.5L555.25 136L549.25 139L543.5 140.5L538.75 141.5L533 142H527.5L521.5 141.5L515.25 140.25L510.5 138.75L506.75 136.75L505 136L500.5 133.5L497.25 131L494.75 129L493 127.25L492 126.5V126L491.25 125.75L489.5 123.75L486.5 120L483.75 115.75L480.75 109.75L479.25 106.25L477.5 100L477 99.5L477.25 99L476.75 98.75L477 98.5L476.25 91V87L476.5 82.25L477.75 76L479 70.25L480.5 67.75L481.5 65L483 62.5L484.5 59.75L486.75 56.25L489.5 53.25L491.75 50.75L495.75 46.75L499.25 44L501.5 42.5L505.25 40.25L510 38L515.5 36.25L520 35.25L524 34.75ZM526.25 52L521 52.75L517.25 53.75L512 56.25L508 59.25L505.25 61.75L504.25 62.5V63H503.75L502 65L501.5 66H501L499.25 68.25L497.5 71.75L496.75 72.75L495.75 76.25V77.75L495.5 78.25H494.75L494.25 79.75L493.75 85.5V92.25L494.5 97.25L495.25 100L497.25 104.75L498.25 106L499.5 108.5L502 111.75L503.75 113.75L506 116L509.25 118.5L512 120L513.5 121.25L516 122L517.5 122.5L517.75 123.25L519.25 123.5L524.25 124.25L531.75 124.5L537 124.25L541.5 123.25L546.25 121.25L549 120.75L548.25 120.25L548.5 119.5L546.75 117.25L539.25 109.75L537 107L535.5 104.25L535 102.5L535.25 100.25L537.25 96.25L539.5 94.25L541.5 93.5H544.75L547.25 94.25L550 96.25L559.25 105.5L560.25 106.75L561.5 107L563 104.75L564.75 101.25L566 96.25L566.5 94V84.5L566 80L564.75 76L563.75 73.5L561.5 69.25L559 65.75L557.25 63.75L554.25 60.75L550.5 58L546.5 55.5L541.75 53.5L538 52.5L536.75 52.25L526.25 52Z" fill="#6D6D6E"/>
<path d="M641.25 34.5L648.75 35.75L652.5 37.25L655.5 38.25L658.25 40L662.5 43L666.25 46.5L668.5 48.75L670.5 51.25L673.25 55.25L675.5 60.25L676.25 63.25L677.25 65.75L678 67.5V70.25L678.25 71.75L678.5 70.5H678.75L679 73L678.75 76.75L678.25 76.5L678 77.25V80H677.5L676.25 86L675 89.25L672.75 94.25L671 96.75L668.5 100.25L665.5 103.5L662.75 105.75L659.75 108L657 109.5L655.75 110L657.25 112.5L668.75 124L670 125L671.75 127L675.5 130.75L678.25 135L678.75 135.25L679 134.75V141.5L677 143.25L675.5 145L673 146.5L671.75 146.75H668.5L666 145.5L662.75 142.75L619.25 99.25L618 97.5V96.5H634.25L642 96.25L645.5 95.75L647.25 95.25L648.25 94.25L651.25 92.5L654.75 89.5L657 86.5L658 85L660 80L660.5 73.75L660.25 70.75L659.75 70.5L659.5 67.75L657.75 63.25L655.75 60.75L653.5 58.25L651.5 56.5L648 54L644.25 52.75L642 52.5H634.25L628.75 52.25H622L617.75 52.5L616.5 52H615.5L615.25 142.75L614.75 144.75L613.25 146.5H612.75V147L610 148.75L607.75 149.5H605.25L602.75 148.25L599.75 145.5L598.75 143.75V143.25L598 143L597.75 142.25V35L598 34.75L641.25 34.5Z" fill="#6D6D6E"/>
<path d="M307.75 35.75H311L317.75 36.5L325 38L331.75 41L333.75 42.25L335.75 43.25L339.5 46L342 48L347.25 53.25L350 56.75L352.25 60L354.5 63.75L356 67.5L357.25 71.25L358.5 76L359.25 81L359.5 84.75V93L358.75 93.75H278.25L275 93.5L277 99.5L279.75 105L282.75 109L287 113.25L289.75 115L291.25 116L293.5 117L294.5 118V118.5L297.75 119L299.75 119.5L301.5 120.25L302.75 120.5L306.25 120.75L308.5 121H312.5L315.75 120.25L318.25 119.75L323.25 118.5L327 116.25L330.75 113.75L333 111.75H333.5V111.25L334.5 110.25H335L335.5 109.25L337.75 106.75L340.5 102.25L342 98.75L343.5 96.75L346.5 95L348.25 94.75L348.5 94L349.25 94.25V94.75L352.25 95.5L353.75 96.5L355.5 98.5L356.5 100.75V103L355.25 106L353.25 110L351.75 112.75L348.75 116.75L345.75 120.25L343 123L340.25 125.25L335.75 128.5L330 131.5L325 133.5L321.75 134.5L316.25 135.75L310.5 136.25H307L301.25 135.5L294.75 134L289.5 132L285.5 130L282 128L278.5 125.5L270.5 117.5L268 114L266 110.75L263.5 106L262 102.25L261 99L260.25 93.75H259.75L259.25 91.75V89L259 87.25L259.5 80.5L260.5 75L261.5 71L262.5 68.75L263.5 65.5L265.25 62.5L266.75 59.5L267.75 58.25L269.25 55.75L271.75 53.25L272 52.75H272.5L273 51.75L276.5 48.25L278.5 46.5L282.5 43.5L287.25 40.75L293.25 38.25L299.25 36.75L304 36L307.75 35.75ZM305.5 50.75L301.25 51.5L296 53L290.25 56L287.5 58.25L284.5 61L282 63.5L279 67.75L276.25 73.5L275 77.5V78.5H343.75L344 77.5L343 74.75L342 72.25L340.5 69.25L338.5 65.75L335.75 62.25L332.75 59.25L328.25 56L323.5 53.5L318.25 51.75L312.25 50.75H305.5Z" fill="#6D6D6E"/>
<path d="M263 35.5L265 35.75L264 37.5L262.5 39.5L259.5 43.75L257.25 47L254.5 51L252.75 53.5L250.5 57L248.75 59.5L244.25 66.25L242.25 69L239.25 73.25L236.5 77.25L231 85.5L228 89.75L224.5 94.75L221.75 98.75L213.25 111.5L211.75 113.5L209.25 117.25L207 119.75L206.25 121L256.5 121.25L258.75 122L261 124L262.25 127L262.75 128.5H262.25V129.75H261.75L261.5 131.5L260 134L258 135.25L256.75 136.5L219.75 136.75H179.75L179.25 136.25L179.5 134.75L181.25 131.75L184.5 127.5L187.25 123L189.5 120L191 117.5L193 114.75L195.25 111.5L197.25 108.75L199 106.25L207 94.25L209.75 90.5L211.75 87.75L213.5 85L214.5 83.75L215.5 82L217.25 79.75L218.5 77.5L220 75.25L223.25 70.75L226.5 66L229 62.5L233.5 55.75L236 52.5L236.5 51.25V50.75H186.5L185.25 50L182.5 47.25L181.75 45.25L181.5 42.25L182.5 39.5L183 38.75H183.5L184 37.75L186.5 35.75L263 35.5Z" fill="#6D6D6E"/>
<path d="M416.5 35.75H420.25L426.75 36.5L434 38L436.25 39L439 40.25L442 41.75L445.5 43.75L447.75 45.5L449 46.25L451.5 48.5L456 53L458.25 55.75L460.5 58.75L463.5 64L465.75 68.75L466.75 72.5L468 78.25L468.25 80.25L468.5 91.25V130.75L468 132.5L466.25 134.25L463.25 136.5L462.25 136.75H460.25L457.75 135.75L454.75 133.5L453.5 132L453.25 129.25V89L453 80.25L452.25 75.75L450.75 72.25L449.75 69.75L447.5 66L445.5 63.5L442.75 60.5L439.5 57.75L435.75 55.25L432.25 53.5L426.5 51.75L421 51H415.25L411.25 51.5L405 53.25L400 56L396.5 58.5L394 60.75L391 63.75L388.75 67.25L385.75 72.75L383.75 79.75L383.5 82.5V127.5L383.25 131.25L382.25 133.25L380.5 135L378 136.5L377.25 136.75H375.5L372.75 135.75L370.25 133.75L369.25 132.75L368.75 131.5L368.5 129.75L368.25 108V83.5L368.5 80.5L369.25 76.5L370.25 72L372.25 66.75L373.25 64L375.25 60.75L378 56.25L380.25 53.75L382 51.75L385 48.75H385.5V48.25L388.25 46L391.5 43.5L396.75 40.5L399.5 39.25L403.25 38L408.5 36.75L412.5 36L416.5 35.75Z" fill="#6D6D6E"/>
<path d="M81.5 98.25H84.5L86.75 99.25L89.75 102L101 113.25V113.75H101.5V114.25H102V114.75H102.5L104.5 117.5L106 120.25L105.75 121.75L103.75 125.25L92.5 136.5L92.25 137H91.75V137.5H91.25V138L89.25 139.75L86.5 142.25L83.75 143.75H82.25L78.75 141.75L75.75 139L62.25 125.5L60.75 123.25L60.5 122.5V119.5L61.25 117.5L64.25 114.25L67.25 111.25L68.5 109.75L70.25 108.25L71.5 106.75L73 105.5L74.75 103.5L77.5 100.75L79.75 99L81.5 98.25ZM82.25 112.75L81 114L79.25 116L76.5 118.75L75 119.75L75.25 121L78 124L80.75 126.75L82.5 128.75H83.5L84.5 127.75V127.25L85.5 126.75L86 125.75H86.5L88 124L89 123.25V122.75H89.5L91 121L90.75 120L88.75 118L86.75 116.25L84.25 113.75L82.75 112.75H82.25Z" fill="#6D6D6E"/>
<path d="M48.25 65H50.75L53.5 66L56.5 68.75L69 81.25V81.75H69.5L71.5 84.5L73 87L73.25 87.25V88.5L72.25 89.5L70 92.25L55.25 107L52.5 109.25L50.25 111H49.25L45.25 108.25L41.5 104.75L30 93.25L28.5 92L27.5 90L27.25 89V86.25L28 84.5L29.75 82.5L30.5 81.75H31L31.5 80.75L46.25 66L48.25 65ZM49 79.5L47.25 81.75L46.5 82.5V83H46L42.75 86.25L42 86.75L42.25 88L44.5 90.5L48.75 94.75L49.25 95.5L50.25 95.25L54.25 91.25V90.75L55.25 90.25L57.5 88L58 87.75V87L55.25 84.75L51 80.5L49.5 79.5H49ZM72 87.25L72.25 88.25H72.75L72.5 87.25H72Z" fill="#6D6D6E"/>
<path d="M82.5 31.5L84 31.75L86.5 33.25L89 35.5L103.5 50L105.5 52.75L106 53.75L105.5 56L103.25 59H102.75L102.25 60L88 74.25L85.25 76.5L83.25 77.5L82.75 77L82.25 77.5L81.75 77L80.25 76.5L77.75 74.25L61.25 57.75L60.5 56.5L60.25 55.25V53.5L60.75 51.75L63 49.25L78.75 33.5L81.5 31.75L82.5 31.5ZM82 46.25L80 49L79.5 50H79L75 54L75.5 55.25L81 60.75L82.5 62.5L84.25 61L86.25 59.25V58.75L87 58.5L90 55.5L91 54.75L90.75 53.75L88.75 52L85 48.25L82.25 46.25H82Z" fill="#6D6D6E"/>
<path d="M139 65.25H143.25L145.25 66.5L153.5 74.75L155.75 77.5L157.5 80.25L158.5 83L159 87.5L158.75 90.75L157.5 95L155.75 97.75L152.25 101.5L145.75 108L143.25 109.75L141 111L138.25 109.5L136 107.5L134.5 104.5L135 102.5L136.5 100L138.75 97.5L140.5 95.75H141L141.5 94.75L143.25 93.25L144.5 91.75H145V91.25H145.5V90.75L146.5 89.75V85.5L145.5 84L142.75 81L136.75 75L135 72.5L134.5 71.75V70L136.5 66.75L138.25 65.5L139 65.25Z" fill="#6D6D6E"/>
<path d="M99 139L101.25 139.75L104 141.75L105.5 144L105.75 144.5V146.5L104.25 149.25L101.5 152.25L94.5 159.25L91 161.75L87 163L85.75 163.5L84 164L82.25 163.75L79 163.25L77 162.5L74.75 161.5L72.5 160L69.25 157L61.75 149.5L60.5 147.75L60.25 146.5V144.75L61.25 142L64.25 139.75L65.25 139.25L67.75 139.5L70.5 141.25L74.25 144.75L78 148.75L80.5 151L83 151.5L84.75 151.25L87.5 148.75L89.5 147L90.5 145.75L92 144.5L92.5 143.75H93V143.25H93.5V142.75L96.75 140.25L99 139Z" fill="#6D6D6E"/>
<path d="M23 65.25H26.5L28.25 66L29.5 67L30.5 69L30.75 69.75V72.25L29.75 74.25L27.5 76.75L25.75 78.5L24.5 80L22.5 81.75L20.5 84L19.25 86.5V88.75L21 91.5L23.5 94.25L24.5 95V95.5H25L26 96.75L26.5 97V97.5H27L28.75 99.5L30.25 101.5L30.75 102.75V105L30 107.25L29 108.5L25.5 111L24.75 111.5V110.75L23.5 110.5L22 109.5L19.5 107.25L11.25 99L9.75 97L8 94L7.25 90.5V85.25L8 81.5L10.5 76.75L13.25 73.75L14 72.75H14.5L15 71.75L19.75 67L22.25 65.5L23 65.25Z" fill="#6D6D6E"/>
<path d="M82.5 11.75H84.5L88.75 12.5L90.75 13.5L93.25 15L95.25 16.5L103 24.25L105.25 27.5L106 29.25L105.75 30.5L103.25 34.25L102.25 35.25L101.5 35.5H98L95.75 34L87.25 25.5L84.5 23.75L82.25 23.5L79.25 25.25L77.5 27H77V27.5H76.5V28H76V28.5H75.5V29H75V29.5H74.5V30H74L73.5 31L71.5 32.75L69.25 34.75L67.5 35.5H64.75L62.5 34L60.75 32L60.5 31.25V27.25L61.25 25.75L64.25 22.75L64.5 22.25H65V21.75H65.5L66 20.75H66.5L67 19.75L69 17.75L71.75 15.5L75.5 13L78.25 12.25L82.5 11.75Z" fill="#6D6D6E"/>
<path d="M99.5 78.75L100.5 79.25L102 81.5L107.25 86.75L108.5 86.5L109 85.75H109.5V85.25L110.75 84L114.25 80.75L115.25 79.75L116.5 80L119.75 82.75L121.5 84.5L123.5 86.25L124.5 87.25L124 88.25L121.75 90.75L119.5 93H119L118.5 94L116.25 95.75L124 103.5L124.25 105L122.25 107L120.25 108.75L117.5 111.5L116.5 112L115.25 111.75L108.5 105V103.75L113 98.75H113.5L114 97.75L115 96.5L114.75 95.5L114 94L107.75 87.75L101.75 93.75L100 96.25H99.5L97.75 94.25L91.5 88L91 87.75L91.25 86.75L94.5 84L99 79.5L99.5 78.75Z" fill="#6D6D6E"/>
<path d="M115.25 62.75L116.5 63L118.75 65.5L120.75 67.25L123.5 70L124 70.75L123.75 72L119.75 75.75L117 78.5L114.75 80L114.5 79V78.25L112.25 75.75L108.5 72L108.25 70.75L109.25 69.25L110.5 67.75L112.25 66.25L112.5 65.75H113L113.5 64.75L115.25 62.75Z" fill="#6D6D6E"/>
<path d="M495 97.5L496.25 98L496.5 98.5L495.25 98L495 97.5Z" fill="#6D6D6E"/>
<path d="M468.25 73.75H468.5V75H468.25V73.75Z" fill="#6D6D6E"/>
<path d="M565.25 95.75H565.75V96.25H565.25V95.75Z" fill="#6D6D6E"/>
</g>
<defs>
<clipPath id="clip0_211_4715">
<rect width="679" height="170" fill="white"/>
</clipPath>
</defs>
</svg>
