<svg width="771" height="848" viewBox="0 0 771 848" fill="none" xmlns="http://www.w3.org/2000/svg">
<path d="M84.375 0H106.875L131.25 5.625L163.125 22.5L208.125 48.75L258.75 76.875L303.75 103.125L350.625 129.375L534.375 234.375L577.5 258.75L721.875 341.25L742.5 356.25L757.5 375L766.875 395.625L770.625 412.5V436.875L765 457.5L753.75 480L733.125 500.625L701.25 519.375L654.375 545.625L615 568.125L568.125 594.375L523.125 620.625L472.5 648.75L427.5 675L376.875 703.125L324.375 733.125L281.25 757.5L234.375 783.75L198.75 804.375L155.625 828.75L125.625 843.75L108.75 847.5H82.5L56.25 840L37.5 828.75L20.625 813.75L7.5 793.125L0 768.75V78.75L7.5 54.375L20.625 33.75L39.375 16.875L65.625 3.75L84.375 0Z" fill="#4284F3"/>
<path d="M545.625 241.875L607.5 275.625L652.5 301.875L699.375 328.125L731.25 346.875L746.25 360L759.375 378.75L768.75 401.25L770.625 412.5V436.875L765 457.5L753.75 480L733.125 500.625L701.25 519.375L654.375 545.625L615 568.125L568.125 594.375L523.125 620.625L472.5 648.75L427.5 675L376.875 703.125L324.375 733.125L281.25 757.5L234.375 783.75L198.75 804.375L155.625 828.75L125.625 843.75L108.75 847.5H82.5L56.25 840L37.5 828.75L20.625 813.75L7.5 793.125L3.75 783.75L5.625 774.375L112.5 667.5L127.5 654.375L226.875 555L241.875 541.875L343.125 440.625H346.875V436.875L361.875 423.75L468.75 316.875H472.5V313.125L487.5 300L545.625 241.875Z" fill="#EA4335"/>
<path d="M84.375 0H106.875L131.25 5.625L163.125 22.5L208.125 48.75L258.75 76.875L303.75 103.125L350.625 129.375L534.375 234.375L545.625 241.875L534.375 255L476.25 313.125H472.5V316.875L457.5 330L363.75 423.75L348.75 412.5L249.375 313.125L234.375 300L131.25 196.875L116.25 183.75L15 82.5L3.75 73.125L5.625 60L15 41.25L31.875 22.5L52.5 9.375L73.125 1.875L84.375 0Z" fill="#34A853"/>
<path d="M545.625 241.875L607.5 275.625L652.5 301.875L699.375 328.125L731.25 346.875L746.25 360L759.375 378.75L768.75 401.25L770.625 412.5V436.875L765 457.5L753.75 480L733.125 500.625L701.25 519.375L654.375 545.625L615 568.125L568.125 594.375L549.375 605.625L541.875 601.875L480 540L476.25 538.125V534.375L468.75 530.625L361.875 423.75L468.75 316.875H472.5V313.125L487.5 300L545.625 241.875Z" fill="#FBBC04"/>
</svg>
